<svg xmlns="http://www.w3.org/2000/svg" width="205.622" height="177.05" viewBox="0 0 205.622 177.05">
  <g id="Group_2141" data-name="Group 2141" opacity="0.6">
    <path id="Path_47851" data-name="Path 47851" d="M286.97,238.51a5.761,5.761,0,0,1,2.163-4.7l-4.7-4.327v18.2h7.737v-4.045a5.15,5.15,0,0,1-5.2-5.126Z" transform="translate(-181.548 -202.484)" fill="#334756"/>
    <path id="Path_47852" data-name="Path 47852" d="M292.894,238.51a5.738,5.738,0,0,0-2.187-4.7l4.7-4.327v18.2h-7.76v-4.045a5.15,5.15,0,0,0,5.244-5.126Z" transform="translate(-177.196 -202.484)" fill="#334756"/>
    <path id="Path_47853" data-name="Path 47853" d="M280.38,238.51a5.761,5.761,0,0,1,2.163-4.7l-4.7-4.327v18.2h7.737v-4.045a5.15,5.15,0,0,1-5.2-5.126Z" transform="translate(-190.455 -202.484)" fill="#334756"/>
    <path id="Path_47854" data-name="Path 47854" d="M286.3,238.51a5.738,5.738,0,0,0-2.187-4.7l4.7-4.327v18.2h-7.76v-4.045a5.15,5.15,0,0,0,5.244-5.126Z" transform="translate(-186.103 -202.484)" fill="#334756"/>
    <rect id="Rectangle_3625" data-name="Rectangle 3625" width="30.994" height="2.704" transform="translate(87.313 47.009)" fill="#334756"/>
    <path id="Path_47855" data-name="Path 47855" d="M287.574,229.405a2.022,2.022,0,1,1-2-1.975,2,2,0,0,1,2,1.975Z" transform="translate(-182.764 -205.255)" fill="#334756"/>
    <path id="Path_47856" data-name="Path 47856" d="M293.249,229.358a1.434,1.434,0,1,1-.412-1.029A1.435,1.435,0,0,1,293.249,229.358Z" transform="translate(-173.506 -204.619)" fill="#334756"/>
    <path id="Path_47857" data-name="Path 47857" d="M277.19,229.358a1.458,1.458,0,1,0,1.458-1.458A1.458,1.458,0,0,0,277.19,229.358Z" transform="translate(-191.334 -204.619)" fill="#334756"/>
    <path id="Path_47858" data-name="Path 47858" d="M275.757,268.791v-17.66H272.7v-2.352a5.008,5.008,0,0,0,2.352-.941,4.327,4.327,0,0,0,1.6-1.928H279v22.951Z" transform="translate(-197.402 -180.277)" fill="#334756"/>
    <path id="Path_47859" data-name="Path 47859" d="M287.669,263.8a5.456,5.456,0,0,1-5.456,5.479,5.385,5.385,0,0,1-3.9-1.6,5.291,5.291,0,0,1-1.6-3.88v-12.51a5.22,5.22,0,0,1,1.623-3.88,5.456,5.456,0,0,1,9.406,3.88Zm-3.574-12.581a1.987,1.987,0,1,0-3.974,0v12.534a1.976,1.976,0,0,0,3.386,1.411,1.929,1.929,0,0,0,.588-1.411Z" transform="translate(-191.983 -180.535)" fill="#334756"/>
    <path id="Path_47860" data-name="Path 47860" d="M293.6,263.75a5.291,5.291,0,0,1-1.6,3.88,5.5,5.5,0,0,1-7.76,0,5.291,5.291,0,0,1-1.6-3.88V251.24a5.221,5.221,0,0,1,1.623-3.88,5.291,5.291,0,0,1,3.88-1.6,5.409,5.409,0,0,1,5.456,5.479Zm-3.574-12.581a2.023,2.023,0,0,0-.588-1.411,1.975,1.975,0,0,0-2.822,0,2,2,0,0,0-.564,1.411V263.7a1.987,1.987,0,1,0,3.974,0Z" transform="translate(-183.968 -180.481)" fill="#334756"/>
    <path id="Path_47861" data-name="Path 47861" d="M295.069,254.877a2.681,2.681,0,0,1-.847,2,2.869,2.869,0,0,1-4.068,0,2.657,2.657,0,0,1-.823-2v-6.561a2.7,2.7,0,0,1,.823-2.022,2.892,2.892,0,0,1,4.915,2.022Zm-2.634,14.885h-2.022l11.758-24.268h2.022Zm-1.34-14.933a.988.988,0,0,0,.306.753,1.044,1.044,0,0,0,1.787-.752v-6.537a1.048,1.048,0,0,0-1.787-.753.988.988,0,0,0-.306.753Zm11.288,2.352a2.728,2.728,0,0,1,2.022.847,2.892,2.892,0,0,1,.823,2.022v6.561a2.7,2.7,0,0,1-.823,2,2.775,2.775,0,0,1-2.022.847,2.892,2.892,0,0,1-2.869-2.845v-6.561a2.775,2.775,0,0,1,.846-2.022,2.7,2.7,0,0,1,2.023-.8Zm.988,2.845a.988.988,0,0,0-.306-.753,1.044,1.044,0,0,0-1.787.753v6.537a1.082,1.082,0,0,0,.306.753.988.988,0,0,0,.753.306.94.94,0,0,0,.729-.306.988.988,0,0,0,.306-.753Z" transform="translate(-174.926 -180.873)" fill="#334756"/>
    <path id="Path_47862" data-name="Path 47862" d="M373.741,275.887v5.032l-55.5,31.981-55.4-31.981V275.84q-1.058.4-2.116.847l-1.364.588v5.644l58.79,33.957,58.79-33.957v-5.644l-1.34-.588A13.018,13.018,0,0,0,373.741,275.887Z" transform="translate(-215.432 -139.825)" fill="#334756"/>
    <path id="Path_47863" data-name="Path 47863" d="M261.728,316.766l1.058-.329V254.732l55.4-32.781,55.5,32.781v61.705l1.058.329.353.118,2.046.682V252.756L318.19,218,259.4,252.827v64.81l2.046-.682Z" transform="translate(-215.378 -218)" fill="#334756"/>
    <path id="Path_47864" data-name="Path 47864" d="M351.881,286.044a170.679,170.679,0,0,0-22.6-14.744l-8.019,14.768-1.2,2.21h0c-5.056-.894-9.524-1.6-9.524-1.6v3.857c13.028,5.15,16.32,8,27.7,17.12.188-5.268.118-10.629-.212-16.014Q344.779,288.631,351.881,286.044Z" transform="translate(-146.258 -145.961)" fill="#334756"/>
    <path id="Path_47865" data-name="Path 47865" d="M272.473,288.278l-1.2-2.21c-2.657-4.915-5.338-9.83-8-14.768a169.139,169.139,0,0,0-22.6,14.744q7.055,2.587,13.733,5.644A152.026,152.026,0,0,0,254.2,307.7c11.382-9.124,14.674-11.97,27.7-17.12v-3.857s-4.468.705-9.406,1.6Z" transform="translate(-240.68 -145.961)" fill="#334756"/>
    <rect id="Rectangle_3626" data-name="Rectangle 3626" width="15.873" height="1.576" transform="translate(67.701 39.342)" fill="#334756"/>
    <rect id="Rectangle_3627" data-name="Rectangle 3627" width="15.873" height="1.576" transform="translate(122.024 39.342)" fill="#334756"/>
    <path id="Path_47866" data-name="Path 47866" d="M264.711,265.994c-.259-.8-.823-1.058-1.693-.753l-1.387.47,1.482,4.327,1.34-.47a1.246,1.246,0,0,0,.8-.658,1.105,1.105,0,0,0,0-.941Z" transform="translate(-212.364 -154.318)" fill="#334756"/>
    <path id="Path_47867" data-name="Path 47867" d="M297.263,268.824l.141-5.714-1.834,5.409Z" transform="translate(-166.492 -157.03)" fill="#334756"/>
    <path id="Path_47868" data-name="Path 47868" d="M289.262,261.582a1.458,1.458,0,0,0-.988.306,1.059,1.059,0,0,0-.423.847c-.141,2.61-.282,5.221-.4,7.807a1.153,1.153,0,0,0,.329.894,1.223,1.223,0,0,0,.894.4,1.27,1.27,0,0,0,.917-.282,1.176,1.176,0,0,0,.447-.847c.188-2.61.353-5.2.517-7.807a1.105,1.105,0,0,0-.329-.894A1.458,1.458,0,0,0,289.262,261.582Z" transform="translate(-177.468 -159.1)" fill="#334756"/>
    <path id="Path_47869" data-name="Path 47869" d="M260.934,267.3a1.223,1.223,0,0,0-.682-.682,1.458,1.458,0,0,0-1.082,0l-1.34.564c.564,1.411,1.152,2.822,1.74,4.209l1.317-.541a1.34,1.34,0,0,0,.753-.682,1.152,1.152,0,0,0,0-.964C261.428,268.6,261.169,267.96,260.934,267.3Z" transform="translate(-217.5 -152.427)" fill="#334756"/>
    <path id="Path_47870" data-name="Path 47870" d="M389.633,267.607l-3.363-1.152a178.909,178.909,0,0,0-110.807,0l-3.48,1.152a178.932,178.932,0,0,0-21.893,9.171l12.816,25.491c2.987-1.505,6.02-2.869,9.077-4.162,1.152-.494,2.352-.917,3.48-1.364a150.642,150.642,0,0,1,110.807,0c1.152.447,2.352.87,3.457,1.364,3.057,1.293,6.114,2.657,9.1,4.162l12.816-25.491a179.222,179.222,0,0,0-22.011-9.171Zm-115.51,15.379a3.692,3.692,0,0,1-2.022,1.881l-1.246.517,2.046,4.962-2.069.87c-1.881-4.35-3.786-8.724-5.667-13.1,1.176-.517,2.352-1.011,3.6-1.505a4.068,4.068,0,0,1,3.01-.118,3.175,3.175,0,0,1,1.787,1.9c.235.658.47,1.293.729,1.952a3.151,3.151,0,0,1-.165,2.634Zm9.759,3.292c-.988-1.552-1.975-3.1-2.986-4.7h-.212l-1.27.423,1.764,5.079-2.116.753-4.868-13.4,3.645-1.293a4.021,4.021,0,0,1,3.151,0,3.409,3.409,0,0,1,1.529,2.069c.212.658.4,1.317.611,1.975a3.222,3.222,0,0,1-.423,2.822c1.176,1.811,2.352,3.621,3.48,5.432Zm4.139-1.27L284,271.3c2.211-.658,4.468-1.27,6.7-1.811.188.705.353,1.387.517,2.093l-4.3,1.129,1.058,3.763,3.057-.823.541,2.093-3.034.8L289.6,282.3q2.022-.564,4.021-1.058l.541,2.093C292.207,283.856,290.067,284.327,288.021,285.009Zm15.544-3.692-1.623-8.818q-.188,4.586-.282,9.171l-1.764.353c-1.293-2.775-2.634-5.526-4.045-8.278.658,2.916,1.317,5.832,1.952,8.748l-2.163.494-3.316-13.9,3.41-.776c1.458,3.175,2.869,6.373,4.256,9.594V267.442l3.316-.588,2.352,14.109Zm4.139-.682c-.729-4.7-1.434-9.406-2.163-14.109l2.352-.353c.635,4.7,1.293,9.406,1.928,14.109Zm10.018-2a3.692,3.692,0,0,1-4.962.47,3.222,3.222,0,0,1-1.317-2.352c-.447-3.645-.894-7.313-1.364-10.958l2.352-.282,1.2,10.958a1.082,1.082,0,0,0,.47.823,1.346,1.346,0,0,0,1.811-.188,1.034,1.034,0,0,0,.282-.894c-.329-3.645-.658-7.313-1.011-10.982l2.54-.188c.259,3.668.564,7.337.846,10.982A3.315,3.315,0,0,1,317.722,278.636Zm13.31.282h-2.211v-8.96c-.659,2.986-1.27,6-1.834,9.007H325.2c-.823-2.963-1.67-5.9-2.563-8.865l.423,8.96-2.211.118c-.306-4.7-.588-9.406-.894-14.251l3.48-.188c.87,3.386,1.74,6.773,2.54,10.182.564-3.457,1.2-6.89,1.858-10.323h3.339c-.071,4.8-.094,9.571-.141,14.321Zm12.04-.658c0,.658-.118,1.34-.165,2a2.351,2.351,0,0,1-2.187-1.2,3.126,3.126,0,0,1-1.622.282,3.457,3.457,0,0,1-2.352-1.129,3.363,3.363,0,0,1-.941-2.352l.282-7.784a3.151,3.151,0,0,1,1.2-2.352,4,4,0,0,1,2.775-.87,3.833,3.833,0,0,1,2.634,1.2,3.151,3.151,0,0,1,.917,2.493c-.235,2.587-.423,5.174-.658,7.76a3.269,3.269,0,0,1-.611,1.67A1.082,1.082,0,0,0,343.072,278.26Zm7.478,1.223a3.644,3.644,0,0,1-2.61.635,3.386,3.386,0,0,1-2.352-1.246,3.339,3.339,0,0,1-.8-2.493l1.058-10.982,2.352.235L347,276.566a1.082,1.082,0,0,0,.282.917,1.364,1.364,0,0,0,1.811.235,1.223,1.223,0,0,0,.494-.823c.447-3.645.917-7.29,1.387-10.935l2.516.329c-.541,3.645-1.058,7.29-1.576,10.935a3.268,3.268,0,0,1-1.364,2.258Zm10.3,2.587-2.352-.447v-3.316l-2.352-.423c-.376,1.035-.729,2.093-1.082,3.128l-2.352-.353q2.352-6.89,4.868-13.686l3.292.611c.235,4.821.165,9.689-.024,14.392Zm7.737,1.834c-1.952-.517-3.927-.988-5.9-1.434l3.1-13.921,2.352.541-2.822,11.758c1.27.282,2.54.611,3.786.941-.165.729-.329,1.435-.517,2.116Zm1.482.4c1.27-4.586,2.516-9.171,3.786-13.757l2.352.658c-1.34,4.586-2.657,9.148-4,13.71Zm12.134-8.913-3.88,11.452-2.116-.705c1.223-3.833,2.352-7.69,3.715-11.523l-2.469-.776c.235-.682.423-1.364.635-2.069,2.352.753,4.868,1.552,7.266,2.352-.235.658-.47,1.34-.729,2.022Zm7.055,9.124c-.776,1.858-1.505,3.692-2.352,5.55l-2.069-.846c.705-1.858,1.458-3.715,2.164-5.573v-8.912l2.54.964q0,2.728-.212,5.432c1.176-1.364,2.352-2.728,3.6-4.068l2.516,1.058c-2.116,2.093-4.256,4.233-6.255,6.4Z" transform="translate(-227.962 -164.396)" fill="#334756"/>
    <path id="Path_47871" data-name="Path 47871" d="M289.658,272.55l2.822,5.714,6.3.917-4.562,4.445,1.082,6.3-5.644-2.963-5.644,2.963,1.082-6.3-4.586-4.445,6.326-.917Z" transform="translate(-186.846 -144.271)" fill="#334756"/>
    <path id="Path_47872" data-name="Path 47872" d="M278.129,275.6l1.552,3.128,3.457.494-2.516,2.469.611,3.433-3.1-1.623-3.1,1.623.588-3.433-2.493-2.469,3.457-.494Z" transform="translate(-196.835 -140.149)" fill="#334756"/>
    <path id="Path_47873" data-name="Path 47873" d="M296.442,275.6l-1.552,3.128-3.48.494,2.516,2.469-.588,3.433,3.1-1.623,3.081,1.623-.588-3.433,2.516-2.469-3.48-.494Z" transform="translate(-172.114 -140.149)" fill="#334756"/>
  </g>
</svg>
