<svg xmlns="http://www.w3.org/2000/svg" xmlns:xlink="http://www.w3.org/1999/xlink" width="1920" height="964" viewBox="0 0 1920 964">
  <defs>
    <clipPath id="clip-path">
      <rect id="Rectangle_206" data-name="Rectangle 206" width="1920" height="964" fill="#dbdbdb"/>
    </clipPath>
    <clipPath id="clip-path-2">
      <rect id="Rectangle_207" data-name="Rectangle 207" width="1920" height="997.309" fill="none"/>
    </clipPath>
  </defs>
  <g id="Group_1293" data-name="Group 1293" transform="translate(0 -1644)">
    <g id="Group_1220" data-name="Group 1220" transform="translate(0 1644)">
      <rect id="Rectangle_208" data-name="Rectangle 208" width="1920" height="964" fill="#334756"/>
    </g>
    <g id="Mask_Group_168" data-name="Mask Group 168" transform="translate(0 1644)" opacity="0.03" clip-path="url(#clip-path)">
      <g id="Layer_2" data-name="Layer 2" transform="translate(-0.001 0)">
        <g id="Layer_1" data-name="Layer 1" transform="translate(0 0)">
          <path id="Path_21628" data-name="Path 21628" d="M252.613,627.271a4.443,4.443,0,0,1-2.984,4.12,5.24,5.24,0,0,1-5.327-.938,4.144,4.144,0,0,1-1.074-4.835,4.9,4.9,0,0,1,4.509-2.744,4.675,4.675,0,0,1,4.876,4.4Z" transform="translate(170.244 340.223)" fill="#dbdbdb"/>
          <g id="Group_266" data-name="Group 266" clip-path="url(#clip-path-2)">
            <path id="Path_21629" data-name="Path 21629" d="M-10.462,788.855h-.267a.418.418,0,0,1,0-.554L89.309,585.861a.488.488,0,0,1,.381-.277.512.512,0,0,1,.457.208h0l17.829,95.437a.476.476,0,0,1,0,.381l-117.867,107a.471.471,0,0,1-.571.242ZM89.385,587.42-8.977,786.431,106.909,681.264Z" transform="translate(-7.595 319.855)" fill="#dbdbdb"/>
            <path id="Path_21630" data-name="Path 21630" d="M18.455,788.843a.459.459,0,0,1-.3,0l-70.019-55.406a.374.374,0,0,1-.19-.312.474.474,0,0,1,0-.312l169.981-147a.663.663,0,0,1,.381-.208.512.512,0,0,1,.457.208h0a.385.385,0,0,1,0,.485L18.874,788.566a.334.334,0,0,1-.3.242Zm-69.333-55.822L18.264,787.7l98.781-199.877Z" transform="translate(-36.512 319.867)" fill="#dbdbdb"/>
            <path id="Path_21631" data-name="Path 21631" d="M133.029,699.12h0l-74.171-2.84a.427.427,0,0,1-.381-.208.352.352,0,0,1,0-.381l52-136.16a.412.412,0,0,1,0-.312.54.54,0,0,1,.457,0,.452.452,0,0,1,.3.416l22.286,139.173a.444.444,0,0,1,0,.346A.538.538,0,0,1,133.029,699.12Zm-73.486-3.775,72.952,2.77L110.743,561.3Z" transform="translate(40.952 305.427)" fill="#dbdbdb"/>
            <path id="Path_21632" data-name="Path 21632" d="M102.464,709.918a.457.457,0,0,1-.3,0,.421.421,0,0,1,0-.623L256.75,539.614a.558.558,0,0,1,.533-.208.5.5,0,0,1,.381.415.349.349,0,0,1,0,.277L227.493,595.5h0L103.036,709.78a.443.443,0,0,1-.571.138ZM254.845,542.9,109.626,702.2,226.464,594.847Z" transform="translate(71.517 294.628)" fill="#dbdbdb"/>
            <path id="Path_21633" data-name="Path 21633" d="M111.547,709.957h0a.4.4,0,0,1-.343-.346l-22.133-139.1a.386.386,0,0,1,.078-.316.465.465,0,0,1,.3-.169l176.8-30.646a.414.414,0,0,1,.381,0,.408.408,0,0,1,.191.312.507.507,0,0,1,0,.312L112.157,709.68a.549.549,0,0,1-.61.277Zm-21.6-139.208,21.9,137.753L265.186,540.414Z" transform="translate(62.434 294.59)" fill="#dbdbdb"/>
            <path id="Path_21634" data-name="Path 21634" d="M273.248,582.592a.583.583,0,0,1-.381,0,.507.507,0,0,1,0-.416L325.1,447.47a.432.432,0,0,1,.3-.312.453.453,0,0,1,.5,0l118.1,116.457a.352.352,0,0,1,0,.416.444.444,0,0,1-.381.312l-170.1,18.249Zm52.419-134.221L273.972,581.8l168.609-18.111Z" transform="translate(191.247 244.205)" fill="#dbdbdb"/>
            <path id="Path_21635" data-name="Path 21635" d="M373.346,596.992h0a.454.454,0,0,1-.343-.45L399.67,387.7a.445.445,0,0,1,.267-.416.535.535,0,0,1,.61,0h0l48.99,96.614a.538.538,0,0,1,0,.416l-75.581,112.3a.447.447,0,0,1-.211.315A.537.537,0,0,1,373.346,596.992ZM400.2,389.219,374.07,594.637l74.286-110.4Z" transform="translate(261.473 211.486)" fill="#dbdbdb"/>
            <path id="Path_21636" data-name="Path 21636" d="M422.047,596.922a.752.752,0,0,1-.381,0L303.57,480.466a.381.381,0,0,1,0-.346.35.35,0,0,1,0-.312l144.762-92.459a.416.416,0,0,1,.343,0,.387.387,0,0,1,.3.173.318.318,0,0,1,0,.312L422.313,596.749a.54.54,0,0,1-.343.346ZM304.675,480.085,421.666,595.5l26.362-207.046Z" transform="translate(212.773 211.556)" fill="#dbdbdb"/>
            <path id="Path_21637" data-name="Path 21637" d="M495.538,475.389a.627.627,0,0,1-.343,0,.351.351,0,0,1,0-.381l41.9-182.286a.414.414,0,0,1,.3-.443.482.482,0,0,1,.541.166h0L673.062,452.707a.415.415,0,0,1,0,.415.6.6,0,0,1-.381.277L495.652,475.458Zm42.1-181.8L496.148,474.419,671.69,452.569Z" transform="translate(347.091 159.634)" fill="#dbdbdb"/>
            <path id="Path_21638" data-name="Path 21638" d="M621.139,457.163h0a.525.525,0,0,1-.419-.312l-52.19-171.135a.568.568,0,0,1,0-.346.387.387,0,0,1,.3-.173h0a.794.794,0,0,1,.381,0l101.714,75.11a.386.386,0,0,1,0,.52l-49.524,96.026A.529.529,0,0,1,621.139,457.163ZM569.825,286.79l51.429,168.677,48.876-94.641Z" transform="translate(398.518 155.766)" fill="#dbdbdb"/>
            <path id="Path_21639" data-name="Path 21639" d="M655.344,457.155a.583.583,0,0,1-.381,0l-135.2-160.331a.414.414,0,0,1,0-.416.451.451,0,0,1,.381-.277l83.162-10.943a.526.526,0,0,1,.533.381h0L655.992,456.6a.37.37,0,0,1-.229.485ZM521.02,296.755,654.354,454.731,602.925,286.124Z" transform="translate(364.313 155.774)" fill="#dbdbdb"/>
            <path id="Path_21640" data-name="Path 21640" d="M628.748,392.371a.457.457,0,0,1-.343,0,.35.35,0,0,1,0-.381L671.91,228.4a.535.535,0,0,1,.571-.346.408.408,0,0,1,.343.277l88.343,146.584a.414.414,0,0,1,.013.408.491.491,0,0,1-.356.25L628.748,392.372Zm43.886-162.755L629.4,391.4,760.063,374.78Z" transform="translate(440.471 124.567)" fill="#dbdbdb"/>
            <path id="Path_21641" data-name="Path 21641" d="M706.4,384.46a.458.458,0,0,1-.3,0,.356.356,0,0,1,0-.519l97.3-171.828a.466.466,0,0,1,.229-.242.5.5,0,0,1,.534,0l67.124,54.021a.413.413,0,0,1,0,.346.374.374,0,0,1-.191.312L706.669,384.287A.5.5,0,0,1,706.4,384.46Zm97.486-171.62L707.812,382.52,870.1,266.237Z" transform="translate(494.893 115.684)" fill="#dbdbdb"/>
            <path id="Path_21642" data-name="Path 21642" d="M742.89,384.519a.462.462,0,0,1-.419-.242l-88.5-146.688a.451.451,0,0,1,.381-.658l185.676-25.21a.415.415,0,0,1,.343,0,.344.344,0,0,1,.191.277.349.349,0,0,1,0,.277L743.233,384.138a.462.462,0,0,1-.419.242ZM655.271,237.762,742.89,383.2l96.5-170.408Z" transform="translate(458.405 115.625)" fill="#dbdbdb"/>
            <path id="Path_21643" data-name="Path 21643" d="M810.166,304.311a.484.484,0,0,1-.5-.381l-17.1-160.608a.5.5,0,0,1,.19-.416.49.49,0,0,1,.648,0h0l116.3,153.579a.634.634,0,0,1,0,.45.462.462,0,0,1-.419.242L810.243,304.1ZM793.709,145.019l16.876,158.531,97.9-6.926Z" transform="translate(555.586 77.991)" fill="#dbdbdb"/>
            <path id="Path_21644" data-name="Path 21644" d="M830.736,304.319a.668.668,0,0,1-.343,0l-67.086-54.159a.385.385,0,0,1,0-.485l49.867-106.587a.52.52,0,0,1,.343-.277.666.666,0,0,1,.457,0,.347.347,0,0,1,0,.277l17.1,160.608a.443.443,0,0,1-.267.45Zm-66.7-54.575,66.1,53.19L813.327,145.1Z" transform="translate(535.016 77.983)" fill="#dbdbdb"/>
            <path id="Path_21645" data-name="Path 21645" d="M861.351,318.374h0a.392.392,0,0,1-.343-.381l1.333-213.452a.571.571,0,0,1,0-.346.71.71,0,0,1,.381,0h0a.818.818,0,0,1,.381.208l78.21,107.592a.448.448,0,0,1,0,.485L861.77,318.339A.665.665,0,0,1,861.351,318.374ZM863.1,105.857,861.77,316.5l78.514-104.441Z" transform="translate(603.563 56.899)" fill="#dbdbdb"/>
            <path id="Path_21646" data-name="Path 21646" d="M909.314,318.337a.474.474,0,0,1-.381-.173l-116.3-153.475a.382.382,0,0,1,0-.346.3.3,0,0,1,.229-.277l117.524-59.8a.71.71,0,0,1,.381,0h0a.48.48,0,0,1,.419.346.192.192,0,0,1,0,.208l-1.333,213.348a.494.494,0,0,1-.343.416ZM793.733,164.447l115.124,152.09L910.19,105.3Z" transform="translate(555.6 56.935)" fill="#dbdbdb"/>
            <path id="Path_21647" data-name="Path 21647" d="M963.882,209.964a.5.5,0,0,1-.408-.248.415.415,0,0,1,.027-.445L1104.8,9.982a.533.533,0,0,1,.648,0,.473.473,0,0,1,.229.416l15.238,135.052a.508.508,0,0,1-.267.45L964.073,210ZM1104.835,11.506l-139.657,197,154.743-63.371Z" transform="translate(675.356 5.393)" fill="#dbdbdb"/>
            <path id="Path_21648" data-name="Path 21648" d="M1055.906,161.182h-.229a.472.472,0,0,1-.229-.416l16.8-178.546a.474.474,0,0,1,.419-.381.46.46,0,0,1,.533.312h0l60.076,138.9a.429.429,0,0,1-.19.554l-76.915,39.511Zm17.143-177.126L1056.477,159.97l75.771-38.923Z" transform="translate(739.866 -9.924)" fill="#dbdbdb"/>
            <path id="Path_21649" data-name="Path 21649" d="M1062.2,161.182a.474.474,0,0,1-.457-.416L1046.507,25.714a.318.318,0,0,1,0-.312l32-43.286a.488.488,0,0,1,.381-.277.459.459,0,0,1,.533.312h0v.069l-16.8,178.477a.475.475,0,0,1-.457.416ZM1047.459,25.645l14.7,130.481,16.229-172.313Z" transform="translate(733.569 -9.924)" fill="#dbdbdb"/>
            <path id="Path_21650" data-name="Path 21650" d="M1101.11,135.868a.542.542,0,0,1-.3,0,.352.352,0,0,1,0-.416l38.895-179.2a.542.542,0,0,1,.343-.346.455.455,0,0,1,.457,0h0l93.029,118.569a.565.565,0,0,1,0,.346.4.4,0,0,1-.267.277L1101.3,135.8Zm39.314-178.477-38.667,177.23,130.7-59.908Z" transform="translate(771.614 -24.121)" fill="#dbdbdb"/>
            <path id="Path_21651" data-name="Path 21651" d="M1125.926,135.868a.576.576,0,0,1-.457-.277L1065.355-3.582a.47.47,0,0,1,.267-.554L1164.669-44.1h0a.454.454,0,0,1,.457,0h0a.351.351,0,0,1,0,.381h0l-38.743,179.239a.517.517,0,0,1-.419.346ZM1066.536-3.409l59.238,137.3,38.59-176.815Z" transform="translate(746.797 -24.121)" fill="#dbdbdb"/>
            <path id="Path_21652" data-name="Path 21652" d="M1178.754,85.3a.373.373,0,0,1-.3,0,.388.388,0,0,1,0-.554L1285.917-62.289a.557.557,0,0,1,.419-.173h0l88.762,8.83a.411.411,0,0,1,.419.312.353.353,0,0,1,0,.45L1179.059,85.2a.443.443,0,0,1-.3.1Zm107.733-147L1180.774,82.91l193.1-135.953Z" transform="translate(826.007 -34.118)" fill="#dbdbdb"/>
            <path id="Path_21653" data-name="Path 21653" d="M1217.067,85.336a.466.466,0,0,1-.38-.208l-92.953-118.5a.415.415,0,0,1,0-.416.6.6,0,0,1,.381-.277L1324.5-62.529h0a.554.554,0,0,1,.381.173h0a.415.415,0,0,1,0,.416h0L1217.448,85.024a.428.428,0,0,1-.381.208ZM1124.953-33.3l92.114,117.426L1323.734-61.56Z" transform="translate(787.694 -34.154)" fill="#dbdbdb"/>
            <path id="Path_21654" data-name="Path 21654" d="M79.854,789.231a.46.46,0,0,1-.3,0,.445.445,0,0,1,0-.416l38.4-139.312a.253.253,0,0,1,0-.173h0a.577.577,0,0,1,.61,0L287.13,726.068a.479.479,0,0,1,.267.415.5.5,0,0,1-.343.381L80.044,789.2Zm38.7-139.1-38.019,138,205.1-61.778Z" transform="translate(55.727 354.627)" fill="#dbdbdb"/>
            <path id="Path_21655" data-name="Path 21655" d="M94.66,790.266h0a.491.491,0,0,1-.457-.312L58.431,647.768a.351.351,0,0,1,0-.381.5.5,0,0,1,.381,0l74.171,2.839a.459.459,0,0,1,.381.243.382.382,0,0,1,0,.346L95.155,789.954a.5.5,0,0,1-.5.312ZM59.5,648.288,94.7,788.119l37.752-137.061Z" transform="translate(40.921 353.592)" fill="#dbdbdb"/>
            <path id="Path_21656" data-name="Path 21656" d="M219.81,767.332h0a.438.438,0,0,1-.343-.312l-44.3-191.255a.412.412,0,0,1,.3-.485.539.539,0,0,1,.5,0L329.791,675.15a1120.273,1120.273,0,0,1,0,.658L220.077,767.193a.47.47,0,0,1-.267.139ZM176.343,576.7l43.733,189.523L328.724,675.7Z" transform="translate(122.781 314.194)" fill="#dbdbdb"/>
            <path id="Path_21657" data-name="Path 21657" d="M271.1,767.323h-.19L102.3,690.308a.419.419,0,0,1-.267-.346.289.289,0,0,1,0-.346L226.418,575.34h.229a.45.45,0,0,1,.571,0h0a.442.442,0,0,1,0,.208L271.408,766.7a.383.383,0,0,1,0,.416A.418.418,0,0,1,271.1,767.323Zm-167.81-77.534,167.162,76.183-43.81-189.489Z" transform="translate(71.487 314.204)" fill="#dbdbdb"/>
            <path id="Path_21658" data-name="Path 21658" d="M266.11,698.345a.457.457,0,0,1-.3,0,.435.435,0,0,1-.19-.381L277.844,534.62a.355.355,0,0,1,.3-.346.539.539,0,0,1,.5,0h0L394.529,654.54a.444.444,0,0,1,0,.381.459.459,0,0,1-.267.312L266.186,698.345ZM278.72,535.59,266.605,697.237l126.743-42.663Z" transform="translate(186.195 291.796)" fill="#dbdbdb"/>
            <path id="Path_21659" data-name="Path 21659" d="M329.52,698.382a.458.458,0,0,1-.3,0l-153.867-99.9a.467.467,0,0,1-.191-.381.426.426,0,0,1,.3-.346l166.019-63.544h0a.539.539,0,0,1,.5,0h0a.351.351,0,0,1,0,.381L329.786,697.9a.35.35,0,0,1-.267.346ZM176.605,598.2l152.381,98.9,12.076-161.855Z" transform="translate(122.785 291.759)" fill="#dbdbdb"/>
            <path id="Path_21660" data-name="Path 21660" d="M341.341,661.672a.624.624,0,0,1-.343,0,.508.508,0,0,1,0-.45l54.438-138.515a.456.456,0,0,1,.419-.277h0a.493.493,0,0,1,.347.071.412.412,0,0,1,.186.276l19.848,124.7a.417.417,0,0,1-.343.485l-74.4,13.851Zm54.248-137.234-53.524,136.23L415.208,647.2Z" transform="translate(239.002 285.356)" fill="#dbdbdb"/>
            <path id="Path_21661" data-name="Path 21661" d="M389.083,661.684a.626.626,0,0,1-.343,0L272.893,541.453a.508.508,0,0,1,0-.45.456.456,0,0,1,.419-.277l170.248-18.319h0a.492.492,0,0,1,.36.083.406.406,0,0,1,.174.3.349.349,0,0,1,0,.277l-54.4,138.515a.527.527,0,0,1-.381.277Zm-114.9-120.335L388.931,660.4l53.9-137.2Z" transform="translate(191.26 285.344)" fill="#dbdbdb"/>
            <path id="Path_21662" data-name="Path 21662" d="M385.11,687.651a.458.458,0,0,1-.267,0,.431.431,0,0,1-.191-.45l55.619-237.1a.516.516,0,0,1,.914,0L488.576,626.7a.353.353,0,0,1,0,.45l-103.048,60.6Zm55.657-235.476L385.833,686.439,487.624,626.6Z" transform="translate(269.633 245.699)" fill="#dbdbdb"/>
            <path id="Path_21663" data-name="Path 21663" d="M393.344,687.687h0a.517.517,0,0,1-.457-.381L372.925,562.435a.349.349,0,0,1,0-.277l75.581-112.3a.45.45,0,0,1,.571,0,.411.411,0,0,1,.245.192.35.35,0,0,1,.022.293l-55.5,237a.489.489,0,0,1-.5.346ZM373.915,562.469l19.5,122.309,54.514-232.324Z" transform="translate(261.399 245.663)" fill="#dbdbdb"/>
            <path id="Path_21664" data-name="Path 21664" d="M445.64,648.636a.277.277,0,0,1-.267-.485L530.211,410.39a.459.459,0,0,1,.457-.277.453.453,0,0,1,.457.311h0l61.3,147.172a.417.417,0,0,1,0,.519l-146.476,90.52a.331.331,0,0,1-.3,0Zm84.876-236.861-83.81,235.476L591.468,557.6Z" transform="translate(312.15 224.01)" fill="#dbdbdb"/>
            <path id="Path_21665" data-name="Path 21665" d="M465.236,648.643h0a.453.453,0,0,1-.457-.312L417.35,471.725a.44.44,0,0,1,.267-.485l132.152-61.12a.541.541,0,0,1,.3,0,.453.453,0,0,1,.457.312h0a.319.319,0,0,1,0,.312l-84.991,237.9a.5.5,0,0,1-.3,0ZM418.378,472.036l46.933,174.772,83.81-235.3Z" transform="translate(292.555 224.002)" fill="#dbdbdb"/>
            <path id="Path_21666" data-name="Path 21666" d="M531.6,565.936a.541.541,0,0,1-.3,0,.388.388,0,0,1,0-.554l115.7-169.3a.535.535,0,0,1,.61,0h0a.4.4,0,0,1,.229.485L634.652,455.99a.254.254,0,0,1,0,.173L532.1,566.005a.493.493,0,0,1-.5-.069Zm114.7-167.5-110.9,162.305L633.662,455.5Z" transform="translate(372.357 216.294)" fill="#dbdbdb"/>
            <path id="Path_21667" data-name="Path 21667" d="M556.9,566.013h0a.571.571,0,0,1-.419-.277L495.145,418.529a.444.444,0,0,1,0-.381.5.5,0,0,1,.343-.208L672.44,395.882a.416.416,0,0,1,.343,0h0a.509.509,0,0,1,.267.45v.243l-115.657,169.2a.428.428,0,0,1-.5.242ZM496.211,418.737l60.762,145.857L671.64,396.713Z" transform="translate(347.065 216.217)" fill="#dbdbdb"/>
            <path id="Path_21668" data-name="Path 21668" d="M591.851,490.054a.46.46,0,0,1-.3,0,.479.479,0,0,1,0-.485l62.743-155.379a.46.46,0,0,1,.267-.312.579.579,0,0,1,.533,0,.475.475,0,0,1,0,.381l2.362,123.278a.415.415,0,0,1-.267.381l-65.1,32.1Zm62.324-153.544L592.727,488.668,656.5,457.225Z" transform="translate(414.625 182.334)" fill="#dbdbdb"/>
            <path id="Path_21669" data-name="Path 21669" d="M591.843,490.078h0a.417.417,0,0,1-.343-.485l13.181-59.423L654.2,334.041a.622.622,0,0,1,.229-.208.58.58,0,0,1,.534,0,.386.386,0,0,1,0,.485L592.224,489.732A.512.512,0,0,1,591.843,490.078ZM650.4,343.356l-44.914,87.057-11.924,53.779Z" transform="translate(414.633 182.309)" fill="#dbdbdb"/>
            <path id="Path_21670" data-name="Path 21670" d="M630.209,463.762a.541.541,0,0,1-.419,0,.386.386,0,0,1,0-.519L759.314,323.2h0a.494.494,0,0,1,.572,0l90.933,53.917a.473.473,0,0,1,.228.416.568.568,0,0,1-.3.346L630.095,464.074ZM760,323.793,631.847,462.308l218.172-85.256Z" transform="translate(441.41 176.489)" fill="#dbdbdb"/>
            <path id="Path_21671" data-name="Path 21671" d="M631.173,463.877h-.19a.452.452,0,0,1-.3-.415l-2.362-123.313a.391.391,0,0,1,.107-.3.473.473,0,0,1,.312-.146l132.038-16.8a.577.577,0,0,1,.533.312.507.507,0,0,1,0,.415L631.592,463.738A.442.442,0,0,1,631.173,463.877Zm-1.9-123.382,2.324,121.789L759.706,323.769Z" transform="translate(440.446 176.375)" fill="#dbdbdb"/>
            <path id="Path_21672" data-name="Path 21672" d="M759.85,419.193a.544.544,0,0,1-.3,0,.386.386,0,0,1,0-.485L833.031,246.95h0a.709.709,0,0,1,.457,0,.731.731,0,0,1,.343.312l36.229,110.4a.366.366,0,0,1-.19.485L760.117,419.193A.332.332,0,0,1,759.85,419.193ZM833.3,248.335l-72.381,169.4,108.267-60.531Z" transform="translate(532.378 134.867)" fill="#dbdbdb"/>
            <path id="Path_21673" data-name="Path 21673" d="M797.368,419.26a.416.416,0,0,1-.267,0l-90.933-53.917a.582.582,0,0,1-.229-.346.4.4,0,0,1,.19-.346L870.587,246.912a.49.49,0,0,1,.648,0,.447.447,0,0,1,0,.485L797.749,419.121s0,.208-.3.277Zm-90.133-54.367,89.9,53.294,72.648-169.681Z" transform="translate(494.861 134.801)" fill="#dbdbdb"/>
            <path id="Path_21674" data-name="Path 21674" d="M824.326,360.4a.542.542,0,0,1-.3,0,.448.448,0,0,1,0-.519l62.933-117.426a.52.52,0,0,1,.876,0l34.743,54.921a.418.418,0,0,1,0,.554L824.9,360.26a.485.485,0,0,1-.571.139ZM887.3,243.457l-61.715,115.21,95.81-61.293Z" transform="translate(577.578 132.3)" fill="#dbdbdb"/>
            <path id="Path_21675" data-name="Path 21675" d="M839.287,360.351h0a.487.487,0,0,1-.419-.312l-36.228-110.4a.446.446,0,0,1,0-.381.584.584,0,0,1,.381,0l99.048-6.926a.331.331,0,0,1,.3,0,.41.41,0,0,1,.263.2.35.35,0,0,1,0,.315h0l-62.9,117.392a.531.531,0,0,1-.457.1ZM803.668,249.92l35.734,108.8L901.42,242.994Z" transform="translate(562.617 132.347)" fill="#dbdbdb"/>
            <path id="Path_21676" data-name="Path 21676" d="M881.813,335.36a.793.793,0,0,1-.3,0,.384.384,0,0,1,0-.45l44.8-160.816a.49.49,0,0,1,.5-.346h0a.554.554,0,0,1,.457.381l16.266,136.126a.378.378,0,0,1-.267.416L882,335.36Zm44.609-158.912L882.5,334.148l60.038-24.24Z" transform="translate(617.883 94.903)" fill="#dbdbdb"/>
            <path id="Path_21677" data-name="Path 21677" d="M896.193,335.4a.462.462,0,0,1-.419-.242L860.993,280.2a.383.383,0,0,1,0-.45l79.5-105.756a.457.457,0,0,1,.5-.312h0a.54.54,0,0,1,.419.242.508.508,0,0,1,0,.416L896.65,335.051a.407.407,0,0,1-.381.312Zm-34.286-55.406L895.927,333.8l43.848-157.388Z" transform="translate(603.502 94.866)" fill="#dbdbdb"/>
            <path id="Path_21678" data-name="Path 21678" d="M917.827,329.8a.458.458,0,0,1-.3,0,.416.416,0,0,1,0-.485l78.133-190.355s0-.208.3-.277h0a.518.518,0,0,1,.571.208l65.791,108.354a.419.419,0,0,1,0,.589L918.056,329.763Zm78.362-189.593-77.41,188.138,142.552-80.962Z" transform="translate(643.125 75.74)" fill="#dbdbdb"/>
            <path id="Path_21679" data-name="Path 21679" d="M924.612,329.7h0a.438.438,0,0,1-.419-.381L907.774,193.194a.373.373,0,0,1,.228-.416l94.591-53.917h0a.472.472,0,0,1,.572.242.322.322,0,0,1,0,.415l-78.134,189.8A.438.438,0,0,1,924.612,329.7ZM908.65,193.368l16.19,134.048,77.1-187.273Z" transform="translate(636.341 75.837)" fill="#dbdbdb"/>
            <path id="Path_21680" data-name="Path 21680" d="M1002.539,270.517a.457.457,0,0,1-.343,0,.414.414,0,0,1,0-.45L1092.939,97.65a.4.4,0,0,1,.3-.277.539.539,0,0,1,.457,0l130.7,114.691a.383.383,0,0,1,0,.416.5.5,0,0,1-.3.312l-221.409,57.726Zm90.9-172.14-89.981,171.032,219.619-57.276Z" transform="translate(702.489 53.159)" fill="#dbdbdb"/>
            <path id="Path_21681" data-name="Path 21681" d="M1029.669,270.557a.549.549,0,0,1-.419-.208L963.459,162a.507.507,0,0,1,0-.346.439.439,0,0,1,.267-.242l156.533-64.1a.5.5,0,0,1,.509.016.4.4,0,0,1,.177.434h0l-90.819,172.555a.462.462,0,0,1-.419.242ZM964.564,162l65.1,107.349,89.79-170.616Z" transform="translate(675.36 53.118)" fill="#dbdbdb"/>
            <path id="Path_21682" data-name="Path 21682" d="M1154.929,226.717h0a.475.475,0,0,1-.343-.312L1100.72,72.238a.321.321,0,0,1,0-.416.454.454,0,0,1,.457,0h0l155.886,55.2a.4.4,0,0,1,.3.312.35.35,0,0,1,0,.381l-102.1,98.865A.4.4,0,0,1,1154.929,226.717ZM1101.9,72.827l53.333,152.609,100.914-98Z" transform="translate(771.547 39.197)" fill="#dbdbdb"/>
            <path id="Path_21683" data-name="Path 21683" d="M1186.562,226.726a.458.458,0,0,1-.3,0l-130.7-114.794a.443.443,0,0,1,0-.346.581.581,0,0,1,.229-.346L1132.467,71.8a.455.455,0,0,1,.419,0h0a.432.432,0,0,1,.343.346h0l53.753,154.1a.366.366,0,0,1-.191.485Zm-129.9-115,128.876,113.063L1132.5,72.766Z" transform="translate(739.914 39.189)" fill="#dbdbdb"/>
            <path id="Path_21684" data-name="Path 21684" d="M1202.476,149.112h-.229a.353.353,0,0,1-.229-.277l-23.7-115.695a.539.539,0,0,1,0-.346.523.523,0,0,1,.609-.173L1339.352,94.71a.421.421,0,0,1,.3.381.452.452,0,0,1-.3.416l-136.686,53.571ZM1179.429,33.66l23.39,114.275,135.01-52.878Z" transform="translate(825.981 17.799)" fill="#dbdbdb"/>
            <path id="Path_21685" data-name="Path 21685" d="M1256.894,149.149h-.19L1100.97,93.95a.526.526,0,0,1-.3-.381.48.48,0,0,1,.266-.416l132.076-60.566a.411.411,0,0,1,.457,0,.563.563,0,0,1,.229.277l23.657,115.729a.413.413,0,0,1,0,.416.443.443,0,0,1-.457.139ZM1102.342,93.5l153.943,54.54L1232.856,33.765Z" transform="translate(771.563 17.762)" fill="#dbdbdb"/>
            <path id="Path_21686" data-name="Path 21686" d="M1273.033,144.32h0a.451.451,0,0,1-.343-.485l35.924-200.328a.413.413,0,0,1,.186-.276.494.494,0,0,1,.347-.071.5.5,0,0,1,.419.45L1295.889,94.94l-22.248,49a.446.446,0,0,1-.211.315.536.536,0,0,1-.4.066Zm34.286-189.939-33.333,185.887L1294.632,94.8Z" transform="translate(892.148 -31.05)" fill="#dbdbdb"/>
            <path id="Path_21687" data-name="Path 21687" d="M1339.216,144.316h-.191L1178.607,82.192a.488.488,0,0,1-.267-.346.353.353,0,0,1,0-.415l196.305-138.2a.58.58,0,0,1,.533,0,.4.4,0,0,1,.229.45L1339.521,144a.4.4,0,0,1-.267.277ZM1179.75,81.673l159.086,61.6,35.657-198.8Z" transform="translate(825.965 -31.046)" fill="#dbdbdb"/>
            <path id="Path_21688" data-name="Path 21688" d="M148.542,905.815h-.267a.417.417,0,0,1,0-.52l90.171-206.007a.411.411,0,0,1,0-.242.5.5,0,0,1,.533,0,.645.645,0,0,1,.267.277L284.5,797.461a.385.385,0,0,1,0,.485L148.847,905.711A.444.444,0,0,1,148.542,905.815Zm90.21-205.349L149.723,903.876,283.475,797.357Z" transform="translate(103.877 381.787)" fill="#dbdbdb"/>
            <path id="Path_21689" data-name="Path 21689" d="M196.72,905.846a.473.473,0,0,1-.381-.173L79.5,761.929a.444.444,0,0,1,0-.381.548.548,0,0,1,.3-.277l207.01-62.332a.668.668,0,0,1,.381,0,.435.435,0,0,1,.242.234.381.381,0,0,1-.013.32L197.177,905.569a.413.413,0,0,1-.381.277ZM80.681,761.894,196.605,904.53l89.486-204.518Z" transform="translate(55.7 381.756)" fill="#dbdbdb"/>
            <path id="Path_21690" data-name="Path 21690" d="M228.215,830.21h-.3a.416.416,0,0,1,0-.485l64.381-189.593a.428.428,0,0,1,.222-.246.5.5,0,0,1,.349-.031.438.438,0,0,1,.343.312L366,760.606a.429.429,0,0,1-.19.589L228.672,830.175Zm64.5-188.9L228.862,828.894l135.81-68.253Z" transform="translate(159.709 349.489)" fill="#dbdbdb"/>
            <path id="Path_21691" data-name="Path 21691" d="M246.947,830.243a.545.545,0,0,1-.457-.242l-45.3-98.207a.385.385,0,0,1,0-.485l109.6-91.351a.527.527,0,0,1,.61-.136.439.439,0,0,1,.266.517h0L247.595,829.966a.5.5,0,0,1-.457.277Zm-44.762-98.519,44.686,96.961,63.467-187Z" transform="translate(140.977 349.456)" fill="#dbdbdb"/>
            <path id="Path_21692" data-name="Path 21692" d="M308.946,776.466h-.229a.434.434,0,0,1-.229-.519l55.162-163.69a.457.457,0,0,1,.5-.312.48.48,0,0,1,.457.381l12,87.022a.318.318,0,0,1,0,.312l-67.124,76.668a.527.527,0,0,1-.533.139Zm54.971-161.89-53.79,159.292,65.524-74.8Z" transform="translate(216.235 334.252)" fill="#dbdbdb"/>
            <path id="Path_21693" data-name="Path 21693" d="M338.972,776.486a.43.43,0,0,1-.419-.208L265.677,655.667a.381.381,0,0,1,0-.346.5.5,0,0,1,.267-.277l128.076-43.078a.538.538,0,0,1,.5,0,.477.477,0,0,1,0,.45l-55.009,163.76a.487.487,0,0,1-.419.312ZM266.591,655.7l72.114,119.262,54.552-161.89Z" transform="translate(186.209 334.232)" fill="#dbdbdb"/>
            <path id="Path_21694" data-name="Path 21694" d="M348.427,704.6a.373.373,0,0,1-.3,0,.356.356,0,0,1,0-.52l62.362-100.7a.535.535,0,0,1,.381-.242h0l79.771,4.883a.487.487,0,0,1,.419.312.385.385,0,0,1,0,.485L348.808,704.6A.372.372,0,0,1,348.427,704.6Zm62.629-100.7L350.1,702.6l139.352-93.879Z" transform="translate(243.954 329.446)" fill="#dbdbdb"/>
            <path id="Path_21695" data-name="Path 21695" d="M353.376,704.69h0a.4.4,0,0,1-.381-.346l-12.038-87.022a.386.386,0,0,1,.078-.316.465.465,0,0,1,.3-.169l74.286-13.852h.19a.553.553,0,0,1,.381.173h0a.414.414,0,0,1,0,.416h0L353.91,704.205A.511.511,0,0,1,353.376,704.69Zm-11.429-87.126,11.81,85.325,60.952-98.727Z" transform="translate(239.005 329.36)" fill="#dbdbdb"/>
            <path id="Path_21696" data-name="Path 21696" d="M608.6,634.292h0L432.034,630.24a.474.474,0,0,1-.381-.173.445.445,0,0,1,0-.381l23.2-65.483a.53.53,0,0,1,.457-.312h0a.459.459,0,0,1,.3,0l153.3,69.5a.407.407,0,0,1,.267.489.457.457,0,0,1-.5.308Zm-175.924-4.883,173.79,3.982L455.538,564.965Z" transform="translate(302.557 307.992)" fill="#dbdbdb"/>
            <path id="Path_21697" data-name="Path 21697" d="M465.006,630.191h0l-80-4.917a.448.448,0,0,1-.419-.312.4.4,0,0,1,.191-.45L487.635,563.98a.627.627,0,0,1,.343,0h0a.53.53,0,0,1,.457.312h0a.381.381,0,0,1,0,.346l-22.781,65.241a.419.419,0,0,1-.238.3.5.5,0,0,1-.41.008Zm-78.362-5.679,78.019,4.813,22.667-63.994Z" transform="translate(269.584 308.042)" fill="#dbdbdb"/>
            <path id="Path_21698" data-name="Path 21698" d="M538.768,666.262h0a.418.418,0,0,1-.3-.416l-7.2-159.95a.443.443,0,0,1,0-.312.511.511,0,0,1,.533-.243h.267L624.14,568.3a.38.38,0,0,1,0,.277.382.382,0,0,1,0,.346l-84.914,96.961a.442.442,0,0,1-.457.381ZM532.1,506.589l7.086,157.977L623,568.713Z" transform="translate(372.394 276.022)" fill="#dbdbdb"/>
            <path id="Path_21699" data-name="Path 21699" d="M599.081,666.273h-.191L445.519,596.634a.418.418,0,0,1-.267-.346.351.351,0,0,1,0-.381l146.171-90.554a.415.415,0,0,1,.343,0,.469.469,0,0,1,.419.416l7.391,160.123a.375.375,0,0,1-.229.381A.332.332,0,0,1,599.081,666.273ZM446.7,596.253,598.624,665.13,591.462,506.6Z" transform="translate(312.081 276.011)" fill="#dbdbdb"/>
            <path id="Path_21700" data-name="Path 21700" d="M585.717,607.952a.332.332,0,0,1-.267,0,.351.351,0,0,1,0-.381l10.362-172.8a.36.36,0,0,1,.108-.292.44.44,0,0,1,.311-.123h0a.5.5,0,0,1,.381,0L733.755,559.3a.352.352,0,0,1,0,.381.4.4,0,0,1-.3.312L585.717,607.918Zm10.819-172.278L586.25,606.913,732.5,559.437Z" transform="translate(410.359 237.233)" fill="#dbdbdb"/>
            <path id="Path_21701" data-name="Path 21701" d="M623.761,607.954a.332.332,0,0,1-.267,0l-92.152-62.99a.481.481,0,0,1-.191-.277.539.539,0,0,1,0-.346L633.7,434.567a.458.458,0,0,1,.381-.242h0a.432.432,0,0,1,.457.208.382.382,0,0,1,0,.346L624.256,607.711a.461.461,0,0,1-.3.346Zm-91.429-63.475,91.009,62.332,10.248-170.72Z" transform="translate(372.315 237.231)" fill="#dbdbdb"/>
            <path id="Path_21702" data-name="Path 21702" d="M702.37,571.433h0a.455.455,0,0,1-.419-.277L629.76,414.15a.539.539,0,0,1,0-.346h0a.415.415,0,0,1,.343-.242.454.454,0,0,1,.457,0L736.122,522.122a.386.386,0,0,1,0,.519l-33.372,48.48a.519.519,0,0,1-.381.312ZM631.7,416.193l70.743,153.856,32.724-47.441Z" transform="translate(441.44 225.86)" fill="#dbdbdb"/>
            <path id="Path_21703" data-name="Path 21703" d="M729.2,571.381a.5.5,0,0,1-.343,0L591.52,446.475a.352.352,0,0,1,0-.381.382.382,0,0,1,.229-.312l65.143-32.1a.452.452,0,0,1,.533,0v.208l72.19,156.972a.429.429,0,0,1-.19.519ZM592.663,446.129,727.824,569.1,656.739,414.721Z" transform="translate(414.614 225.912)" fill="#dbdbdb"/>
            <path id="Path_21704" data-name="Path 21704" d="M692.224,553.359a.543.543,0,0,1-.381,0,.386.386,0,0,1,0-.485L806.814,358.191v-.208a.451.451,0,0,1,.533,0,.393.393,0,0,1,.229.242h0l62.552,131.9a.536.536,0,0,1,0,.346.41.41,0,0,1-.267.208L692.224,553.5ZM807.2,359.161,693.252,552.112l175.962-62.332Z" transform="translate(484.919 195.489)" fill="#dbdbdb"/>
            <path id="Path_21705" data-name="Path 21705" d="M735.731,553.428a.541.541,0,0,1-.381,0L629.826,444.693a.391.391,0,0,1-.121-.4.435.435,0,0,1,.311-.3l220.61-86.191a.583.583,0,0,1,.419,0,.394.394,0,0,1,.229.242.534.534,0,0,1,0,.346L736.226,553.185a.505.505,0,0,1-.381.208ZM630.969,444.589,735.731,552.25l114.1-193.159Z" transform="translate(441.412 195.42)" fill="#dbdbdb"/>
            <path id="Path_21706" data-name="Path 21706" d="M796.678,512.25h-.267a.431.431,0,0,1-.19-.45l47.162-193.332a.3.3,0,0,1,.229-.277.415.415,0,0,1,.343,0h0a.41.41,0,0,1,.267.208L922.43,444.2a.429.429,0,0,1-.19.589L796.907,512.285a.333.333,0,0,1-.229-.035ZM844.03,319.68,797.4,510.935l124-66.764Z" transform="translate(558.141 173.78)" fill="#dbdbdb"/>
            <path id="Path_21707" data-name="Path 21707" d="M822.5,512.25a.462.462,0,0,1-.419-.243l-62.591-131.97a.388.388,0,0,1,0-.554l109.638-61.293h0a.415.415,0,0,1,.343,0h0a.433.433,0,0,1,.343.346.349.349,0,0,1,0,.277L823,511.87a.48.48,0,0,1-.419.346ZM760.519,380.038l61.866,130.377L868.939,319.4Z" transform="translate(532.319 173.78)" fill="#dbdbdb"/>
            <path id="Path_21708" data-name="Path 21708" d="M870.383,466.823h-.267a.367.367,0,0,1-.19-.416l19.467-188.242a.462.462,0,0,1,.349-.388.526.526,0,0,1,.527.146l96.572,139.208a.476.476,0,0,1,0,.381.646.646,0,0,1-.267.277l-116,49Zm19.848-187.411L870.955,465.681,985.774,417.2Z" transform="translate(609.807 151.716)" fill="#dbdbdb"/>
            <path id="Path_21709" data-name="Path 21709" d="M902.642,466.8a.509.509,0,0,1-.419-.208l-78.21-125.841a.388.388,0,0,1,0-.554l97.714-62.332a.5.5,0,0,1,.5,0,.374.374,0,0,1,.229.381h0L902.985,466.524a.506.506,0,0,1-.381.381ZM825.08,340.648,902.3,464.966l19.276-185.991Z" transform="translate(577.549 151.739)" fill="#dbdbdb"/>
            <path id="Path_21710" data-name="Path 21710" d="M953.1,426.546h0a.482.482,0,0,1-.381-.312l-35.314-164a.405.405,0,0,1,0-.208.421.421,0,0,1,.533-.346l154.59,21.5a.527.527,0,0,1,.381.277.352.352,0,0,1,0,.416L953.673,426.269A.547.547,0,0,1,953.1,426.546ZM918.359,262.717l35.086,162.27,118.1-141.008Z" transform="translate(643.089 142.924)" fill="#dbdbdb"/>
            <path id="Path_21711" data-name="Path 21711" d="M978.374,426.5a.43.43,0,0,1-.419-.208L881.383,287.089a.445.445,0,0,1,0-.381.365.365,0,0,1,.267-.242l61.257-24.69a.331.331,0,0,1,.3,0,.468.468,0,0,1,.343.346l35.314,163.9a.412.412,0,0,1-.3.485Zm-95.886-139.45,94.934,136.818L942.679,262.78Z" transform="translate(617.817 142.966)" fill="#dbdbdb"/>
            <path id="Path_21712" data-name="Path 21712" d="M1013.051,313.041a.48.48,0,0,1-.458-.381l-10.514-103.4a.479.479,0,0,1,.267-.416h0a.412.412,0,0,1,.457,0l156.876,99.281a.353.353,0,0,1,0,.45.411.411,0,0,1-.419.312L1012.9,313.007Zm-9.9-102.951,10.362,102.086,144.457-4.086Z" transform="translate(702.454 114.036)" fill="#dbdbdb"/>
            <path id="Path_21713" data-name="Path 21713" d="M1072.413,313.021h0L917.823,291.481a.449.449,0,0,1-.419-.312.467.467,0,0,1,.229-.485l144.038-81.828h0a.481.481,0,0,1,.61.173.349.349,0,0,1,0,.277l10.476,103.263a.476.476,0,0,1,0,.381.494.494,0,0,1-.343.069Zm-153.219-22.2,152.724,21.262-10.4-102.12Z" transform="translate(643.091 114.056)" fill="#dbdbdb"/>
            <path id="Path_21714" data-name="Path 21714" d="M1094.718,329.224h-.267a.448.448,0,0,1,0-.519L1159.023,171.7h0a.535.535,0,0,1,.61,0,.434.434,0,0,1,.229.519L1138.032,300.1a.317.317,0,0,1,0,.277L1095.289,329.5Zm63.429-153.336-62.438,151.674L1137,299.443Z" transform="translate(767.149 93.732)" fill="#dbdbdb"/>
            <path id="Path_21715" data-name="Path 21715" d="M1159.4,329.313h-.267L1002.3,229.963a.367.367,0,0,1-.19-.416.433.433,0,0,1,.343-.346l221.409-57.761h.381a.433.433,0,0,1,.229.554l-64.762,157.042A.4.4,0,0,1,1159.4,329.313ZM1003.668,229.79l155.5,98.415,64.076-155.83Z" transform="translate(702.465 93.643)" fill="#dbdbdb"/>
            <path id="Path_21716" data-name="Path 21716" d="M1119.972,335.235a.542.542,0,0,1-.343,0,.355.355,0,0,1,0-.485l123.619-227.165a.463.463,0,0,1,.419-.242h0a.448.448,0,0,1,.457.346l35.047,159.985a.409.409,0,0,1-.267.45L1119.972,335.2Zm123.619-226.091L1121,333.885l157.181-66.314Z" transform="translate(784.789 58.633)" fill="#dbdbdb"/>
            <path id="Path_21717" data-name="Path 21717" d="M1119.935,335.162h0a.451.451,0,0,1-.343-.485l21.867-127.919a.285.285,0,0,1,0-.242l101.752-99a.668.668,0,0,1,.419,0h0a.5.5,0,0,1,.407.248.416.416,0,0,1-.027.445L1120.24,335.092a.576.576,0,0,1-.3.069Zm22.286-128.127L1120.887,332.08l120.99-221.624Z" transform="translate(784.827 58.706)" fill="#dbdbdb"/>
            <path id="Path_21718" data-name="Path 21718" d="M1213.278,287.159a.459.459,0,0,1-.305,0,.417.417,0,0,1,0-.519L1314.688,73.014a.472.472,0,0,1,.572-.242.458.458,0,0,1,.343.416l24.077,135.329a.352.352,0,0,1,0,.416l-125.714,78.226a.444.444,0,0,1-.686,0ZM1314.764,74.538,1214.536,285.5l124.19-77.222Z" transform="translate(850.226 39.737)" fill="#dbdbdb"/>
            <path id="Path_21719" data-name="Path 21719" d="M1227.719,287.177h0a.519.519,0,0,1-.419-.346l-35.01-159.985a.44.44,0,0,1,.267-.485L1329.2,72.755a.583.583,0,0,1,.419,0,.45.45,0,0,1,.271.2.382.382,0,0,1,.034.317h0L1228.138,286.9a.455.455,0,0,1-.419.277ZM1193.2,127.019l34.667,158.254L1328.481,74.037Z" transform="translate(835.786 39.719)" fill="#dbdbdb"/>
            <path id="Path_21720" data-name="Path 21720" d="M1287.961,226.188h0a.493.493,0,0,1-.343-.416L1285.79,41.443h0a.493.493,0,0,1,.533-.346.518.518,0,0,1,.419.346l53.333,129.027a.354.354,0,0,1,0,.416l-51.619,55.406a.4.4,0,0,1-.5-.1Zm-1.333-182.355,1.791,180.762,50.59-54.194Z" transform="translate(901.334 22.447)" fill="#dbdbdb"/>
            <path id="Path_21721" data-name="Path 21721" d="M1297.2,226.249a.448.448,0,0,1-.457-.346L1272.627,90.539a.48.48,0,0,1,0-.242l22.248-49a.457.457,0,0,1,.5-.312.5.5,0,0,1,.419.45l1.829,184.4a.433.433,0,0,1-.419.416ZM1273.58,90.5l23.086,129.512-1.753-176.607Z" transform="translate(892.096 22.385)" fill="#dbdbdb"/>
            <path id="Path_21722" data-name="Path 21722" d="M147.568,951.926a.671.671,0,0,1-.343,0,.449.449,0,0,1,0-.554L284.368,762.645h0a.531.531,0,0,1,.686,0,.448.448,0,0,1,0,.519L267.834,870.756a.344.344,0,0,1-.19.277l-120,81.066ZM283.987,764.619,149.472,949.675,267.111,870.2Z" transform="translate(103.137 416.5)" fill="#dbdbdb"/>
            <path id="Path_21723" data-name="Path 21723" d="M147.528,951.961h0a.423.423,0,0,1-.343-.415l1.752-80.789a.413.413,0,0,1,0-.346L284.4,762.542a.577.577,0,0,1,.61,0,.42.42,0,0,1,0,.589L147.871,951.858A.446.446,0,0,1,147.528,951.961ZM149.7,870.93l-1.676,79.127L282.385,765.243Z" transform="translate(103.176 416.465)" fill="#dbdbdb"/>
            <path id="Path_21724" data-name="Path 21724" d="M218.136,895.282a.667.667,0,0,1-.419-.208.51.51,0,0,1,0-.519L372.193,717.948a.5.5,0,0,1,.533,0,.418.418,0,0,1,.3.416h0l29.524,144.818a.383.383,0,0,1-.048.327.458.458,0,0,1-.3.192L218.174,895.456ZM372.345,719.2,219.317,894.209,401.6,862.766Z" transform="translate(152.569 392.112)" fill="#dbdbdb"/>
            <path id="Path_21725" data-name="Path 21725" d="M218.047,895.3h0a.44.44,0,0,1-.267-.485l17.181-107.661a.459.459,0,0,1,.267-.312L372.371,717.9a.454.454,0,0,1,.457,0,.417.417,0,0,1,.3.415h0a.444.444,0,0,1,0,.312L218.695,895.232A.574.574,0,0,1,218.047,895.3Zm17.638-107.834-16.914,105.86L370.657,719.491Z" transform="translate(152.658 392.093)" fill="#dbdbdb"/>
            <path id="Path_21726" data-name="Path 21726" d="M326.3,890.658h-.229a.469.469,0,0,1-.229-.45l37.676-221.624a.443.443,0,0,1,.457-.381.516.516,0,0,1,.457.381h0l55.619,142.636a.353.353,0,0,1,0,.45l-93.41,78.884Zm37.867-220.239L326.981,889.1l92.229-77.845Z" transform="translate(228.409 364.982)" fill="#dbdbdb"/>
            <path id="Path_21727" data-name="Path 21727" d="M338.478,890.67a.447.447,0,0,1-.457-.346L308.5,745.4a.381.381,0,0,1,0-.346l67.162-76.633a.462.462,0,0,1,.419-.242.517.517,0,0,1,.457.381h0L338.9,890.185a.489.489,0,0,1-.5.346Zm-28.99-145.233,28.99,142.22,36.952-217.469Z" transform="translate(216.226 364.97)" fill="#dbdbdb"/>
            <path id="Path_21728" data-name="Path 21728" d="M381.15,845.608a.539.539,0,0,1-.343,0,.353.353,0,0,1,0-.45L467.36,606.634a.5.5,0,0,1,.5-.312h0a.449.449,0,0,1,.419.312l60.381,198.007a.383.383,0,0,1-.048.327.458.458,0,0,1-.3.192L381.265,845.746Zm86.514-237.519L381.874,844.5l145.714-40.2Z" transform="translate(266.888 331.182)" fill="#dbdbdb"/>
            <path id="Path_21729" data-name="Path 21729" d="M404.114,845.62a.492.492,0,0,1-.457-.312L348,702.569a.366.366,0,0,1,.19-.485l142.1-95.748a.626.626,0,0,1,.419,0h0a.449.449,0,0,1,.419.312.632.632,0,0,1,0,.381L404.572,845.447a.448.448,0,0,1-.419.312ZM349.029,702.6l55.048,141.251,85.638-236.03Z" transform="translate(243.924 331.17)" fill="#dbdbdb"/>
            <path id="Path_21730" data-name="Path 21730" d="M467.6,803.648a.541.541,0,0,1-.3,0,.388.388,0,0,1,0-.554L583.33,609.172a.418.418,0,0,1,.19-.242.494.494,0,0,1,.572,0v.208l29.676,59.8a.447.447,0,0,1,0,.485L467.94,803.509a.72.72,0,0,1-.343.139ZM583.635,610.281,469.616,800.739l143.2-131.589Z" transform="translate(327.489 332.557)" fill="#dbdbdb"/>
            <path id="Path_21731" data-name="Path 21731" d="M492.529,805.071h0a.475.475,0,0,1-.381-.346l-60.5-197.938a.445.445,0,0,1,0-.381.633.633,0,0,1,.381-.173L608.6,610.284h.3a.388.388,0,0,1,0,.554L492.834,804.76a.5.5,0,0,1-.3.312ZM432.681,607.306l60,196.345,115.238-192.5Z" transform="translate(302.557 331.134)" fill="#dbdbdb"/>
            <path id="Path_21732" data-name="Path 21732" d="M553.357,703.845a.5.5,0,0,1-.381,0,.351.351,0,0,1,0-.381l55.2-156.938a.4.4,0,0,1,.267-.277.492.492,0,0,1,.61,0h0l82.59,152.367a.414.414,0,0,1,0,.415.549.549,0,0,1-.419.208ZM608.672,547.6,554,702.945l136.381-4.571Z" transform="translate(387.595 298.312)" fill="#dbdbdb"/>
            <path id="Path_21733" data-name="Path 21733" d="M565.657,703.893a.545.545,0,0,1-.457-.242l-29.752-60.012a.384.384,0,0,1,0-.45l84.914-96.961a.637.637,0,0,1,.419-.173.5.5,0,0,1,.381.242.382.382,0,0,1,0,.346L566.038,703.582a.491.491,0,0,1-.457.311Zm-29.219-60.254,29.219,58.627,54.057-153.648Z" transform="translate(375.296 298.264)" fill="#dbdbdb"/>
            <path id="Path_21734" data-name="Path 21734" d="M634.335,716.159h-.229a.434.434,0,0,1-.228-.519l65.143-200.224a.453.453,0,0,1,.457-.312h0a.453.453,0,0,1,.457.312h0l13.714,91.87a.318.318,0,0,1,0,.312L634.716,715.951a.426.426,0,0,1-.381.208Zm64.952-198.6L635.668,713.077,712.7,607.217Z" transform="translate(444.332 281.358)" fill="#dbdbdb"/>
            <path id="Path_21735" data-name="Path 21735" d="M668.434,716.169a.476.476,0,0,1-.571-.208l-82.59-152.367a.288.288,0,0,1,0-.346.44.44,0,0,1,.267-.242L733.31,515.114a.333.333,0,0,1,.267,0h0a.453.453,0,0,1,.457.312h0a.318.318,0,0,1,0,.312L668.891,715.961a.524.524,0,0,1-.419.312ZM586.529,563.8,668.319,714.68l64.533-198.319Z" transform="translate(410.233 281.348)" fill="#dbdbdb"/>
            <path id="Path_21736" data-name="Path 21736" d="M757.717,629.167h0l-77.067-4.4a.627.627,0,0,1-.343,0,.539.539,0,0,1,0-.346L700,484.176a.5.5,0,0,1,.381-.381h0a.534.534,0,0,1,.5.312l57.409,144.645a.414.414,0,0,1,0,.416.492.492,0,0,1-.571,0Zm-76.5-5.16,75.848,4.329-56.5-142.359Z" transform="translate(476.873 264.256)" fill="#dbdbdb"/>
            <path id="Path_21737" data-name="Path 21737" d="M686.349,624.863a.484.484,0,0,1-.5-.381l-13.676-91.8a.349.349,0,0,1,0-.277l33.372-48.48a.476.476,0,0,1,.419-.173h0a.552.552,0,0,1,.457.208.351.351,0,0,1,0,.381l-19.5,140.143a.367.367,0,0,1-.136.282.446.446,0,0,1-.321.1ZM673.13,532.716l13.181,88.407,19.048-135.052Z" transform="translate(471.174 264.231)" fill="#dbdbdb"/>
            <path id="Path_21738" data-name="Path 21738" d="M725.969,651.389a.458.458,0,0,1-.3,0,.449.449,0,0,1,0-.554l120.229-207.5a.56.56,0,0,1,.609-.208.452.452,0,0,1,.3.416L864.75,549.719a.435.435,0,0,1-.191.381L726.274,651.389A.456.456,0,0,1,725.969,651.389Zm120-206.561L727.455,649.138l136.19-99.8Z" transform="translate(508.621 242.034)" fill="#dbdbdb"/>
            <path id="Path_21739" data-name="Path 21739" d="M749.643,651.384h0a.455.455,0,0,1-.419-.277l-57.41-144.575a.483.483,0,0,1,.381-.589l177.524-62.782a.665.665,0,0,1,.457,0,.444.444,0,0,1,.3.519h0v.173L750.062,651.384a.5.5,0,0,1-.419,0ZM692.881,506.531,749.719,649.86,868.881,444.3Z" transform="translate(484.948 242.039)" fill="#dbdbdb"/>
            <path id="Path_21740" data-name="Path 21740" d="M807.2,574.006h-.3a.48.48,0,0,1,0-.554l107.429-173.7a.558.558,0,0,1,.571-.208h0a.381.381,0,0,1,.3.45L897.139,506.1a.379.379,0,0,1,0,.277l-89.372,67.6A.45.45,0,0,1,807.2,574.006Zm106.667-171.9L808.986,571.79l87.238-65.968Z" transform="translate(565.566 218.231)" fill="#dbdbdb"/>
            <path id="Path_21741" data-name="Path 21741" d="M814.618,574.033h0a.469.469,0,0,1-.381-.381L796.218,467.446a.469.469,0,0,1,.229-.45L921.7,399.539a.581.581,0,0,1,.5,0h0a.433.433,0,0,1,.343.346.381.381,0,0,1,0,.346L815.189,573.86a.409.409,0,0,1-.245.2A.457.457,0,0,1,814.618,574.033ZM797.208,467.619,814.885,572.3,920.751,401.1Z" transform="translate(558.144 218.204)" fill="#dbdbdb"/>
            <path id="Path_21742" data-name="Path 21742" d="M859.777,523.8a.548.548,0,0,1-.419-.208.447.447,0,0,1,0-.485L993.491,367.9a.509.509,0,0,1,.343-.173.458.458,0,0,1,.343,0h0l65.753,116.63a.351.351,0,0,1,0,.381.372.372,0,0,1-.3.242L859.739,523.559ZM993.834,368.976,861,522.693l198.1-38.092Z" transform="translate(602.357 200.841)" fill="#dbdbdb"/>
            <path id="Path_21743" data-name="Path 21743" d="M859.766,523.752h-.191a.44.44,0,0,1-.267-.485L877.366,417.2a.384.384,0,0,1,.267-.346l115.924-49.034h.3a.458.458,0,0,1,.343,0h0a.445.445,0,0,1,0,.381.378.378,0,0,1-.19.277l-134.019,155.1A.525.525,0,0,1,859.766,523.752Zm18.476-106.241L860.49,521.744,992.224,369.377Z" transform="translate(602.367 200.89)" fill="#dbdbdb"/>
            <path id="Path_21744" data-name="Path 21744" d="M977.2,535.486h0a.409.409,0,0,1-.267-.45l53.333-258.954a.609.609,0,0,1,0-.242.528.528,0,0,1,.762,0h0l55.581,129.408a.353.353,0,0,1,0,.415L977.769,535.313a.366.366,0,0,1-.239.214.414.414,0,0,1-.333-.041Zm53.676-257.846-52.838,255.7L1085.5,405.213Z" transform="translate(684.821 150.579)" fill="#dbdbdb"/>
            <path id="Path_21745" data-name="Path 21745" d="M1004.393,535.5a.509.509,0,0,1-.419-.208l-65.752-116.63a.323.323,0,0,1,0-.45L1057.46,275.817a.528.528,0,0,1,.762,0,.289.289,0,0,1,0,.346l-53.371,258.92a.474.474,0,0,1-.381.346ZM939.174,418.523,1004.2,533.767l52.876-255.976Z" transform="translate(657.626 150.567)" fill="#dbdbdb"/>
            <path id="Path_21746" data-name="Path 21746" d="M1160.907,422.246h0l-119.657-14.89a.458.458,0,0,1-.381-.242.414.414,0,0,1,0-.416l90.972-133.355.19-.242a.5.5,0,0,1,.534,0,.472.472,0,0,1,.19.346l28.647,148.28a.442.442,0,0,1,0,.346A.4.4,0,0,1,1160.907,422.246ZM1042.05,406.594l118.286,14.717-28.3-146.618Z" transform="translate(729.607 149.129)" fill="#dbdbdb"/>
            <path id="Path_21747" data-name="Path 21747" d="M1064.062,407.317h0a.413.413,0,0,1-.381-.277L1008.328,277.7a.353.353,0,0,1,0-.381.427.427,0,0,1,.381-.208l146.362-4.121a.457.457,0,0,1,.3,0,.419.419,0,0,1,0,.589l-90.743,133.529a.4.4,0,0,1-.236.217A.458.458,0,0,1,1064.062,407.317Zm-54.629-129.373,54.743,128.126,90.057-132.04Z" transform="translate(706.795 149.098)" fill="#dbdbdb"/>
            <path id="Path_21748" data-name="Path 21748" d="M1111.6,432.476a.291.291,0,0,1-.229,0,.441.441,0,0,1-.229-.381l14.1-177.473v-.277h0a.455.455,0,0,1,.419,0,.415.415,0,0,1,.343.242L1189.738,390.4a.449.449,0,0,1,0,.554l-77.829,41.555a.331.331,0,0,1-.305-.035Zm14.438-176.087-13.867,174.875,76.648-41.035Z" transform="translate(778.91 138.899)" fill="#dbdbdb"/>
            <path id="Path_21749" data-name="Path 21749" d="M1123.415,432.611a.447.447,0,0,1-.457-.346L1094.31,283.707a.367.367,0,0,1,.191-.415l42.743-29.123a.49.49,0,0,1,.648,0,.32.32,0,0,1,0,.346l-14.1,177.438a.48.48,0,0,1-.457.381ZM1095.3,284.019l27.924,144.645,13.752-173.144Z" transform="translate(767.099 138.764)" fill="#dbdbdb"/>
            <path id="Path_21750" data-name="Path 21750" d="M1157.33,414.48h-.3a.448.448,0,0,1,0-.519l95.238-202.752h0a.581.581,0,0,1,.457,0,.6.6,0,0,1,.381.277l40.8,118.292a.478.478,0,0,1,0,.485L1157.94,414.757a.357.357,0,0,1-.457.138.3.3,0,0,1-.152-.416Zm95.238-201.955L1158.511,412.68,1292.8,329.19Z" transform="translate(811.013 115.34)" fill="#dbdbdb"/>
            <path id="Path_21751" data-name="Path 21751" d="M1183.621,414.606a.462.462,0,0,1-.419-.242l-63.734-135.814a.433.433,0,0,1,.229-.554l158.857-66.972a.493.493,0,0,1,.571,0,.386.386,0,0,1,0,.519L1183.888,414.26A.489.489,0,0,1,1183.621,414.606Zm-63.086-136.022,63.086,134.5,94.209-200.847Z" transform="translate(784.722 115.214)" fill="#dbdbdb"/>
            <path id="Path_21752" data-name="Path 21752" d="M1237.248,357.584h-.267a.418.418,0,0,1,0-.519l84.99-196.449a.285.285,0,0,1,0-.208.577.577,0,0,1,.609,0h0l81.981,65.795a.474.474,0,0,1,0,.312.4.4,0,0,1-.19.346l-167.01,130.516a.37.37,0,0,1-.114.208Zm85.181-196.207-84.038,194.3L1403.42,226.618Z" transform="translate(867.056 87.569)" fill="#dbdbdb"/>
            <path id="Path_21753" data-name="Path 21753" d="M1254.117,357.631h0a.487.487,0,0,1-.419-.312L1212.86,239.062a.366.366,0,0,1,.19-.485l125.714-78.226a.407.407,0,0,1,.571,0,.386.386,0,0,1,0,.519l-85.028,196.518a.386.386,0,0,1-.191.242ZM1213.85,239.1l40.3,116.8,83.81-193.921Z" transform="translate(850.188 87.522)" fill="#dbdbdb"/>
            <path id="Path_21754" data-name="Path 21754" d="M1348.065,246.628a.447.447,0,0,1-.457-.346l-30.476-121.2a.415.415,0,0,1,0-.485.577.577,0,0,1,.609,0L1460.293,243.65a.449.449,0,0,1,0,.485.459.459,0,0,1-.457.277l-111.886,2.147Zm-29.6-120.439,29.981,119.573,110.476-2.112Z" transform="translate(923.25 68.009)" fill="#dbdbdb"/>
            <path id="Path_21755" data-name="Path 21755" d="M1369.266,246.64a.458.458,0,0,1-.3,0l-82.019-66.106a.39.39,0,0,1,0-.589l51.619-55.406a.455.455,0,0,1,.419,0,.376.376,0,0,1,.343.242h0l30.476,121.2a.366.366,0,0,1-.19.45Zm-81.371-66.453,80.534,64.79L1338.6,125.924Z" transform="translate(902.048 67.997)" fill="#dbdbdb"/>
            <path id="Path_21756" data-name="Path 21756" d="M210.923,998.916h-.267a.414.414,0,0,1,0-.416l12.152-165.872a.192.192,0,0,1,0-.208.431.431,0,0,1,.3-.312.667.667,0,0,1,.457,0h0L327.38,944.514a.35.35,0,0,1,0,.346.518.518,0,0,1-.228.312l-116,53.675ZM223.494,833.7l-12.038,164.14,114.781-53.328Z" transform="translate(147.63 454.489)" fill="#dbdbdb"/>
            <path id="Path_21757" data-name="Path 21757" d="M255.375,998.916a.374.374,0,0,1-.3,0L147.222,913.833a.444.444,0,0,1,0-.346.6.6,0,0,1,0-.346L267.26,832.109h0a.667.667,0,0,1,.457,0,.507.507,0,0,1,0,.381L255.565,998.5a.526.526,0,0,1-.3.381ZM148.251,913.521l106.667,84.044,12.038-164.21Z" transform="translate(103.178 454.489)" fill="#dbdbdb"/>
            <path id="Path_21758" data-name="Path 21758" d="M279.206,956.323a.415.415,0,0,1-.343,0,.385.385,0,0,1,0-.485l80-143.917a.656.656,0,0,1,0-.208.49.49,0,0,1,.648,0h0l71.162,96.718a.351.351,0,0,1,0,.381.438.438,0,0,1-.267.243L279.13,956.323Zm80-143.536-79.2,142.359L429.568,908.4Z" transform="translate(195.422 443.304)" fill="#dbdbdb"/>
            <path id="Path_21759" data-name="Path 21759" d="M322.033,956.378a.542.542,0,0,1-.381,0l-103.924-112.4a.508.508,0,0,1,0-.416.526.526,0,0,1,.381-.277l184-31.755a.627.627,0,0,1,.419,0,.355.355,0,0,1,0,.485L322.528,956a.42.42,0,0,1-.381.242ZM219.176,844.008,322.033,955.166l79.352-142.6Z" transform="translate(152.596 443.248)" fill="#dbdbdb"/>
            <path id="Path_21760" data-name="Path 21760" d="M368.105,936.957h0a.485.485,0,0,1-.343-.485L389.9,760.9v-.173h0a.434.434,0,0,1,.5-.208.445.445,0,0,1,.381.312l24.533,95.125a.255.255,0,0,1,0,.277l-46.667,80.477A.511.511,0,0,1,368.105,936.957Zm22.286-173.525L368.867,934.29l45.41-78.3Z" transform="translate(257.799 415.401)" fill="#dbdbdb"/>
            <path id="Path_21761" data-name="Path 21761" d="M397.517,936.952a.667.667,0,0,1-.419,0l-71.162-96.718a.358.358,0,0,1,0-.554l93.3-79.058a.492.492,0,0,1,.61,0,.353.353,0,0,1,0,.45l-22.133,175.5a.463.463,0,0,1-.343.381Zm-70.59-96.961,70.248,95.4L419,762.25Z" transform="translate(228.388 415.406)" fill="#dbdbdb"/>
            <path id="Path_21762" data-name="Path 21762" d="M395.607,870.824a.55.55,0,0,1-.419-.208.385.385,0,0,1,0-.485L517.626,734.525a.316.316,0,0,1,0-.173.492.492,0,0,1,.61,0v.208l46.7,116.214a.477.477,0,0,1,0,.381s0,.173-.343.208L395.759,870.824Zm122.362-135.26L396.749,869.82l167.086-19.254Z" transform="translate(276.965 401.057)" fill="#dbdbdb"/>
            <path id="Path_21763" data-name="Path 21763" d="M405.684,870.829h0a.512.512,0,0,1-.343-.312l-24.61-95.125a.482.482,0,0,1,.343-.519l147.047-40.585a.623.623,0,0,1,.5,0,.451.451,0,0,1,0,.589L406.1,870.587a.58.58,0,0,1-.419.242Zm-24-95.229,24.267,93.844L526.864,735.535Z" transform="translate(266.888 401.052)" fill="#dbdbdb"/>
            <path id="Path_21764" data-name="Path 21764" d="M494.882,898.686h-.267a.4.4,0,0,1-.19-.519L593.854,647.9a.509.509,0,0,1,.61-.277.4.4,0,0,1,.3.277L657.7,739.29a.386.386,0,0,1,0,.519L495.34,898.547A.609.609,0,0,1,494.882,898.686Zm99.5-249.708L496.1,896.366l160.61-157.007Z" transform="translate(346.565 353.733)" fill="#dbdbdb"/>
            <path id="Path_21765" data-name="Path 21765" d="M514,898.739a.53.53,0,0,1-.457-.312L467.182,782.144a.415.415,0,0,1,0-.45L612.9,647.715a.481.481,0,0,1,.571-.173.442.442,0,0,1,.3.554h0L514.458,898.428A.53.53,0,0,1,514,898.739ZM468.287,782.179,514,897.008l98.248-247.249Z" transform="translate(327.446 353.68)" fill="#dbdbdb"/>
            <path id="Path_21766" data-name="Path 21766" d="M590.344,741.5a.554.554,0,0,1-.381-.173.448.448,0,0,1,0-.52l74.629-96.06h0a.534.534,0,0,1,.648,0h0L718.8,698.665a.414.414,0,0,1,0,.416.4.4,0,0,1-.3.277l-128,42.109ZM665.2,645.648l-73.6,94.536L717.925,698.63Z" transform="translate(413.504 352.111)" fill="#dbdbdb"/>
            <path id="Path_21767" data-name="Path 21767" d="M616.3,741.548h0a.427.427,0,0,1-.381-.208l-63.009-91.454a.414.414,0,0,1,0-.416.458.458,0,0,1,.381-.242l137.752-4.64a.415.415,0,0,1,.343,0,.39.39,0,0,1,0,.589l-74.819,96.129a.439.439,0,0,1-.267.242Zm-62.133-91.489,62.171,90.277,73.829-94.848Z" transform="translate(387.548 352.064)" fill="#dbdbdb"/>
            <path id="Path_21768" data-name="Path 21768" d="M665.854,737.677h-.19a.449.449,0,0,1-.3-.45l25.257-162.305a.454.454,0,0,1,.308-.4.532.532,0,0,1,.531.092h0l64.762,67.665a.39.39,0,0,1,0,.589L666.2,737.538A.439.439,0,0,1,665.854,737.677Zm25.6-161.786-24.914,159.95,88.838-93.29Z" transform="translate(466.413 313.792)" fill="#dbdbdb"/>
            <path id="Path_21769" data-name="Path 21769" d="M687.929,737.729a.543.543,0,0,1-.381,0l-53.6-54.159a.448.448,0,0,1,0-.519l78.857-108.423a.819.819,0,0,1,.381-.208.585.585,0,0,1,.381,0,.352.352,0,0,1,0,.381L688.31,737.14a.5.5,0,0,1-.343.381Zm-52.99-54.437,52.648,53.017,24.838-159.535Z" transform="translate(444.337 313.74)" fill="#dbdbdb"/>
            <path id="Path_21770" data-name="Path 21770" d="M718.8,641.409a.5.5,0,0,1-.343,0,.351.351,0,0,1,0-.381l12.191-63.163h0a.344.344,0,0,1,.267-.415.455.455,0,0,1,.419,0l137.143,42.178a.414.414,0,0,1,.3.45.4.4,0,0,1-.381.381L719.069,641.548Zm12.571-63.128-12.114,62.09L866.04,619.593Z" transform="translate(503.598 315.384)" fill="#dbdbdb"/>
            <path id="Path_21771" data-name="Path 21771" d="M745.5,642.969a.543.543,0,0,1-.343,0L680.4,575.27a.386.386,0,0,1,0-.485.545.545,0,0,1,.457-.242l77.029,4.4a.458.458,0,0,1,.3,0,.352.352,0,0,1,0,.416L745.96,642.588a.4.4,0,0,1-.343.346Zm-63.771-67.63,63.467,66.21L757.16,579.6Z" transform="translate(476.897 313.824)" fill="#dbdbdb"/>
            <path id="Path_21772" data-name="Path 21772" d="M806.68,656.145h-.3a.421.421,0,0,1-.3-.381l1.067-143.5a.387.387,0,0,1,.3-.381h0a.412.412,0,0,1,.457,0l94.819,68.877a.409.409,0,0,1,.191.312.4.4,0,0,1-.191.346l-95.848,74.591a.413.413,0,0,1-.191.138Zm1.486-143.017-.99,141.666L901.8,581.139Z" transform="translate(565.053 279.56)" fill="#dbdbdb"/>
            <path id="Path_21773" data-name="Path 21773" d="M863.168,656.132h0L725.72,613.85a.429.429,0,0,1,0-.762l138.133-101.22a.207.207,0,0,1,.19,0h0a.481.481,0,0,1,.571.173.474.474,0,0,1,0,.312l-1.067,143.4a.4.4,0,0,1-.19.346A.331.331,0,0,1,863.168,656.132ZM727.016,613.365l135.848,41.763.991-141.978Z" transform="translate(508.565 279.573)" fill="#dbdbdb"/>
            <path id="Path_21774" data-name="Path 21774" d="M865.216,605.441h-.19a.415.415,0,0,1-.267-.381l-5.448-136.437a.376.376,0,0,1,.267-.45.493.493,0,0,1,.571,0l69.562,85.775a.42.42,0,0,1,0,.589l-64.114,50.7a.624.624,0,0,1-.381.208ZM860.492,469.9l5.371,134.186,63.01-49.831Z" transform="translate(602.365 255.673)" fill="#dbdbdb"/>
            <path id="Path_21775" data-name="Path 21775" d="M901.98,605.469a.461.461,0,0,1-.267,0l-94.819-68.877a221.026,221.026,0,0,0,0-.658L896.228,468.1a.5.5,0,0,1,.5,0,.385.385,0,0,1,.267.346h0l5.486,136.472a.479.479,0,0,1-.266.416Zm-94.057-69.258,93.562,67.976-5.41-134.671Z" transform="translate(565.601 255.645)" fill="#dbdbdb"/>
            <path id="Path_21776" data-name="Path 21776" d="M900.67,568.307a.473.473,0,0,1-.381-.173.418.418,0,0,1,0-.554l130.247-124.248a.893.893,0,0,1,.8-.242l63.047,53.467a.352.352,0,0,1,0,.381.432.432,0,0,1-.3.312L900.86,568.307Zm130.362-124.144-128.5,122.586,190.7-69.881Z" transform="translate(631.026 242.007)" fill="#dbdbdb"/>
            <path id="Path_21777" data-name="Path 21777" d="M929.316,568.285h0a.474.474,0,0,1-.381-.173l-69.562-85.776a.414.414,0,0,1,0-.415.52.52,0,0,1,.343-.277L1059.64,443.1h0a.571.571,0,0,1,.419.277.448.448,0,0,1,0,.485l-130.4,124.421a.415.415,0,0,1-.343,0Zm-68.571-85.914,68.8,84.806L1058.421,444.21Z" transform="translate(602.379 242.029)" fill="#dbdbdb"/>
            <path id="Path_21778" data-name="Path 21778" d="M1014.349,543.279a.459.459,0,0,1-.3,0,.352.352,0,0,1,0-.416l45.715-183.152a.372.372,0,0,1,.162-.274.452.452,0,0,1,.333-.072.448.448,0,0,1,.457.346h0l-1.371,165.664a.452.452,0,0,1-.3.416l-44.343,17.522Zm45.219-179.585L1014.92,542.1l43.238-17.072Z" transform="translate(710.794 196.288)" fill="#dbdbdb"/>
            <path id="Path_21779" data-name="Path 21779" d="M1040.39,543.314a.668.668,0,0,1-.343,0l-63.086-53.605a.39.39,0,0,1,0-.589l108.8-129.581a.544.544,0,0,1,.457-.243.448.448,0,0,1,.457.346h0a.416.416,0,0,1,0,.208l-45.714,183.117a.474.474,0,0,1-.343.312ZM977.914,489.4l62.172,52.74,45.067-180.485Z" transform="translate(684.753 196.253)" fill="#dbdbdb"/>
            <path id="Path_21780" data-name="Path 21780" d="M1040.449,520.485a.5.5,0,0,1-.343,0,.418.418,0,0,1,0-.554l120.99-150.67a.469.469,0,0,1,.5-.242.506.506,0,0,1,.419.416l6.4,65.795a.369.369,0,0,1-.191.381l-127.428,84.979A.527.527,0,0,1,1040.449,520.485Zm120.686-149.977L1042.658,518.061l124.762-83.109Z" transform="translate(729.037 201.56)" fill="#dbdbdb"/>
            <path id="Path_21781" data-name="Path 21781" d="M1040.39,525.751h0a.417.417,0,0,1-.3-.415l1.371-165.595a.569.569,0,0,1,0-.346.8.8,0,0,1,.381,0l119.657,14.89a.579.579,0,0,1,.343.208.288.288,0,0,1,0,.346v.173l-121.029,150.7A.5.5,0,0,1,1040.39,525.751Zm1.943-165.56-1.371,163.794,119.466-148.9Z" transform="translate(729.096 196.294)" fill="#dbdbdb"/>
            <path id="Path_21782" data-name="Path 21782" d="M1115.505,450.238a.393.393,0,0,1-.381-.173.385.385,0,0,1,0-.485l71.391-107.349h.381a.63.63,0,0,1,.343.173l69.028,74.383a.506.506,0,0,1,0,.415.445.445,0,0,1-.343.277Zm71.276-107.349L1116.3,448.853,1254.9,416.3Z" transform="translate(781.638 186.932)" fill="#dbdbdb"/>
            <path id="Path_21783" data-name="Path 21783" d="M1118.108,450.324h0a.505.505,0,0,1-.381-.381l-6.4-65.795a.438.438,0,0,1,.228-.416l77.829-41.555a.492.492,0,0,1,.609,0,.388.388,0,0,1,0,.554L1118.6,450.082a.428.428,0,0,1-.5.242Zm-5.9-65.795,5.9,63.89,69.676-104.787Z" transform="translate(779.035 186.845)" fill="#dbdbdb"/>
            <path id="Path_21784" data-name="Path 21784" d="M1197.9,447.092h-.267a.417.417,0,0,1,0-.519l66.933-158.912a.367.367,0,0,1,.267-.242.5.5,0,0,1,.381,0h0l68.114,43.736a.374.374,0,0,1,.19.312.414.414,0,0,1,0,.346L1198.242,446.954A.479.479,0,0,1,1197.9,447.092Zm67.124-158.669L1199.08,445.049l132.876-113.582Z" transform="translate(839.472 156.972)" fill="#dbdbdb"/>
            <path id="Path_21785" data-name="Path 21785" d="M1226.361,447.08a.43.43,0,0,1-.343-.173l-69.029-74.383a196.5,196.5,0,0,0,0-.623l135.848-84.46h.19a.5.5,0,0,1,.381,0h0a.419.419,0,0,1,.267.346.317.317,0,0,1,0,.312l-66.857,158.808a.526.526,0,0,1-.381.277Zm-68.3-74.764,68.152,73.482,66.057-156.9Z" transform="translate(811.01 156.984)" fill="#dbdbdb"/>
            <path id="Path_21786" data-name="Path 21786" d="M1277.249,377.891a.458.458,0,0,1-.343,0,.447.447,0,0,1,0-.485l99.048-174.217a.45.45,0,0,1,.571,0h0a.417.417,0,0,1,.228,0l73.524,124.664a.443.443,0,0,1,0,.381.671.671,0,0,1-.3.242L1277.439,377.96Zm99.047-173.7-98.057,172.555,170.9-49Z" transform="translate(895.056 110.929)" fill="#dbdbdb"/>
            <path id="Path_21787" data-name="Path 21787" d="M1305.319,377.924h-.266l-68-43.667a.72.72,0,0,1-.229-.346.448.448,0,0,1,0-.346l166.9-130.447a.493.493,0,0,1,.571,0h0a.432.432,0,0,1,.3.312.475.475,0,0,1,0,.381l-99.048,174.079a.371.371,0,0,1-.3.242Zm-67.238-44.117,67.086,43.044,97.6-171.724Z" transform="translate(866.985 110.896)" fill="#dbdbdb"/>
            <path id="Path_21788" data-name="Path 21788" d="M1378.664,329.262a.542.542,0,0,1-.3,0,.385.385,0,0,1,0-.45l38.362-126.88a.5.5,0,0,1,.3-.312.709.709,0,0,1,.458,0h0l55.542,77.4a.378.378,0,0,1,0,.346.394.394,0,0,1-.229.242l-93.943,49.485Zm38.552-126.291-37.79,124.941,92.495-48.723Z" transform="translate(966.174 110.108)" fill="#dbdbdb"/>
            <path id="Path_21789" data-name="Path 21789" d="M1409,329.287a.462.462,0,0,1-.419-.242l-73.524-124.664a.413.413,0,0,1,0-.416.548.548,0,0,1,.419-.208l111.771-2.182a.584.584,0,0,1,.419,0h0a.354.354,0,0,1,0,.45h0L1409.347,328.8a.481.481,0,0,1-.419.346ZM1336.28,204.624,1408.852,327.8l37.867-125.287Z" transform="translate(935.834 110.083)" fill="#dbdbdb"/>
            <path id="Path_21790" data-name="Path 21790" d="M367.035,958.62a.5.5,0,0,1-.343,0,.352.352,0,0,1,0-.416l48.5-135.814h0a.607.607,0,0,1,.3-.208.709.709,0,0,1,.381,0l130.172,95.783a.414.414,0,0,1,0,.415.438.438,0,0,1-.343.312L367,958.759Zm48.762-135.5L367.759,957.581l176.914-39.65Z" transform="translate(257.003 449.075)" fill="#dbdbdb"/>
            <path id="Path_21791" data-name="Path 21791" d="M367.024,958.6h0a.425.425,0,0,1-.381-.45l1.828-55.406L415.138,822.3h0a.533.533,0,0,1,.648,0,.449.449,0,0,1,0,.554L367.252,958.635A.458.458,0,0,1,367.024,958.6Zm2.324-55.648-1.6,52.22,45.714-128.127Z" transform="translate(257.014 449.094)" fill="#dbdbdb"/>
            <path id="Path_21792" data-name="Path 21792" d="M525.725,925.616a.459.459,0,0,1-.3,0L395.249,829.833a.384.384,0,0,1,0-.45.524.524,0,0,1,.419-.312l168.838-19.461a.557.557,0,0,1,.419.173.29.29,0,0,1,0,.381l-38.7,115.245a.475.475,0,0,1-.3.277Zm-128.99-95.922,128.724,94.744,38.324-114Z" transform="translate(277.017 442.221)" fill="#dbdbdb"/>
            <path id="Path_21793" data-name="Path 21793" d="M539.943,921.408h-.267a.4.4,0,0,1-.19-.519l85.638-213.868h0a.513.513,0,0,1,.457-.208.6.6,0,0,1,.381.277l41.6,105.895a.447.447,0,0,1,0,.45L540.286,921.442A.456.456,0,0,1,539.943,921.408Zm85.638-213.036L541.162,919.434,666.876,812.881Z" transform="translate(378.152 386.072)" fill="#dbdbdb"/>
            <path id="Path_21794" data-name="Path 21794" d="M571.593,921.412a.458.458,0,0,1-.3,0l-76.762-55.06a.442.442,0,0,1-.19-.312.349.349,0,0,1,0-.312l162.4-158.808a.534.534,0,0,1,.609-.042.429.429,0,0,1,.191.527L571.9,921.239a.6.6,0,0,1-.343.242ZM495.4,866.006l76.19,54.263L656.2,709.034Z" transform="translate(346.502 386.067)" fill="#dbdbdb"/>
            <path id="Path_21795" data-name="Path 21795" d="M631.939,828.358h0a.455.455,0,0,1-.419-.277l-41.6-105.86a.381.381,0,0,1,.016-.339.45.45,0,0,1,.289-.215l128.3-42.109a.5.5,0,0,1,.5,0,.429.429,0,0,1,.19.588h0l-86.781,148A.474.474,0,0,1,631.939,828.358ZM590.948,722.29l41.067,104.717,85.9-146.341Z" transform="translate(413.509 371.149)" fill="#dbdbdb"/>
            <path id="Path_21796" data-name="Path 21796" d="M693.909,821.486a.457.457,0,0,1-.3,0,.352.352,0,0,1,0-.416L735.928,618.7a.426.426,0,0,1,.36-.413.469.469,0,0,1,.516.24L840.386,768.885a.382.382,0,0,1,0,.346.4.4,0,0,1-.267.277l-145.9,51.943Zm42.552-201.678-41.9,200.57,144.762-51.6Z" transform="translate(486.167 337.713)" fill="#dbdbdb"/>
            <path id="Path_21797" data-name="Path 21797" d="M713.674,821.475a.5.5,0,0,1-.457-.277l-47.809-107.73a.415.415,0,0,1,0-.45l90.171-94.675a.5.5,0,0,1,.419,0,.451.451,0,0,1,.381.277.286.286,0,0,1,0,.242L714.055,821.268a.406.406,0,0,1-.419.346ZM666.4,713.4l47.124,106.137L755.2,620.144Z" transform="translate(466.402 337.723)" fill="#dbdbdb"/>
            <path id="Path_21798" data-name="Path 21798" d="M822.414,776.87a.426.426,0,0,1-.381-.208L718.414,626.3a.454.454,0,0,1,.343-.658l149.1-20.95a.375.375,0,0,1,.267,0h0a.392.392,0,0,1,.275.137.323.323,0,0,1,.068.278.472.472,0,0,1,0,.242L822.757,776.628a.474.474,0,0,1-.381.346ZM719.557,626.408l102.591,148.9,45.3-169.681Z" transform="translate(503.567 330.281)" fill="#dbdbdb"/>
            <path id="Path_21799" data-name="Path 21799" d="M838.7,785.695a.332.332,0,0,1-.267,0,.472.472,0,0,1-.229-.416l41.333-228.55a.464.464,0,0,1,.381-.416.535.535,0,0,1,.571.346h0l23.2,195.652a.446.446,0,0,1-.267.416l-64.5,32.863Zm41.219-225.641L839.314,784.448,902.7,752.312Z" transform="translate(587.581 303.866)" fill="#dbdbdb"/>
            <path id="Path_21800" data-name="Path 21800" d="M861.134,785.654a.459.459,0,0,1-.457-.277l-54.4-153.856a.477.477,0,0,1,0-.485l95.847-74.59a.454.454,0,0,1,.457,0,.438.438,0,0,1,.343.312h0l-41.333,228.55a.443.443,0,0,1-.419.346ZM807.115,631.522l53.867,151.916,40.8-225.537Z" transform="translate(565.151 303.906)" fill="#dbdbdb"/>
            <path id="Path_21801" data-name="Path 21801" d="M876.609,770.748h-.229a.4.4,0,0,1-.229-.45l41.1-246.349a.467.467,0,0,1,.338-.353.531.531,0,0,1,.5.11l162.552,122.9a.534.534,0,0,1,.19.381.518.518,0,0,1-.229.312L876.875,770.644a.359.359,0,0,1-.267.1Zm41.257-245.864L877.256,769.4l202.1-122.482Z" transform="translate(614.172 285.984)" fill="#dbdbdb"/>
            <path id="Path_21802" data-name="Path 21802" d="M886.182,770.752h0a.474.474,0,0,1-.457-.416l-23.2-195.583a.475.475,0,0,1,0-.381l64.3-50.627.3-.173a.469.469,0,0,1,.5.242h0a.538.538,0,0,1,0,.346L886.753,770.371A.529.529,0,0,1,886.182,770.752Zm-22.667-195.86,22.857,192.051,40.19-241.813Z" transform="translate(604.599 285.98)" fill="#dbdbdb"/>
            <path id="Path_21803" data-name="Path 21803" d="M1063.231,672.433a.541.541,0,0,1-.3,0L900.336,549.362a.351.351,0,0,1,0-.381.5.5,0,0,1,.3-.346l193.41-70.851a.58.58,0,0,1,.418,0,.352.352,0,0,1,.229.277v.173l-30.781,193.921a.567.567,0,0,1-.3.346ZM901.517,549.362l161.371,121.963,30.476-192.294Z" transform="translate(631.093 260.952)" fill="#dbdbdb"/>
            <path id="Path_21804" data-name="Path 21804" d="M1152.515,567.738h-.191a.354.354,0,0,1-.266-.312l-37.143-155.414a.408.408,0,0,1,0-.208h0a.565.565,0,0,1,.266-.312.583.583,0,0,1,.419,0l156.8,88.823a.4.4,0,0,1,0,.727l-119.7,66.626A.28.28,0,0,1,1152.515,567.738ZM1116.1,412.774l36.724,153.856L1271.3,500.662Z" transform="translate(781.542 224.742)" fill="#dbdbdb"/>
            <path id="Path_21805" data-name="Path 21805" d="M1205.029,567.738h-.229l-164.533-70.47a.418.418,0,0,1-.266-.346.366.366,0,0,1,.19-.416l127.429-84.979a.579.579,0,0,1,.571,0,.4.4,0,0,1,.191.346l37.1,155.345a.368.368,0,0,1-.19.416A.359.359,0,0,1,1205.029,567.738ZM1041.41,496.784l162.933,69.777-36.762-153.925Z" transform="translate(729.028 224.742)" fill="#dbdbdb"/>
            <path id="Path_21806" data-name="Path 21806" d="M1272.167,512.738h-.229l-156.8-88.823a.438.438,0,0,1-.229-.416.475.475,0,0,1,.381-.346l140.3-32.967h0a.517.517,0,0,1,.571.208h0a.25.25,0,0,1,0,.173l16.343,121.755a.472.472,0,0,1-.229.416Zm-155.581-89.065,155.2,87.784-16.19-120.4Z" transform="translate(781.547 213.116)" fill="#dbdbdb"/>
            <path id="Path_21807" data-name="Path 21807" d="M1219.268,497.556a.549.549,0,0,1-.419-.208.416.416,0,0,1,0-.416l98.667-181.108a.41.41,0,0,1,.267-.208h0a.456.456,0,0,1,.381,0,.394.394,0,0,1,.229.242l59.619,177.819a.369.369,0,0,1-.381.554l-158.172,3.463Zm98.552-180.381-97.79,179.516,156.762-3.463Z" transform="translate(854.37 172.372)" fill="#dbdbdb"/>
            <path id="Path_21808" data-name="Path 21808" d="M1234.237,497.455a.461.461,0,0,1-.419-.242l-36.267-65.795a.355.355,0,0,1,0-.519l134.971-115.106h.229a.481.481,0,0,1,.572.173.448.448,0,0,1,0,.519l-98.628,181a.462.462,0,0,1-.419.242Zm-35.543-66.21,35.7,64.791,97.067-178.131Z" transform="translate(839.401 172.473)" fill="#dbdbdb"/>
            <path id="Path_21809" data-name="Path 21809" d="M1336.762,511.7h0a.524.524,0,0,1-.419-.312l-59.5-177.784a.381.381,0,0,1,.048-.327.456.456,0,0,1,.3-.192L1449.677,283.6h.229a.384.384,0,0,1,.343.208.352.352,0,0,1,0,.381L1337.334,511.421a.426.426,0,0,1-.223.246.5.5,0,0,1-.349.031Zm-58.9-177.923,58.972,176.191L1448.953,284.88Z" transform="translate(895.047 154.906)" fill="#dbdbdb"/>
            <path id="Path_21810" data-name="Path 21810" d="M-7.476,712.188c-4.208,0-7.619,3.1-7.619,6.926s3.411,6.926,7.619,6.926,7.619-3.1,7.619-6.926S-3.268,712.188-7.476,712.188Z" transform="translate(-10.581 389.008)" fill="#dbdbdb"/>
            <path id="Path_21811" data-name="Path 21811" d="M-49.77,678.079a4.67,4.67,0,0,0-4.876,4.432,4.67,4.67,0,0,0,4.876,4.433,5.092,5.092,0,0,0,3.435-1.3,4.2,4.2,0,0,0,1.4-3.132,4.666,4.666,0,0,0-4.838-4.433Z" transform="translate(-38.307 370.377)" fill="#dbdbdb"/>
            <path id="Path_21812" data-name="Path 21812" d="M49.766,583.5a3.479,3.479,0,1,0,3.81,3.463A3.649,3.649,0,0,0,49.766,583.5Z" transform="translate(32.215 318.717)" fill="#dbdbdb"/>
            <path id="Path_21813" data-name="Path 21813" d="M106.567,643.32c-5.713-.019-10.364,4.169-10.4,9.362s4.56,9.432,10.273,9.476,10.387-4.122,10.45-9.315a8.954,8.954,0,0,0-2.969-6.725A10.862,10.862,0,0,0,106.567,643.32Z" transform="translate(67.413 351.391)" fill="#dbdbdb"/>
            <path id="Path_21814" data-name="Path 21814" d="M61.063,644.171a5.822,5.822,0,0,0-5.353,3.257,4.921,4.921,0,0,0,1.272,5.741,6.222,6.222,0,0,0,6.323,1.119,5.277,5.277,0,0,0,3.548-4.888,5.55,5.55,0,0,0-5.79-5.229Z" transform="translate(38.746 351.856)" fill="#dbdbdb"/>
            <ellipse id="Ellipse_31" data-name="Ellipse 31" cx="5.333" cy="4.848" rx="5.333" ry="4.848" transform="translate(323.314 829.533)" fill="#dbdbdb"/>
            <ellipse id="Ellipse_32" data-name="Ellipse 32" cx="4.952" cy="4.502" rx="4.952" ry="4.502" transform="translate(146.895 860.491)" fill="#dbdbdb"/>
            <path id="Path_21815" data-name="Path 21815" d="M388.083,525.985a9.624,9.624,0,0,0-6.5-8.89,11.336,11.336,0,0,0-11.517,2.073,8.965,8.965,0,0,0-2.28,10.469,10.619,10.619,0,0,0,9.78,5.905C383.367,535.524,388.062,531.256,388.083,525.985Z" transform="translate(257.25 282.043)" fill="#dbdbdb"/>
            <ellipse id="Ellipse_33" data-name="Ellipse 33" cx="12.305" cy="11.185" rx="12.305" ry="11.185" transform="translate(504.419 680.421)" fill="#dbdbdb"/>
            <ellipse id="Ellipse_34" data-name="Ellipse 34" cx="3.581" cy="3.255" rx="3.581" ry="3.255" transform="translate(657.829 595.858)" fill="#dbdbdb"/>
            <ellipse id="Ellipse_35" data-name="Ellipse 35" cx="5.41" cy="4.917" rx="5.41" ry="4.917" transform="translate(879.048 447.3)" fill="#dbdbdb"/>
            <path id="Path_21816" data-name="Path 21816" d="M571.241,282.188a5.793,5.793,0,0,0-5.342,3.2,4.885,4.885,0,0,0,1.222,5.71,6.178,6.178,0,0,0,6.274,1.149,5.251,5.251,0,0,0,3.56-4.834A5.542,5.542,0,0,0,571.241,282.188Z" transform="translate(396.378 154.135)" fill="#dbdbdb"/>
            <path id="Path_21817" data-name="Path 21817" d="M657.34,223.958a7.4,7.4,0,0,0-6.823,4.11,6.246,6.246,0,0,0,1.586,7.3,7.9,7.9,0,0,0,8.03,1.442,6.7,6.7,0,0,0,4.521-6.2c0-3.672-3.275-6.648-7.314-6.649Z" transform="translate(455.612 122.33)" fill="#dbdbdb"/>
            <ellipse id="Ellipse_36" data-name="Ellipse 36" cx="7.314" cy="6.649" rx="7.314" ry="6.649" transform="translate(1291.314 321.182)" fill="#dbdbdb"/>
            <path id="Path_21818" data-name="Path 21818" d="M709.983,317.864a9.125,9.125,0,0,0-8.407,5.072,7.7,7.7,0,0,0,1.958,9,9.74,9.74,0,0,0,9.9,1.78,8.268,8.268,0,0,0,5.579-7.642C718.99,321.546,714.96,317.883,709.983,317.864Z" transform="translate(491.313 173.622)" fill="#dbdbdb"/>
            <path id="Path_21819" data-name="Path 21819" d="M864.528,111.885a5.566,5.566,0,1,0-6.1-5.541,5.838,5.838,0,0,0,6.1,5.541Z" transform="translate(601.758 55.061)" fill="#dbdbdb"/>
            <path id="Path_21820" data-name="Path 21820" d="M799.774,144.677a4.937,4.937,0,1,0-4.952,4.432,5.145,5.145,0,0,0,3.5-1.274A4.242,4.242,0,0,0,799.774,144.677Z" transform="translate(553.749 76.566)" fill="#dbdbdb"/>
            <path id="Path_21821" data-name="Path 21821" d="M966.142,135.495a5.427,5.427,0,1,0,5.943,5.4A5.692,5.692,0,0,0,966.142,135.495Z" transform="translate(673.096 74.009)" fill="#dbdbdb"/>
            <path id="Path_21822" data-name="Path 21822" d="M1069.054-22.844a8.783,8.783,0,0,0-5.913,2.234,7.244,7.244,0,0,0-2.43,5.385c.021,4.175,3.75,7.549,8.343,7.549s8.322-3.374,8.343-7.549a7.247,7.247,0,0,0-2.43-5.385A8.784,8.784,0,0,0,1069.054-22.844Z" transform="translate(743.555 -12.478)" fill="#dbdbdb"/>
            <ellipse id="Ellipse_37" data-name="Ellipse 37" cx="7.01" cy="6.372" rx="7.01" ry="6.372" transform="translate(1773.524 9.246)" fill="#dbdbdb"/>
            <path id="Path_21823" data-name="Path 21823" d="M1058.386,93.749a6.512,6.512,0,0,0-5.987,3.642,5.5,5.5,0,0,0,1.421,6.42,6.959,6.959,0,0,0,7.071,1.254,5.9,5.9,0,0,0,3.971-5.463,5.6,5.6,0,0,0-1.9-4.151A6.785,6.785,0,0,0,1058.386,93.749Z" transform="translate(737.385 51.207)" fill="#dbdbdb"/>
            <path id="Path_21824" data-name="Path 21824" d="M1244.922-66.695c-4.208,0-7.619,3.1-7.619,6.926s3.411,6.926,7.619,6.926,7.62-3.1,7.62-6.926S1249.13-66.695,1244.922-66.695Z" transform="translate(867.345 -36.43)" fill="#dbdbdb"/>
            <path id="Path_21825" data-name="Path 21825" d="M1127.452-48.845c-4.713,0-8.533,3.473-8.533,7.757s3.821,7.757,8.533,7.757,8.533-3.473,8.533-7.757S1132.165-48.845,1127.452-48.845Z" transform="translate(784.358 -26.68)" fill="#dbdbdb"/>
            <path id="Path_21826" data-name="Path 21826" d="M82.313,735.793a5.775,5.775,0,1,0,6.324,5.748,5.461,5.461,0,0,0-1.841-4.075,6.622,6.622,0,0,0-4.483-1.673Z" transform="translate(53.268 401.901)" fill="#dbdbdb"/>
            <path id="Path_21827" data-name="Path 21827" d="M179.374,569.929c-5.26,0-9.524,3.876-9.524,8.657s4.264,8.657,9.524,8.657,9.524-3.876,9.524-8.657S184.634,569.929,179.374,569.929Z" transform="translate(119.064 311.304)" fill="#dbdbdb"/>
            <path id="Path_21828" data-name="Path 21828" d="M275.386,530.787a5.524,5.524,0,1,0,0,11.047,6.3,6.3,0,0,0,5.678-2.627,5.115,5.115,0,0,0,0-5.792,6.3,6.3,0,0,0-5.678-2.627Z" transform="translate(189.109 289.915)" fill="#dbdbdb"/>
            <path id="Path_21829" data-name="Path 21829" d="M269.313,635.213c-4.566,0-8.267,3.364-8.267,7.514s3.7,7.514,8.267,7.514,8.267-3.364,8.267-7.514-3.7-7.514-8.267-7.515Z" transform="translate(182.992 346.963)" fill="#dbdbdb"/>
            <path id="Path_21830" data-name="Path 21830" d="M344.067,608.114a7.018,7.018,0,0,0-6.471,3.9,5.923,5.923,0,0,0,1.5,6.922,7.489,7.489,0,0,0,7.615,1.367A6.356,6.356,0,0,0,351,614.417c0-3.481-3.1-6.3-6.933-6.3Z" transform="translate(236.276 332.161)" fill="#dbdbdb"/>
            <path id="Path_21831" data-name="Path 21831" d="M421.807,444a10.229,10.229,0,0,0-9.4,5.716,8.643,8.643,0,0,0,2.222,10.08,10.928,10.928,0,0,0,11.1,1.982,9.276,9.276,0,0,0,6.253-8.567A8.809,8.809,0,0,0,429,446.683,10.675,10.675,0,0,0,421.807,444Z" transform="translate(288.555 242.518)" fill="#dbdbdb"/>
            <path id="Path_21832" data-name="Path 21832" d="M447.664,561.083a4.8,4.8,0,1,0,5.257,4.779,5.035,5.035,0,0,0-5.257-4.779Z" transform="translate(310.126 306.472)" fill="#dbdbdb"/>
            <path id="Path_21833" data-name="Path 21833" d="M499.063,405.141c-4.944,0-8.952,3.643-8.952,8.138s4.008,8.138,8.953,8.138,8.952-3.643,8.952-8.138-4.008-8.138-8.952-8.138Z" transform="translate(343.566 221.294)" fill="#dbdbdb"/>
            <path id="Path_21834" data-name="Path 21834" d="M602.508,391.77c-4.1,0-7.429,3.023-7.429,6.753s3.326,6.753,7.429,6.753,7.429-3.023,7.429-6.753C609.837,394.832,606.569,391.861,602.508,391.77Z" transform="translate(417.149 213.991)" fill="#dbdbdb"/>
            <path id="Path_21835" data-name="Path 21835" d="M641.6,336.994c0-4.628-4.128-8.38-9.219-8.38s-9.219,3.752-9.219,8.38,4.128,8.38,9.219,8.38S641.6,341.622,641.6,336.994Z" transform="translate(436.836 179.494)" fill="#dbdbdb"/>
            <path id="Path_21836" data-name="Path 21836" d="M806.194,256.753a8.006,8.006,0,0,0,7.359-4.476,6.766,6.766,0,0,0-1.743-7.892,8.554,8.554,0,0,0-8.69-1.547,7.259,7.259,0,0,0-4.889,6.711,6.89,6.89,0,0,0,2.335,5.105,8.348,8.348,0,0,0,5.628,2.1Z" transform="translate(559.558 132.336)" fill="#dbdbdb"/>
            <path id="Path_21837" data-name="Path 21837" d="M866.092,257.033A11.96,11.96,0,0,0,877.1,250.38a10.1,10.1,0,0,0-2.569-11.79,12.768,12.768,0,0,0-12.97-2.335,10.841,10.841,0,0,0-7.32,10.01C854.265,252.2,859.557,257.014,866.092,257.033Z" transform="translate(598.822 128.593)" fill="#dbdbdb"/>
            <path id="Path_21838" data-name="Path 21838" d="M909.031,172.448a2.445,2.445,0,0,0-2.514,2.285,2.413,2.413,0,0,0,2.514,2.251,2.372,2.372,0,0,0,2.476-2.251,2.4,2.4,0,0,0-2.476-2.285Z" transform="translate(635.465 94.194)" fill="#dbdbdb"/>
            <path id="Path_21839" data-name="Path 21839" d="M884.42,274.035c-3.7,0-6.7,2.729-6.7,6.095s3,6.095,6.7,6.095,6.7-2.729,6.7-6.095S888.123,274.035,884.42,274.035Z" transform="translate(615.275 149.682)" fill="#dbdbdb"/>
            <path id="Path_21840" data-name="Path 21840" d="M1102.527,69.741a3.479,3.479,0,1,0,3.809,3.463A3.649,3.649,0,0,0,1102.527,69.741Z" transform="translate(770.197 38.093)" fill="#dbdbdb"/>
            <path id="Path_21841" data-name="Path 21841" d="M1182.961,26.629a10.627,10.627,0,0,0-9.807,5.881,8.963,8.963,0,0,0,2.255,10.481,11.334,11.334,0,0,0,11.522,2.088,9.626,9.626,0,0,0,6.505-8.893c-.021-5.257-4.693-9.52-10.476-9.558Z" transform="translate(821.801 14.545)" fill="#dbdbdb"/>
            <path id="Path_21842" data-name="Path 21842" d="M1206.928,110.923c-.021-5.121-4.6-9.259-10.235-9.246s-10.191,4.171-10.184,9.292,4.576,9.269,10.21,9.269a10.748,10.748,0,0,0,7.232-2.73,8.869,8.869,0,0,0,2.977-6.585Z" transform="translate(831.739 55.538)" fill="#dbdbdb"/>
            <path id="Path_21843" data-name="Path 21843" d="M1297.353-61.342c-4.482,0-8.115,3.3-8.115,7.376s3.633,7.376,8.115,7.376,8.114-3.3,8.114-7.376S1301.834-61.342,1297.353-61.342Z" transform="translate(903.752 -33.506)" fill="#dbdbdb"/>
            <path id="Path_21844" data-name="Path 21844" d="M233.363,755.143c-7.1-.019-12.862,5.2-12.876,11.647s5.73,11.687,12.825,11.693,12.851-5.22,12.851-11.67c0-6.432-5.725-11.651-12.8-11.67Z" transform="translate(154.561 412.471)" fill="#dbdbdb"/>
            <path id="Path_21845" data-name="Path 21845" d="M204.528,696.072a5.71,5.71,0,0,0-1.1,0,5.126,5.126,0,0,0-4.888,5.178,5.5,5.5,0,0,0,10.881,0,5.126,5.126,0,0,0-4.888-5.178Z" transform="translate(139.167 380.191)" fill="#dbdbdb"/>
            <path id="Path_21846" data-name="Path 21846" d="M311.763,713.778c-4.04,0-7.314,2.977-7.314,6.649s3.275,6.649,7.314,6.649,7.314-2.977,7.314-6.649-3.275-6.649-7.315-6.649Z" transform="translate(213.418 389.876)" fill="#dbdbdb"/>
            <path id="Path_21847" data-name="Path 21847" d="M350.422,665.425a5.255,5.255,0,0,0-4.852,2.912,4.434,4.434,0,0,0,1.124,5.186,5.606,5.606,0,0,0,5.705,1.022,4.757,4.757,0,0,0,3.2-4.411A5,5,0,0,0,350.422,665.425Z" transform="translate(241.959 363.465)" fill="#dbdbdb"/>
            <ellipse id="Ellipse_38" data-name="Ellipse 38" cx="4.343" cy="3.948" rx="4.343" ry="3.948" transform="translate(650.4 928.952)" fill="#dbdbdb"/>
            <ellipse id="Ellipse_39" data-name="Ellipse 39" cx="8.686" cy="7.895" rx="8.686" ry="7.895" transform="translate(725.905 929.921)" fill="#dbdbdb"/>
            <path id="Path_21848" data-name="Path 21848" d="M546.445,611.613c0-3.825-3.411-6.926-7.619-6.926s-7.619,3.1-7.619,6.926,3.411,6.926,7.619,6.926S546.445,615.438,546.445,611.613Z" transform="translate(372.374 330.29)" fill="#dbdbdb"/>
            <ellipse id="Ellipse_40" data-name="Ellipse 40" cx="5.981" cy="5.437" rx="5.981" ry="5.437" transform="translate(897.943 776.343)" fill="#dbdbdb"/>
            <path id="Path_21849" data-name="Path 21849" d="M594.053,441.576a5.218,5.218,0,1,0-5.714-5.194A5.473,5.473,0,0,0,594.053,441.576Z" transform="translate(412.423 235.521)" fill="#dbdbdb"/>
            <path id="Path_21850" data-name="Path 21850" d="M636.32,415.263a4.1,4.1,0,0,0-2.758-3.8,4.829,4.829,0,0,0-4.916.879,3.819,3.819,0,0,0-.967,4.469,4.527,4.527,0,0,0,4.184,2.506A4.306,4.306,0,0,0,636.32,415.263Z" transform="translate(439.756 224.573)" fill="#dbdbdb"/>
            <path id="Path_21851" data-name="Path 21851" d="M681.2,517.367a6.238,6.238,0,1,0-6.209,5.645,5.947,5.947,0,0,0,6.209-5.645Z" transform="translate(468.816 279.511)" fill="#dbdbdb"/>
            <path id="Path_21852" data-name="Path 21852" d="M763.825,352.2c-5.512,0-9.981,4.062-9.981,9.073s4.469,9.073,9.981,9.073,9.981-4.062,9.981-9.073-4.469-9.073-9.981-9.073Z" transform="translate(528.442 192.375)" fill="#dbdbdb"/>
            <ellipse id="Ellipse_41" data-name="Ellipse 41" cx="5.981" cy="5.437" rx="5.981" ry="5.437" transform="translate(1396 486.846)" fill="#dbdbdb"/>
            <path id="Path_21853" data-name="Path 21853" d="M940.662,364.806a5.523,5.523,0,0,0-5.1,3.062,4.66,4.66,0,0,0,1.182,5.45,5.893,5.893,0,0,0,6,1.074,5,5,0,0,0,3.369-4.635A5.218,5.218,0,0,0,940.662,364.806Z" transform="translate(655.529 199.263)" fill="#dbdbdb"/>
            <path id="Path_21854" data-name="Path 21854" d="M920.919,257.373c-4.355,0-7.886,3.209-7.886,7.168s3.531,7.168,7.886,7.168,7.886-3.209,7.886-7.168S925.274,257.373,920.919,257.373Z" transform="translate(640.033 140.581)" fill="#dbdbdb"/>
            <path id="Path_21855" data-name="Path 21855" d="M1004.537,206.042a5.255,5.255,0,0,0-4.853,2.912,4.434,4.434,0,0,0,1.124,5.186,5.607,5.607,0,0,0,5.705,1.022,4.757,4.757,0,0,0,3.2-4.411A4.962,4.962,0,0,0,1004.537,206.042Z" transform="translate(700.492 112.543)" fill="#dbdbdb"/>
            <path id="Path_21856" data-name="Path 21856" d="M1143.638,174.3a7.119,7.119,0,0,0-4.682-6.737,8.442,8.442,0,0,0-8.628,1.411,6.676,6.676,0,0,0-1.806,7.8,7.884,7.884,0,0,0,7.269,4.454C1140.036,181.23,1143.514,178.161,1143.638,174.3Z" transform="translate(790.686 91.197)" fill="#dbdbdb"/>
            <path id="Path_21857" data-name="Path 21857" d="M1281.389,74.886a6.045,6.045,0,1,0-6.019,5.506,6.338,6.338,0,0,0,4.27-1.615A5.227,5.227,0,0,0,1281.389,74.886Z" transform="translate(889.811 37.934)" fill="#dbdbdb"/>
            <path id="Path_21858" data-name="Path 21858" d="M1320.969,119.683a8.734,8.734,0,0,0-8.028,4.882,7.38,7.38,0,0,0,1.9,8.609,9.332,9.332,0,0,0,9.478,1.689,7.919,7.919,0,0,0,5.335-7.319,7.518,7.518,0,0,0-2.546-5.571A9.111,9.111,0,0,0,1320.969,119.683Z" transform="translate(919.906 65.373)" fill="#dbdbdb"/>
            <ellipse id="Ellipse_42" data-name="Ellipse 42" cx="6.248" cy="5.679" rx="6.248" ry="5.679" transform="translate(2181.181 58.176)" fill="#dbdbdb"/>
            <path id="Path_21859" data-name="Path 21859" d="M221.639,827.078a9.01,9.01,0,0,0-8.3,5.008,7.605,7.605,0,0,0,1.933,8.884,9.616,9.616,0,0,0,9.774,1.757,8.164,8.164,0,0,0,5.509-7.546c0-4.475-3.991-8.1-8.914-8.1Z" transform="translate(149.066 451.763)" fill="#dbdbdb"/>
            <path id="Path_21860" data-name="Path 21860" d="M149.965,837.095a3.479,3.479,0,1,0-3.81-3.463A3.649,3.649,0,0,0,149.965,837.095Z" transform="translate(102.454 453.451)" fill="#dbdbdb"/>
            <path id="Path_21861" data-name="Path 21861" d="M150.416,880.425a7.388,7.388,0,0,0-6.809,4.167,6.254,6.254,0,0,0,1.681,7.3,7.908,7.908,0,0,0,8.076,1.336,6.674,6.674,0,0,0,4.4-6.3c-.083-3.631-3.357-6.53-7.352-6.51Z" transform="translate(100.289 480.902)" fill="#dbdbdb"/>
            <path id="Path_21862" data-name="Path 21862" d="M384.115,756.263c-4.208,0-7.619,3.1-7.619,6.926s3.411,6.926,7.619,6.926,7.619-3.1,7.619-6.926S388.323,756.263,384.115,756.263Z" transform="translate(263.923 413.082)" fill="#dbdbdb"/>
            <path id="Path_21863" data-name="Path 21863" d="M473.741,735.894a4.555,4.555,0,0,0-8.952,0,3.982,3.982,0,0,0,2.11,3.85,4.881,4.881,0,0,0,4.732,0,3.982,3.982,0,0,0,2.11-3.85Z" transform="translate(325.802 399.93)" fill="#dbdbdb"/>
            <path id="Path_21864" data-name="Path 21864" d="M587.546,552.2a4.348,4.348,0,1,0-4.762-4.329,4.561,4.561,0,0,0,4.762,4.329Z" transform="translate(408.53 296.894)" fill="#dbdbdb"/>
            <ellipse id="Ellipse_43" data-name="Ellipse 43" cx="11.124" cy="10.112" rx="11.124" ry="10.112" transform="translate(1146.4 878.567)" fill="#dbdbdb"/>
            <ellipse id="Ellipse_44" data-name="Ellipse 44" cx="8.343" cy="7.584" rx="8.343" ry="7.584" transform="translate(1168.838 740.848)" fill="#dbdbdb"/>
            <path id="Path_21865" data-name="Path 21865" d="M730.012,571.586c-5.639,0-10.209,4.155-10.209,9.281s4.571,9.28,10.209,9.28,10.209-4.155,10.209-9.28S735.65,571.586,730.012,571.586Z" transform="translate(504.579 312.209)" fill="#dbdbdb"/>
            <path id="Path_21866" data-name="Path 21866" d="M879.389,401.835c0-3.27-2.917-5.922-6.514-5.922s-6.514,2.651-6.514,5.922,2.917,5.922,6.514,5.922S879.389,405.106,879.389,401.835Z" transform="translate(607.316 216.254)" fill="#dbdbdb"/>
            <path id="Path_21867" data-name="Path 21867" d="M800.395,437.839c-5.239,0-9.486,3.86-9.486,8.623s4.247,8.622,9.486,8.622,9.486-3.86,9.486-8.623a8.21,8.21,0,0,0-2.767-6.107A9.951,9.951,0,0,0,800.395,437.839Z" transform="translate(554.424 239.154)" fill="#dbdbdb"/>
            <ellipse id="Ellipse_45" data-name="Ellipse 45" cx="11.162" cy="10.146" rx="11.162" ry="10.146" transform="translate(1759.695 545.854)" fill="#dbdbdb"/>
            <path id="Path_21868" data-name="Path 21868" d="M1010.828,272.714a5.524,5.524,0,0,0-5.1,3.062,4.661,4.661,0,0,0,1.182,5.45,5.894,5.894,0,0,0,6,1.074,5,5,0,0,0,3.369-4.635A5.218,5.218,0,0,0,1010.828,272.714Z" transform="translate(704.715 148.961)" fill="#dbdbdb"/>
            <ellipse id="Ellipse_46" data-name="Ellipse 46" cx="4.038" cy="3.671" rx="4.038" ry="3.671" transform="translate(1857.829 418.87)" fill="#dbdbdb"/>
            <ellipse id="Ellipse_47" data-name="Ellipse 47" cx="5.524" cy="5.021" rx="5.524" ry="5.021" transform="translate(1899.086 388.397)" fill="#dbdbdb"/>
            <path id="Path_21869" data-name="Path 21869" d="M1241.481,281.4a10.658,10.658,0,0,0-9.811,5.919,9,9,0,0,0,2.271,10.5,11.374,11.374,0,0,0,11.546,2.1,9.667,9.667,0,0,0,6.547-8.9c0-5.3-4.719-9.608-10.553-9.627Z" transform="translate(862.823 153.707)" fill="#dbdbdb"/>
            <path id="Path_21870" data-name="Path 21870" d="M1161.19,336.542c-5.386,0-9.752,3.969-9.752,8.865s4.366,8.865,9.752,8.865,9.752-3.969,9.752-8.865S1166.576,336.542,1161.19,336.542Z" transform="translate(807.153 183.825)" fill="#dbdbdb"/>
            <path id="Path_21871" data-name="Path 21871" d="M1228.048,214.561a9.658,9.658,0,0,0-6.511-8.919,11.378,11.378,0,0,0-11.554,2.064,9,9,0,0,0-2.313,10.5,10.649,10.649,0,0,0,9.788,5.951,11.117,11.117,0,0,0,7.486-2.8,9.174,9.174,0,0,0,3.1-6.8Z" transform="translate(846.009 111.919)" fill="#dbdbdb"/>
            <path id="Path_21872" data-name="Path 21872" d="M1337.592,199.928a5.631,5.631,0,0,0-5.178,3.15,4.759,4.759,0,0,0,1.231,5.552,6.018,6.018,0,0,0,6.116,1.081,5.1,5.1,0,0,0,3.431-4.728,4.834,4.834,0,0,0-1.642-3.587A5.862,5.862,0,0,0,1337.592,199.928Z" transform="translate(933.722 109.204)" fill="#dbdbdb"/>
            <ellipse id="Ellipse_48" data-name="Ellipse 48" cx="6.286" cy="5.714" rx="6.286" ry="5.714" transform="translate(2376.914 306.361)" fill="#dbdbdb"/>
            <path id="Path_21873" data-name="Path 21873" d="M1288.762,158.115a3.757,3.757,0,1,0,4.114,3.74A3.94,3.94,0,0,0,1288.762,158.115Z" transform="translate(900.533 86.365)" fill="#dbdbdb"/>
            <path id="Path_21874" data-name="Path 21874" d="M281.416,901.522a5.287,5.287,0,1,0,5.791,5.264A5.546,5.546,0,0,0,281.416,901.522Z" transform="translate(193.213 492.425)" fill="#dbdbdb"/>
            <path id="Path_21875" data-name="Path 21875" d="M213.364,936.146a6.282,6.282,0,0,0-5.776,3.514,5.31,5.31,0,0,0,1.371,6.193,6.714,6.714,0,0,0,6.821,1.209,5.7,5.7,0,0,0,3.83-5.271,5.4,5.4,0,0,0-1.832-4A6.544,6.544,0,0,0,213.364,936.146Z" transform="translate(145.188 511.337)" fill="#dbdbdb"/>
            <path id="Path_21876" data-name="Path 21876" d="M327.754,809.678a3.869,3.869,0,0,0-3.652,2.013,3.228,3.228,0,0,0,.7,3.83,4.084,4.084,0,0,0,4.172.832,3.483,3.483,0,0,0,2.4-3.213,3.123,3.123,0,0,0-.99-2.439,3.8,3.8,0,0,0-2.629-1.024Z" transform="translate(226.951 442.257)" fill="#dbdbdb"/>
            <path id="Path_21877" data-name="Path 21877" d="M369.722,871.984a4.105,4.105,0,0,0-3.89,2.116,3.42,3.42,0,0,0,.724,4.068,4.326,4.326,0,0,0,4.425.893,3.693,3.693,0,0,0,2.55-3.406A3.805,3.805,0,0,0,369.722,871.984Z" transform="translate(256.183 476.288)" fill="#dbdbdb"/>
            <path id="Path_21878" data-name="Path 21878" d="M557.055,642.313c-5.2,0-9.41,3.83-9.41,8.553s4.213,8.553,9.41,8.553,9.409-3.83,9.409-8.553a8.142,8.142,0,0,0-2.745-6.058,9.873,9.873,0,0,0-6.665-2.5Z" transform="translate(383.897 350.841)" fill="#dbdbdb"/>
            <path id="Path_21879" data-name="Path 21879" d="M667.486,677.138a4.07,4.07,0,1,0,4.457,4.052A4.269,4.269,0,0,0,667.486,677.138Z" transform="translate(464.781 369.863)" fill="#dbdbdb"/>
            <path id="Path_21880" data-name="Path 21880" d="M595.632,699.2c-7.343,0-13.3,5.411-13.3,12.085s5.953,12.085,13.3,12.085,13.3-5.411,13.3-12.085a11.52,11.52,0,0,0-3.883-8.556,13.963,13.963,0,0,0-9.412-3.529Z" transform="translate(408.216 381.913)" fill="#dbdbdb"/>
            <path id="Path_21881" data-name="Path 21881" d="M637.529,640.051a8.243,8.243,0,0,0-7.6,4.58,6.958,6.958,0,0,0,1.768,8.13,8.8,8.8,0,0,0,8.943,1.607,7.469,7.469,0,0,0,5.038-6.906c0-4.093-3.65-7.411-8.152-7.411Z" transform="translate(441.138 349.606)" fill="#dbdbdb"/>
            <ellipse id="Ellipse_49" data-name="Ellipse 49" cx="8.876" cy="8.069" rx="8.876" ry="8.069" transform="translate(1363.886 783.753)" fill="#dbdbdb"/>
            <path id="Path_21882" data-name="Path 21882" d="M980.247,438.958c-4.183,0-7.582,3.067-7.616,6.869s3.31,6.918,7.492,6.981,7.638-2.951,7.743-6.752C987.867,442.2,984.485,439.052,980.247,438.958Z" transform="translate(681.81 239.766)" fill="#dbdbdb"/>
            <path id="Path_21883" data-name="Path 21883" d="M876.7,472.254a11.057,11.057,0,0,0-7.487-10.177,13.012,13.012,0,0,0-13.207,2.4,10.291,10.291,0,0,0-2.6,12.012,12.191,12.191,0,0,0,11.219,6.774,12.715,12.715,0,0,0,8.553-3.227,10.491,10.491,0,0,0,3.523-7.784Z" transform="translate(597.582 251.938)" fill="#dbdbdb"/>
            <path id="Path_21884" data-name="Path 21884" d="M1122.13,371.664c0-3.825-3.411-6.926-7.619-6.926s-7.619,3.1-7.619,6.926,3.411,6.926,7.619,6.926S1122.13,375.489,1122.13,371.664Z" transform="translate(775.927 199.226)" fill="#dbdbdb"/>
            <path id="Path_21885" data-name="Path 21885" d="M1042.211,463.907a4.314,4.314,0,1,0,4.724,4.294,4.524,4.524,0,0,0-4.724-4.294Z" transform="translate(727.275 253.393)" fill="#dbdbdb"/>
            <path id="Path_21886" data-name="Path 21886" d="M1117.589,408.478a5.044,5.044,0,1,0,5.524,5.021,5.29,5.29,0,0,0-5.524-5.021Z" transform="translate(779.554 223.117)" fill="#dbdbdb"/>
            <path id="Path_21887" data-name="Path 21887" d="M1200.028,387.134a5.044,5.044,0,1,0,5.524,5.021,5.291,5.291,0,0,0-5.524-5.021Z" transform="translate(837.343 211.459)" fill="#dbdbdb"/>
            <ellipse id="Ellipse_50" data-name="Ellipse 50" cx="6.857" cy="6.233" rx="6.857" ry="6.233" transform="translate(2165.448 482.171)" fill="#dbdbdb"/>
            <path id="Path_21888" data-name="Path 21888" d="M1435.417,249.49a3.722,3.722,0,1,0,4.076,3.705A3.9,3.9,0,0,0,1435.417,249.49Z" transform="translate(1003.364 136.275)" fill="#dbdbdb"/>
            <ellipse id="Ellipse_51" data-name="Ellipse 51" cx="5.905" cy="5.367" rx="5.905" ry="5.367" transform="translate(666.667 1266.098)" fill="#dbdbdb"/>
            <ellipse id="Ellipse_52" data-name="Ellipse 52" cx="8.952" cy="8.138" rx="8.952" ry="8.138" transform="translate(793.79 1359.111)" fill="#dbdbdb"/>
            <ellipse id="Ellipse_53" data-name="Ellipse 53" cx="2.895" cy="2.632" rx="2.895" ry="2.632" transform="translate(621.143 1404.648)" fill="#dbdbdb"/>
            <path id="Path_21889" data-name="Path 21889" d="M497.207,806.093a5.6,5.6,0,1,0,6.133,5.575A5.874,5.874,0,0,0,497.207,806.093Z" transform="translate(344.241 440.301)" fill="#dbdbdb"/>
            <path id="Path_21890" data-name="Path 21890" d="M616.964,772.119a5.218,5.218,0,1,0,5.714,5.194A5.473,5.473,0,0,0,616.964,772.119Z" transform="translate(428.484 421.743)" fill="#dbdbdb"/>
            <path id="Path_21891" data-name="Path 21891" d="M542.142,841.927a5.83,5.83,0,0,0-5.38,3.233,4.919,4.919,0,0,0,1.248,5.752,6.22,6.22,0,0,0,6.328,1.134,5.278,5.278,0,0,0,3.557-4.891,5.509,5.509,0,0,0-5.753-5.229Z" transform="translate(375.954 459.873)" fill="#dbdbdb"/>
            <path id="Path_21892" data-name="Path 21892" d="M781.193,713.4a4.053,4.053,0,0,0-3.747,2.318,3.44,3.44,0,0,0,.983,4.022,4.349,4.349,0,0,0,4.475.658,3.643,3.643,0,0,0,2.328-3.535A3.9,3.9,0,0,0,781.193,713.4Z" transform="translate(544.787 389.669)" fill="#dbdbdb"/>
            <ellipse id="Ellipse_54" data-name="Ellipse 54" cx="5.067" cy="4.606" rx="5.067" ry="4.606" transform="translate(1175.01 1154.177)" fill="#dbdbdb"/>
            <path id="Path_21893" data-name="Path 21893" d="M720.82,615.438a5.3,5.3,0,0,0-4.884,2.926,4.465,4.465,0,0,0,1.115,5.219,5.645,5.645,0,0,0,5.734,1.052,4.8,4.8,0,0,0,3.254-4.418,4.532,4.532,0,0,0-1.515-3.377A5.493,5.493,0,0,0,720.82,615.438Z" transform="translate(501.58 336.161)" fill="#dbdbdb"/>
            <path id="Path_21894" data-name="Path 21894" d="M867.942,549.28c-6.922,0-12.533,5.1-12.533,11.393s5.612,11.393,12.533,11.393,12.533-5.1,12.533-11.393a10.857,10.857,0,0,0-3.66-8.066A13.16,13.16,0,0,0,867.942,549.28Z" transform="translate(599.639 300.025)" fill="#dbdbdb"/>
            <path id="Path_21895" data-name="Path 21895" d="M878.944,679.534a5.6,5.6,0,1,0,6.133,5.575A5.874,5.874,0,0,0,878.944,679.534Z" transform="translate(611.837 371.172)" fill="#dbdbdb"/>
            <ellipse id="Ellipse_55" data-name="Ellipse 55" cx="2.895" cy="2.632" rx="2.895" ry="2.632" transform="translate(1423.352 1086.513)" fill="#dbdbdb"/>
            <path id="Path_21896" data-name="Path 21896" d="M809.4,600.656c-3.977,0-7.2,2.93-7.2,6.545s3.224,6.545,7.2,6.545,7.2-2.93,7.2-6.545a6.222,6.222,0,0,0-2.1-4.638A7.546,7.546,0,0,0,809.4,600.656Z" transform="translate(562.337 328.088)" fill="#dbdbdb"/>
            <path id="Path_21897" data-name="Path 21897" d="M903.75,519.158c-4.4,0-7.962,3.24-7.962,7.237s3.565,7.237,7.962,7.237,7.962-3.24,7.962-7.237c-.021-3.989-3.573-7.219-7.962-7.237Z" transform="translate(627.945 283.572)" fill="#dbdbdb"/>
            <path id="Path_21898" data-name="Path 21898" d="M998.432,600.007a5.218,5.218,0,1,0,5.714,5.194A5.473,5.473,0,0,0,998.432,600.007Z" transform="translate(695.892 327.733)" fill="#dbdbdb"/>
            <path id="Path_21899" data-name="Path 21899" d="M1016.582,474.792a5.792,5.792,0,0,0-5.345,3.212,4.887,4.887,0,0,0,1.24,5.714,6.18,6.18,0,0,0,6.287,1.127,5.244,5.244,0,0,0,3.533-4.859,5.51,5.51,0,0,0-5.714-5.194Z" transform="translate(708.561 259.339)" fill="#dbdbdb"/>
            <ellipse id="Ellipse_56" data-name="Ellipse 56" cx="4.038" cy="3.671" rx="4.038" ry="3.671" transform="translate(1929.981 788.394)" fill="#dbdbdb"/>
            <path id="Path_21900" data-name="Path 21900" d="M1208.458,467.58a2.435,2.435,0,1,0,2.667,2.424A2.554,2.554,0,0,0,1208.458,467.58Z" transform="translate(845.256 255.4)" fill="#dbdbdb"/>
            <ellipse id="Ellipse_57" data-name="Ellipse 57" cx="4.952" cy="4.502" rx="4.952" ry="4.502" transform="translate(2226.857 661.652)" fill="#dbdbdb"/>
            <path id="Path_21901" data-name="Path 21901" d="M1222.809,427.76a9.087,9.087,0,0,0-8.368,5.042,7.669,7.669,0,0,0,1.932,8.956,9.7,9.7,0,0,0,9.844,1.795,8.241,8.241,0,0,0,5.582-7.586C1231.8,431.448,1227.78,427.78,1222.809,427.76Z" transform="translate(850.829 233.649)" fill="#dbdbdb"/>
            <path id="Path_21902" data-name="Path 21902" d="M1381.256,279.948c-3.682,0-6.667,2.713-6.667,6.06s2.985,6.06,6.667,6.06,6.667-2.713,6.667-6.06S1384.938,279.948,1381.256,279.948Z" transform="translate(963.582 152.912)" fill="#dbdbdb"/>
          </g>
        </g>
      </g>
    </g>
  </g>
</svg>
