<svg xmlns="http://www.w3.org/2000/svg" xmlns:xlink="http://www.w3.org/1999/xlink" width="140" height="126" viewBox="0 0 140 126">
  <defs>
    <clipPath id="clip-path">
      <rect id="Rectangle_80" data-name="Rectangle 80" width="140" height="126" fill="#fff"/>
    </clipPath>
  </defs>
  <g id="Mask_Group_13" data-name="Mask Group 13" clip-path="url(#clip-path)">
    <g id="notification_1_" data-name="notification (1)" transform="translate(7)">
      <g id="Group_94" data-name="Group 94">
        <g id="Group_93" data-name="Group 93">
          <path id="Path_21096" data-name="Path 21096" d="M104.127,13.166v99.668A13.172,13.172,0,0,1,90.979,126H34.953a13.172,13.172,0,0,1-13.148-13.166V13.166A13.172,13.172,0,0,1,34.953,0H90.979A13.172,13.172,0,0,1,104.127,13.166Z" transform="translate(0)" fill="#2980b9"/>
          <path id="Path_21098" data-name="Path 21098" d="M96.754,12.861V113.139a5.849,5.849,0,0,1-5.84,5.847h-55.9a5.849,5.849,0,0,1-5.84-5.847V12.861a5.849,5.849,0,0,1,5.84-5.847h5.835a1.848,1.848,0,0,1,1.757,1.28l1.445,4.486a2.674,2.674,0,0,0,2.552,1.863H79.327a2.676,2.676,0,0,0,2.552-1.863l1.445-4.486a1.845,1.845,0,0,1,1.757-1.28h5.835a5.849,5.849,0,0,1,5.839,5.847Z" transform="translate(0)" fill="#dbdbdb"/>
          <path id="Path_21100" data-name="Path 21100" d="M72.96,5.41H52.971a1.846,1.846,0,1,0,0,3.691H72.96a1.846,1.846,0,1,0,0-3.691Z" transform="translate(0)" fill="#334756"/>
          <path id="Path_21101" data-name="Path 21101" d="M72.96,106.982H52.971a1.846,1.846,0,0,0,0,3.691H72.96a1.846,1.846,0,0,0,0-3.691Z" transform="translate(0)" fill="#334756"/>
          <path id="Path_21102" data-name="Path 21102" d="M42.264,29.7v18.61a5.648,5.648,0,0,1-5.638,5.643H12.693l-9.73,7.4a1.832,1.832,0,0,1-1.117.377,1.813,1.813,0,0,1-.819-.192A1.846,1.846,0,0,1,0,59.889V29.7a5.648,5.648,0,0,1,5.638-5.643H36.627A5.648,5.648,0,0,1,42.264,29.7Z" transform="translate(0)" fill="#4c9dd2"/>
          <g id="Group_92" data-name="Group 92" transform="translate(9.458 32.84)">
            <path id="Path_21104" data-name="Path 21104" d="M30.961,32.84H11.3a1.846,1.846,0,0,0,0,3.691H30.961a1.846,1.846,0,1,0,0-3.691Z" transform="translate(-9.458 -32.84)" fill="#334756"/>
            <path id="Path_21105" data-name="Path 21105" d="M28.5,41.207H11.3a1.846,1.846,0,0,0,0,3.691H28.5a1.846,1.846,0,1,0,0-3.691Z" transform="translate(-9.458 -32.84)" fill="#334756"/>
          </g>
        </g>
      </g>
      <g id="Group_95" data-name="Group 95" transform="translate(60.276 43.329)">
        <path id="Path_21106" data-name="Path 21106" d="M112.12,45.1a6.058,6.058,0,0,0-8.569,0l-2.787,2.788a1.845,1.845,0,0,0,0,2.61l5.959,5.961a1.845,1.845,0,0,0,2.61,0l2.787-2.788A6.069,6.069,0,0,0,112.12,45.1Z" transform="translate(-60.276 -43.329)" fill="#4c9dd2"/>
        <path id="Path_21107" data-name="Path 21107" d="M81.972,84.873l-9.607-9.61a1.845,1.845,0,0,0-2.61,0,8.64,8.64,0,1,0,12.217,12.22,1.845,1.845,0,0,0,0-2.61Z" transform="translate(-60.276 -43.329)" fill="#4c9dd2"/>
        <path id="Path_21108" data-name="Path 21108" d="M91.759,96.844a4.593,4.593,0,0,1-1.047.122A4.524,4.524,0,0,1,87.5,95.631l-3.48-3.48L61.613,69.727a4.554,4.554,0,0,1,1.761-7.535l8.337-2.824,8.872-8.877a18.5,18.5,0,0,1,26.151,26.163L97.86,85.529l-2.819,8.339,0,0a4.532,4.532,0,0,1-3.28,2.974Z" transform="translate(-60.276 -43.329)" fill="#4c9dd2"/>
      </g>
      <g id="Group_96" data-name="Group 96" transform="translate(63.779 31.196)">
        <path id="Path_21110" data-name="Path 21110" d="M77.09,38.974a5.542,5.542,0,0,0-5.536,5.537,1.846,1.846,0,0,0,3.691,0,1.847,1.847,0,0,1,1.844-1.846,1.846,1.846,0,1,0,0-3.691Z" transform="translate(-63.779 -31.196)" fill="#2980b9"/>
        <path id="Path_21111" data-name="Path 21111" d="M77.09,31.2A13.329,13.329,0,0,0,63.779,44.511a1.846,1.846,0,1,0,3.691,0,9.633,9.633,0,0,1,9.62-9.624,1.846,1.846,0,1,0,0-3.691Z" transform="translate(-63.779 -31.196)" fill="#2980b9"/>
        <path id="Path_21112" data-name="Path 21112" d="M112.689,85.66a5.542,5.542,0,0,0,5.536-5.537,1.846,1.846,0,0,0-3.691,0,1.847,1.847,0,0,1-1.844,1.846,1.846,1.846,0,1,0,0,3.691Z" transform="translate(-63.779 -31.196)" fill="#2980b9"/>
        <path id="Path_21113" data-name="Path 21113" d="M124.154,78.277a1.846,1.846,0,0,0-1.846,1.846,9.633,9.633,0,0,1-9.62,9.624,1.846,1.846,0,0,0,0,3.691A13.329,13.329,0,0,0,126,80.123,1.845,1.845,0,0,0,124.154,78.277Z" transform="translate(-63.779 -31.196)" fill="#2980b9"/>
      </g>
      <g id="Group_97" data-name="Group 97" transform="translate(40.163 87.216)">
        <path id="Path_21114" data-name="Path 21114" d="M42.009,90.907h7.91a1.846,1.846,0,0,0,0-3.691h-7.91a1.846,1.846,0,0,0,0,3.691Z" transform="translate(-40.163 -87.216)" fill="#334756"/>
        <path id="Path_21115" data-name="Path 21115" d="M54.834,95.829H42.009a1.846,1.846,0,0,0,0,3.691H54.834a1.846,1.846,0,0,0,0-3.691Z" transform="translate(-40.163 -87.216)" fill="#334756"/>
      </g>
    </g>
  </g>
</svg>
