<svg xmlns="http://www.w3.org/2000/svg" xmlns:xlink="http://www.w3.org/1999/xlink" width="130" height="102" viewBox="0 0 130 102">
  <defs>
    <clipPath id="clip-path">
      <rect id="Rectangle_94" data-name="Rectangle 94" width="130" height="102" transform="translate(-0.198 -0.392)" fill="#fff"/>
    </clipPath>
  </defs>
  <g id="Mask_Group_21" data-name="Mask Group 21" transform="translate(0.198 0.392)" clip-path="url(#clip-path)">
    <g id="coding" transform="translate(18.449 0)">
      <g id="Group_214" data-name="Group 214" transform="translate(0 17.799)">
        <g id="Group_213" data-name="Group 213">
          <g id="Group_212" data-name="Group 212">
            <g id="Group_211" data-name="Group 211">
              <g id="Group_210" data-name="Group 210">
                <g id="Group_209" data-name="Group 209">
                  <g id="Group_208" data-name="Group 208">
                    <g id="Group_207" data-name="Group 207">
                      <g id="Group_206" data-name="Group 206">
                        <g id="Group_205" data-name="Group 205">
                          <g id="Group_204" data-name="Group 204">
                            <path id="Path_21323" data-name="Path 21323" d="M41.93,102.416,46.6,83.457H61.4l4.673,18.959Z" transform="translate(-7.331 -24.166)" fill="#334756"/>
                            <path id="Path_21324" data-name="Path 21324" d="M85.833,19.269H9.648a5.175,5.175,0,0,0-5.175,5.175V74.166l2.512,1.5H85.833v-56.4Z" transform="translate(-4.473 -19.269)" fill="#dbdbdb"/>
                            <path id="Path_21325" data-name="Path 21325" d="M104.405,74.166V24.444a5.175,5.175,0,0,0-5.175-5.175h-8.4v56.4H103Z" transform="translate(-11.062 -19.269)" fill="#dbdbdb"/>
                            <path id="Path_21326" data-name="Path 21326" d="M85.833,84.792V78.7H4.473v5.135A5.175,5.175,0,0,0,9.648,89.01H83.775a5.344,5.344,0,0,0,2.058-4.218Z" transform="translate(-4.473 -23.803)" fill="#4c9dd2"/>
                            <path id="Path_21327" data-name="Path 21327" d="M103.978,83.836V78.7H90.4v5.135a5.175,5.175,0,0,1-5.175,5.175H98.8A5.175,5.175,0,0,0,103.978,83.836Z" transform="translate(-10.634 -23.803)" fill="#4c9dd2"/>
                            <g id="Group_203" data-name="Group 203" transform="translate(25.386 74.124)">
                              <path id="Path_21328" data-name="Path 21328" d="M61.633,104.742c0-2.419-.231-5.226-6.214-5.226H39.484a7.527,7.527,0,0,0-7.527,7.527,2.157,2.157,0,0,0,2.157,2.157H60.952l.681-.907v-3.551Z" transform="translate(-31.956 -99.516)" fill="#4c9dd2"/>
                            </g>
                            <path id="Path_21329" data-name="Path 21329" d="M68.938,99.516H57.357a5.533,5.533,0,0,1,5.533,5.533V109.2H74.308a2.157,2.157,0,0,0,2.157-2.157A7.528,7.528,0,0,0,68.938,99.516Z" transform="translate(-8.508 -25.391)" fill="#4c9dd2"/>
                          </g>
                        </g>
                      </g>
                    </g>
                  </g>
                </g>
              </g>
            </g>
          </g>
        </g>
      </g>
      <g id="Group_216" data-name="Group 216" transform="translate(13.575)">
        <path id="Path_21330" data-name="Path 21330" d="M85.363,72.7H19.17V3.488A3.488,3.488,0,0,1,22.658,0H81.875a3.488,3.488,0,0,1,3.488,3.488V72.7Z" transform="translate(-19.17 0)" fill="#334756"/>
        <path id="Path_21331" data-name="Path 21331" d="M85.363,12.887v-9.4A3.488,3.488,0,0,0,81.875,0H22.658A3.488,3.488,0,0,0,19.17,3.488v9.4Z" transform="translate(-19.17 0)" fill="#4c9dd2"/>
        <g id="Group_215" data-name="Group 215" transform="translate(42.945 4.885)">
          <circle id="Ellipse_15" data-name="Ellipse 15" cx="1.558" cy="1.558" r="1.558" transform="translate(0)" fill="#334756"/>
          <circle id="Ellipse_16" data-name="Ellipse 16" cx="1.558" cy="1.558" r="1.558" transform="translate(6.077)" fill="#334756"/>
          <circle id="Ellipse_17" data-name="Ellipse 17" cx="1.558" cy="1.558" r="1.558" transform="translate(12.155)" fill="#334756"/>
        </g>
      </g>
      <g id="Group_226" data-name="Group 226" transform="translate(24.965 25.864)">
        <path id="Path_21332" data-name="Path 21332" d="M74.952,59.129V30.752a2.984,2.984,0,0,0-2.163-2.587H35.64c-2.242,0-4.06,1.291-4.06,2.884V58.832c0,1.593,1.818,2.884,4.06,2.884H72.79a2.983,2.983,0,0,0,2.162-2.586Z" transform="translate(-31.579 -28.165)" fill="#2980b9"/>
        <g id="Group_225" data-name="Group 225" transform="translate(5.542 6.466)">
          <g id="Group_219" data-name="Group 219" transform="translate(10.637)">
            <g id="Group_218" data-name="Group 218">
              <g id="Group_217" data-name="Group 217">
                <path id="Path_21334" data-name="Path 21334" d="M50.858,56.067a1.534,1.534,0,0,1-1.424-2.1l7.417-18.647A1.533,1.533,0,0,1,59.7,36.452L52.283,55.1a1.534,1.534,0,0,1-1.425.967Z" transform="translate(-49.325 -34.352)" fill="#fff"/>
              </g>
            </g>
          </g>
          <g id="Group_224" data-name="Group 224" transform="translate(0 2.564)">
            <g id="Group_221" data-name="Group 221" transform="translate(24.194 0)">
              <g id="Group_220" data-name="Group 220">
                <path id="Path_21335" data-name="Path 21335" d="M65.534,53.005a1.533,1.533,0,0,1-1.218-2.463l4.124-5.41a.283.283,0,0,0,0-.347l-4.1-5.171a1.533,1.533,0,0,1,2.4-1.906l4.1,5.171a3.346,3.346,0,0,1,.04,4.113L66.755,52.4a1.532,1.532,0,0,1-1.221.6Z" transform="translate(-64.002 -37.128)" fill="#fff"/>
              </g>
            </g>
            <g id="Group_223" data-name="Group 223">
              <g id="Group_222" data-name="Group 222">
                <path id="Path_21336" data-name="Path 21336" d="M43.841,53.005a1.531,1.531,0,0,1-1.221-.6L38.5,46.991a3.347,3.347,0,0,1,.04-4.113l4.1-5.17a1.533,1.533,0,1,1,2.4,1.906l-4.1,5.171a.283.283,0,0,0,0,.348l4.124,5.41a1.533,1.533,0,0,1-1.218,2.463Z" transform="translate(-37.81 -37.127)" fill="#fff"/>
              </g>
            </g>
          </g>
        </g>
      </g>
    </g>
  </g>
</svg>
