<svg xmlns="http://www.w3.org/2000/svg" xmlns:xlink="http://www.w3.org/1999/xlink" width="175" height="175" viewBox="0 0 175 175">
  <defs>
    <clipPath id="clip-path">
      <rect id="Rectangle_3083" data-name="Rectangle 3083" width="175" height="175" transform="translate(242 3073)" fill="#fff" stroke="#707070" stroke-width="1"/>
    </clipPath>
  </defs>
  <g id="Mask_Group_217" data-name="Mask Group 217" transform="translate(-242 -3073)" clip-path="url(#clip-path)">
    <g id="Layer_2" data-name="Layer 2" transform="translate(243 3072.669)">
      <g id="Background_Complete" data-name="Background Complete">
        <rect id="Rectangle_114" data-name="Rectangle 114" width="10.876" height="4.596" transform="translate(6.067 59.093)" fill="#ebebeb"/>
        <rect id="Rectangle_115" data-name="Rectangle 115" width="10.876" height="4.596" transform="translate(0 64.87)" fill="#ebebeb"/>
        <rect id="Rectangle_116" data-name="Rectangle 116" width="10.876" height="4.596" transform="translate(12.133 64.87)" fill="#ebebeb"/>
        <rect id="Rectangle_117" data-name="Rectangle 117" width="10.876" height="4.596" transform="translate(156.057)" fill="#ebebeb"/>
        <rect id="Rectangle_118" data-name="Rectangle 118" width="10.876" height="4.596" transform="translate(162.124 5.796)" fill="#ebebeb"/>
        <rect id="Rectangle_119" data-name="Rectangle 119" width="10.876" height="4.596" transform="translate(0 0.004)" fill="#ebebeb"/>
        <rect id="Rectangle_120" data-name="Rectangle 120" width="10.876" height="4.596" transform="translate(136.744 118.441) rotate(180)" fill="#ebebeb"/>
        <rect id="Rectangle_121" data-name="Rectangle 121" width="10.876" height="4.596" transform="translate(142.797 112.664) rotate(180)" fill="#ebebeb"/>
        <path id="Path_21405" data-name="Path 21405" d="M3.531,279.882H56.148l1.692-33.389h-56Z" transform="translate(-1.026 -137.964)" fill="#dbdbdb"/>
        <path id="Path_21406" data-name="Path 21406" d="M10.181,255.308H57.47l-.719,11.18H10.8Z" transform="translate(-5.679 -142.785)" fill="none" stroke="#fff" stroke-width="0.929"/>
        <path id="Path_21407" data-name="Path 21407" d="M13.46,288.014l.5,10.055H57.951l.628-10.055Z" transform="translate(-7.508 -161.125)" fill="none" stroke="#fff" stroke-width="0.929"/>
        <path id="Path_21408" data-name="Path 21408" d="M62.858,267.323H53.395l-.308-2.382h10.08Z" transform="translate(-29.613 -148.15)" fill="none" stroke="#fff" stroke-width="0.929"/>
        <path id="Path_21409" data-name="Path 21409" d="M62.858,299.073H53.395l-.308-2.382h10.08Z" transform="translate(-29.613 -165.965)" fill="none" stroke="#fff" stroke-width="0.929"/>
        <path id="Path_21410" data-name="Path 21410" d="M17.687,322l-.509,3.639-1.027,7.307H14.138V322Z" transform="translate(-7.886 -180.085)" fill="#ebebeb"/>
        <path id="Path_21411" data-name="Path 21411" d="M17.687,322l-.509,3.639H14.138V322Z" transform="translate(-7.886 -180.085)" fill="#dbdbdb"/>
        <path id="Path_21412" data-name="Path 21412" d="M108.161,322l.509,3.639,1.027,7.307h2.013V322Z" transform="translate(-60.438 -180.085)" fill="#ebebeb"/>
        <path id="Path_21413" data-name="Path 21413" d="M108.161,322l.509,3.639h3.039V322Z" transform="translate(-60.438 -180.085)" fill="#dbdbdb"/>
        <rect id="Rectangle_122" data-name="Rectangle 122" width="13.649" height="13.649" transform="translate(169.468 54.209) rotate(90)" fill="#dbdbdb"/>
        <rect id="Rectangle_123" data-name="Rectangle 123" width="9.418" height="9.418" transform="translate(167.352 56.323) rotate(90)" fill="#fff"/>
        <path id="Path_21414" data-name="Path 21414" d="M358.007,127.789h9.418v9.418Z" transform="translate(-200.073 -71.466)" fill="#ebebeb"/>
        <rect id="Rectangle_124" data-name="Rectangle 124" width="13.649" height="13.649" transform="translate(152.685 54.205) rotate(90)" fill="#dbdbdb"/>
        <rect id="Rectangle_125" data-name="Rectangle 125" width="9.418" height="9.418" transform="translate(150.569 56.323) rotate(90)" fill="#fff"/>
        <path id="Path_21415" data-name="Path 21415" d="M326.3,127.789h6.654v6.654Z" transform="translate(-182.388 -71.462)" fill="#ebebeb"/>
        <rect id="Rectangle_126" data-name="Rectangle 126" width="17.839" height="30.547" transform="translate(169.583 71.064) rotate(90)" fill="#dbdbdb"/>
        <rect id="Rectangle_127" data-name="Rectangle 127" width="13.427" height="26.09" transform="translate(167.352 73.27) rotate(90)" fill="#fff"/>
        <path id="Path_21416" data-name="Path 21416" d="M340.627,166.254h17.1v8.8Z" transform="translate(-190.378 -92.977)" fill="#ebebeb"/>
        <rect id="Rectangle_128" data-name="Rectangle 128" width="30.547" height="30.547" transform="translate(169.583 20.656) rotate(90)" fill="#dbdbdb"/>
        <rect id="Rectangle_129" data-name="Rectangle 129" width="26.09" height="26.086" transform="translate(141.262 22.887)" fill="#fff"/>
        <path id="Path_21417" data-name="Path 21417" d="M355.575,70.542c-3.964-3.943-15.2-15.124-18.812-18.783h18.812Z" transform="translate(-188.223 -28.872)" fill="#ebebeb"/>
      </g>
      <g id="Shadow" transform="translate(5.229 158.233)">
        <path id="Path_21418" data-name="Path 21418" d="M174.367,375.47c0,4.633-36.387,8.379-81.29,8.379S11.825,380.1,11.825,375.47s36.387-8.387,81.253-8.387S174.367,370.837,174.367,375.47Z" transform="translate(-11.825 -367.082)" fill="#dbdbdb"/>
      </g>
      <g id="Floor" transform="translate(3.298 152.544)">
        <path id="Path_21419" data-name="Path 21419" d="M7.459,346.235l20.8-.1,20.8-.037,41.6-.066,41.6.066,20.8.037,20.8.1-20.8.1-20.8.037-41.6.066-41.6-.066-20.8-.037Z" transform="translate(-7.459 -346.033)" fill="#263238"/>
      </g>
      <g id="Device" transform="translate(44.75 7.911)">
        <path id="Path_21420" data-name="Path 21420" d="M178.085,17.891h-69.44a7.078,7.078,0,0,0-7.024,7.134V167.54a7.083,7.083,0,0,0,7.024,7.134h69.44a7.091,7.091,0,0,0,7.032-7.134V25.025a7.087,7.087,0,0,0-7.032-7.134Zm2.645,145.247a6.551,6.551,0,0,1-6.293,6.786H112.309a6.552,6.552,0,0,1-6.3-6.786V30.426c0-7.642,2.818-8.014,6.3-8.014h12.446c.723,0,1.314.819,1.314,1.835v.438c0,2.379,1.306,2.388,2.908,2.388h28.777c1.618,0,2.916,0,2.916-2.388v-.438c0-1.016.583-1.835,1.318-1.835h12.441c3.475,0,6.293,1.016,6.293,8.014Z" transform="translate(-101.621 -17.891)" fill="#2980b9"/>
        <line id="Line_46" data-name="Line 46" x1="0.234" transform="translate(4.157 136.776)" fill="none"/>
        <path id="Path_21421" data-name="Path 21421" d="M186.265,36.159V168.845a6.55,6.55,0,0,1-6.293,6.785H117.843a6.552,6.552,0,0,1-6.3-6.785V36.159c0-7.64,2.818-8.013,6.3-8.013h12.446c.723,0,1.314.819,1.314,1.834v.438c0,2.379,1.306,2.387,2.908,2.387h28.777c1.618,0,2.916,0,2.916-2.387V29.98c0-1.015.583-1.834,1.318-1.834h12.441C183.439,28.146,186.265,29.161,186.265,36.159Z" transform="translate(-107.155 -23.611)" fill="#fff"/>
        <path id="Path_21422" data-name="Path 21422" d="M186.265,36.159V168.845a6.55,6.55,0,0,1-6.293,6.785H117.843a6.552,6.552,0,0,1-6.3-6.785V36.159c0-7.64,2.818-8.013,6.3-8.013h12.446c.723,0,1.314.819,1.314,1.834v.438c0,2.379,1.306,2.387,2.908,2.387h28.777c1.618,0,2.916,0,2.916-2.387V29.98c0-1.015.583-1.834,1.318-1.834h12.441C183.439,28.146,186.265,29.161,186.265,36.159Z" transform="translate(-107.155 -23.611)" fill="#f6f6f6"/>
        <path id="Path_21423" data-name="Path 21423" d="M186.265,36.184v11.85H111.542V36.184c0-7.664,2.818-8.038,6.3-8.038h12.446c.723,0,1.314.821,1.314,1.84v.439c0,2.386,1.306,2.395,2.908,2.395h28.777c1.618,0,2.916,0,2.916-2.395v-.439c0-1.019.583-1.84,1.318-1.84h12.441C183.439,28.146,186.265,29.164,186.265,36.184Z" transform="translate(-107.155 -23.611)" fill="#334756"/>
        <g id="u5Zjqx" transform="translate(18.295 6.979)">
          <path id="Path_21424" data-name="Path 21424" d="M145.685,34.219l-.119.119c-.025.021-.045.045-.07.07a1.643,1.643,0,0,0-2.317,0l-.066-.07-.119-.119h0c.049-.045.1-.09.152-.131a1.75,1.75,0,0,1,.349-.226,1.7,1.7,0,0,1,.468-.156.559.559,0,0,0,.23-.033h.366a1.959,1.959,0,0,1,.411.1,1.914,1.914,0,0,1,.563.329l.127.115Z" transform="translate(-142.995 -33.673)" fill="#fff"/>
          <path id="Path_21425" data-name="Path 21425" d="M144.038,35.452l-.189-.189a1.331,1.331,0,0,1,.772-.411,1.36,1.36,0,0,1,1.162.386l-.189.189a1.088,1.088,0,0,0-.78-.32A1.076,1.076,0,0,0,144.038,35.452Z" transform="translate(-143.471 -34.323)" fill="#fff"/>
          <path id="Path_21426" data-name="Path 21426" d="M145.848,36.289l-.189.189a.555.555,0,0,0-.411-.168.575.575,0,0,0-.411.168l-.189-.189a.822.822,0,0,1,1.2,0Z" transform="translate(-143.917 -34.987)" fill="#fff"/>
          <path id="Path_21427" data-name="Path 21427" d="M146.021,37.213a.16.16,0,1,1-.173-.168.172.172,0,0,1,.173.168Z" transform="translate(-144.505 -35.553)" fill="#fff"/>
        </g>
        <path id="Path_21428" data-name="Path 21428" d="M122.615,35.1a.493.493,0,1,1,.143.351.5.5,0,0,1-.143-.351Z" transform="translate(-113.332 -27.212)" fill="#fff"/>
        <path id="Path_21429" data-name="Path 21429" d="M126.1,35.1a.493.493,0,1,1,.143.351.5.5,0,0,1-.143-.351Z" transform="translate(-115.275 -27.212)" fill="#fff"/>
        <path id="Path_21430" data-name="Path 21430" d="M129.619,35.1a.5.5,0,1,1,.5.5A.5.5,0,0,1,129.619,35.1Z" transform="translate(-117.238 -27.212)" fill="#fff"/>
        <path id="Path_21431" data-name="Path 21431" d="M133.148,35.1a.5.5,0,1,1,.5.5A.5.5,0,0,1,133.148,35.1Z" transform="translate(-119.207 -27.212)" fill="#fff"/>
        <path id="Path_21432" data-name="Path 21432" d="M136.678,35.1a.493.493,0,1,1,.143.351A.5.5,0,0,1,136.678,35.1Z" transform="translate(-121.176 -27.212)" fill="#fff"/>
        <path id="Path_21433" data-name="Path 21433" d="M262.756,35.816h-4.029V33.951h4.029Zm-3.824-.205h3.619V34.157h-3.631Z" transform="translate(-189.257 -26.85)" fill="#fff"/>
        <rect id="Rectangle_130" data-name="Rectangle 130" width="2.6" height="1.232" transform="translate(69.802 7.418)" fill="#fff"/>
        <rect id="Rectangle_131" data-name="Rectangle 131" width="0.357" height="0.998" transform="translate(73.503 7.537)" fill="#fff"/>
        <path id="Path_21434" data-name="Path 21434" d="M124.165,57.994l-2.21-2.07,2.21-2.066.341.361-1.815,1.7,1.815,1.7Z" transform="translate(-112.964 -37.954)" fill="#fff"/>
        <path id="Path_21435" data-name="Path 21435" d="M264.7,53.858l2.21,2.066-2.21,2.07-.341-.366,1.815-1.7-1.815-1.7Z" transform="translate(-192.397 -37.954)" fill="#fff"/>
        <path id="Path_21436" data-name="Path 21436" d="M171.382,56.665a1.355,1.355,0,0,1,1.355-1.331,1.372,1.372,0,0,1,.854.288.214.214,0,0,1-.259.337.9.9,0,0,0-.6-.205,1,1,0,0,0-.665.267.928.928,0,0,0-.267.645.912.912,0,0,0,.267.645.994.994,0,0,0,.665.263.932.932,0,0,0,.6-.2.222.222,0,0,1,.3.041.214.214,0,0,1-.037.3,1.372,1.372,0,0,1-.854.288A1.351,1.351,0,0,1,171.382,56.665Z" transform="translate(-140.535 -38.777)" fill="#fff"/>
        <path id="Path_21437" data-name="Path 21437" d="M179.084,57.475h-.9l-.181.481a.209.209,0,0,1-.193.131.193.193,0,0,1-.07,0,.209.209,0,0,1-.123-.267l.821-2.177a.218.218,0,0,1,.411,0l.821,2.177a.205.205,0,0,1-.119.267.193.193,0,0,1-.07,0,.2.2,0,0,1-.189-.131Zm-.152-.411-.3-.793-.288.8Z" transform="translate(-144.006 -38.869)" fill="#fff"/>
        <path id="Path_21438" data-name="Path 21438" d="M183.851,55.912h-.587v1.972a.205.205,0,1,1-.411,0V55.912h-.583a.21.21,0,0,1-.205-.209.2.2,0,0,1,.205-.2h1.577a.2.2,0,0,1,.205.2A.214.214,0,0,1,183.851,55.912Z" transform="translate(-146.494 -38.871)" fill="#fff"/>
        <path id="Path_21439" data-name="Path 21439" d="M188.271,57.5h-.9l-.181.481a.209.209,0,0,1-.193.131.193.193,0,0,1-.07,0,.209.209,0,0,1-.123-.267l.821-2.177a.205.205,0,0,1,.2-.127.2.2,0,0,1,.2.127l.822,2.177a.209.209,0,0,1-.123.267.193.193,0,0,1-.07,0,.2.2,0,0,1-.189-.131Zm-.152-.411-.3-.793-.3.793Z" transform="translate(-149.131 -38.891)" fill="#fff"/>
        <path id="Path_21440" data-name="Path 21440" d="M192.551,57.884V55.7a.2.2,0,0,1,.2-.2.205.205,0,0,1,.209.2v1.976h1a.205.205,0,0,1,0,.411h-1.212a.2.2,0,0,1-.2-.205Z" transform="translate(-152.343 -38.871)" fill="#fff"/>
        <path id="Path_21441" data-name="Path 21441" d="M198.857,55.708a1.36,1.36,0,0,1,0,1.873,1.232,1.232,0,0,1-.883.411,1.253,1.253,0,0,1-.9-.411,1.384,1.384,0,0,1,0-1.873,1.232,1.232,0,0,1,.9-.411,1.2,1.2,0,0,1,.883.411Zm-.045.936a.986.986,0,0,0-.251-.649.821.821,0,0,0-1.187,0,.965.965,0,0,0-.251.649.945.945,0,0,0,.251.645.821.821,0,0,0,1.187,0,.965.965,0,0,0,.234-.645Z" transform="translate(-154.661 -38.757)" fill="#fff"/>
        <path id="Path_21442" data-name="Path 21442" d="M203.773,56.669a1.347,1.347,0,0,1,1.364-1.335,1.372,1.372,0,0,1,.842.288.211.211,0,1,1-.259.333.953.953,0,0,0-.583-.2.92.92,0,0,0-.665.271.875.875,0,0,0,0,1.282.916.916,0,0,0,.665.267,1,1,0,0,0,.505-.14v-.505h-.53a.214.214,0,0,1-.209-.214.205.205,0,0,1,.209-.205h.735a.209.209,0,0,1,.218.205v.821a.311.311,0,0,1,0,.066h0a.2.2,0,0,1-.07.09,1.368,1.368,0,0,1-.821.288,1.343,1.343,0,0,1-1.4-1.31Z" transform="translate(-158.603 -38.777)" fill="#fff"/>
        <path id="Path_21443" data-name="Path 21443" d="M211.909,58.089a1.064,1.064,0,0,1-1.068-1.068V55.7a.2.2,0,0,1,.2-.2.205.205,0,0,1,.209.2v1.318a.657.657,0,0,0,1.314,0V55.7a.205.205,0,0,1,.209-.2.2.2,0,0,1,.2.2v1.318A1.068,1.068,0,0,1,211.909,58.089Z" transform="translate(-162.546 -38.871)" fill="#fff"/>
        <path id="Path_21444" data-name="Path 21444" d="M217.223,57.884V55.7a.2.2,0,0,1,.2-.2h1.208a.2.2,0,0,1,.205.2.209.209,0,0,1-.205.209h-1v.674h.858a.209.209,0,0,1,.205.205.205.205,0,0,1-.205.205h-.858v.682h1a.205.205,0,0,1,0,.411h-1.208a.2.2,0,0,1-.2-.205Z" transform="translate(-166.106 -38.871)" fill="#fff"/>
        <path id="Path_21445" data-name="Path 21445" d="M194.4,30.75h-7.849a.485.485,0,0,1-.485-.485h0a.485.485,0,0,1,.485-.485H194.4a.485.485,0,0,1,.485.485h0a.485.485,0,0,1-.485.485Z" transform="translate(-148.727 -24.523)" fill="#fff"/>
        <rect id="Rectangle_132" data-name="Rectangle 132" width="27.713" height="22.447" transform="translate(11.131 129.571)" fill="#dbdbdb"/>
        <rect id="Rectangle_133" data-name="Rectangle 133" width="27.713" height="22.447" transform="translate(44.652 129.571)" fill="#ebebeb"/>
        <rect id="Rectangle_134" data-name="Rectangle 134" width="27.713" height="27.713" transform="translate(11.131 88.197)" fill="#dbdbdb"/>
        <rect id="Rectangle_135" data-name="Rectangle 135" width="27.713" height="27.713" transform="translate(44.652 88.197)" fill="#dbdbdb"/>
        <rect id="Rectangle_136" data-name="Rectangle 136" width="27.713" height="27.713" transform="translate(44.652 46.824)" fill="#dbdbdb"/>
        <rect id="Rectangle_137" data-name="Rectangle 137" width="27.713" height="27.713" transform="translate(11.131 46.824)" fill="#dbdbdb"/>
        <rect id="Rectangle_138" data-name="Rectangle 138" width="3.031" height="3.031" transform="translate(11.136 77.146)" fill="#2980b9"/>
        <rect id="Rectangle_139" data-name="Rectangle 139" width="3.031" height="3.031" transform="translate(15.37 77.146)" fill="#334756"/>
        <rect id="Rectangle_140" data-name="Rectangle 140" width="3.031" height="3.031" transform="translate(19.605 77.146)" fill="#2c394b"/>
        <rect id="Rectangle_141" data-name="Rectangle 141" width="3.031" height="3.031" transform="translate(23.84 77.146)" fill="#263238"/>
        <rect id="Rectangle_142" data-name="Rectangle 142" width="3.031" height="3.031" transform="translate(44.652 77.146)" fill="#2980b9"/>
        <rect id="Rectangle_143" data-name="Rectangle 143" width="3.031" height="3.031" transform="translate(48.887 77.146)" fill="#334756"/>
        <rect id="Rectangle_144" data-name="Rectangle 144" width="3.031" height="3.031" transform="translate(53.122 77.146)" fill="#2c394b"/>
        <rect id="Rectangle_145" data-name="Rectangle 145" width="3.031" height="3.031" transform="translate(57.356 77.146)" fill="#263238"/>
        <path id="Path_21446" data-name="Path 21446" d="M128.351,204.553a.156.156,0,0,1,.156.156v.082a1.269,1.269,0,0,1,.575.205.2.2,0,0,1,.111.177.2.2,0,0,1-.205.2.193.193,0,0,1-.111-.033,1.358,1.358,0,0,0-.382-.16v.706c.563.144.821.37.821.764a.761.761,0,0,1-.789.719v.222a.156.156,0,0,1-.156.16.16.16,0,0,1-.164-.16v-.226a1.643,1.643,0,0,1-.756-.292.2.2,0,0,1,.1-.378.193.193,0,0,1,.123.041,1.318,1.318,0,0,0,.546.246v-.727c-.542-.144-.793-.345-.793-.764a.743.743,0,0,1,.776-.707v-.078A.16.16,0,0,1,128.351,204.553Zm-.148,1.261v-.657c-.238.025-.357.148-.357.312s.07.251.357.345Zm.292.513V207c.234-.029.366-.148.366-.324S128.779,206.414,128.5,206.327Z" transform="translate(-115.971 -122.264)" fill="#263238"/>
        <path id="Path_21447" data-name="Path 21447" d="M134.092,206.092a.9.9,0,0,1,.271.645.916.916,0,0,1-1.569.653.209.209,0,0,1,.3-.3.493.493,0,0,0,.349.144.5.5,0,0,0,.505-.5.481.481,0,0,0-.148-.349.51.51,0,0,0-.353-.148.193.193,0,0,1-.152-.066h0a.209.209,0,0,1,0-.3l.378-.386h-.6a.209.209,0,0,1,0-.419h1.088a.209.209,0,0,1,.214.209.2.2,0,0,1-.029.1.155.155,0,0,1-.037.053l-.464.481A.866.866,0,0,1,134.092,206.092Z" transform="translate(-118.98 -122.554)" fill="#263238"/>
        <path id="Path_21448" data-name="Path 21448" d="M137.691,206.045a.9.9,0,0,1,1.791-.09h0v.214a2.107,2.107,0,0,1-.131.756,1.265,1.265,0,0,1-.476.633,1.08,1.08,0,0,1-.554.177.205.205,0,0,1-.214-.2.209.209,0,0,1,.2-.214.674.674,0,0,0,.349-.107.8.8,0,0,0,.234-.259.667.667,0,0,0,.045-.095.85.85,0,0,1-.353.074A.9.9,0,0,1,137.691,206.045Zm.411,0a.489.489,0,1,0,.487-.444.489.489,0,0,0-.487.444Z" transform="translate(-121.741 -122.609)" fill="#263238"/>
        <path id="Path_21449" data-name="Path 21449" d="M143.381,209.745a.275.275,0,1,1-.275.275A.275.275,0,0,1,143.381,209.745Z" transform="translate(-124.762 -125.163)" fill="#263238"/>
        <path id="Path_21450" data-name="Path 21450" d="M144.908,206.045a.9.9,0,0,1,1.791-.09h0v.214a2.2,2.2,0,0,1-.127.756,1.314,1.314,0,0,1-.476.633,1.08,1.08,0,0,1-.555.177.205.205,0,0,1,0-.411.674.674,0,0,0,.349-.107.747.747,0,0,0,.23-.259.681.681,0,0,0,.021-.09.85.85,0,0,1-.353.074A.9.9,0,0,1,144.908,206.045Zm.411,0a.489.489,0,1,0,.487-.444.489.489,0,0,0-.487.444Z" transform="translate(-125.767 -122.609)" fill="#263238"/>
        <path id="Path_21451" data-name="Path 21451" d="M150.268,206.009a.9.9,0,0,1,1.787-.09h0v.214a2.2,2.2,0,0,1-.127.756,1.3,1.3,0,0,1-.481.633,1.056,1.056,0,0,1-.555.177.21.21,0,0,1-.214-.2.214.214,0,0,1,.2-.214.649.649,0,0,0,.345-.107.719.719,0,0,0,.234-.259.685.685,0,0,0,.049-.094.855.855,0,0,1-.357.074A.9.9,0,0,1,150.268,206.009Zm.411,0a.485.485,0,1,0,.485-.485A.485.485,0,0,0,150.679,206.009Z" transform="translate(-128.757 -122.573)" fill="#263238"/>
        <path id="Path_21452" data-name="Path 21452" d="M204.133,204.553a.156.156,0,0,1,.156.156v.082a1.269,1.269,0,0,1,.575.205.2.2,0,0,1,.111.177.2.2,0,0,1-.205.2.193.193,0,0,1-.111-.033,1.36,1.36,0,0,0-.382-.16v.706c.563.144.8.37.8.764a.761.761,0,0,1-.789.719v.222a.156.156,0,0,1-.156.16.16.16,0,0,1-.164-.16v-.226a1.61,1.61,0,0,1-.756-.292.2.2,0,0,1,.1-.378.177.177,0,0,1,.119.041,1.355,1.355,0,0,0,.55.246v-.727c-.542-.144-.793-.345-.793-.764a.743.743,0,0,1,.776-.706v-.078A.16.16,0,0,1,204.133,204.553Zm-.148,1.261v-.657c-.238.025-.357.148-.357.312S203.7,205.719,203.985,205.814Zm.292.513V207c.234-.029.366-.148.366-.324S204.56,206.413,204.277,206.327Z" transform="translate(-158.232 -122.264)" fill="#263238"/>
        <path id="Path_21453" data-name="Path 21453" d="M210.356,207.068a.2.2,0,0,1-.205.2h-.037v.283a.2.2,0,0,1-.205.2.2.2,0,0,1-.2-.2v-.283h-1.167a.173.173,0,0,1-.123-.041.2.2,0,0,1-.033-.288l1.368-1.7h.185v.045h0a.045.045,0,0,1,0,.025h0v1.5h.037a.23.23,0,1,1,.382.255Zm-.649-1.117-.735.912h.735Z" transform="translate(-161.149 -122.647)" fill="#263238"/>
        <path id="Path_21454" data-name="Path 21454" d="M213.907,206.045a.9.9,0,0,1,1.791-.09h0v.214a2.107,2.107,0,0,1-.131.756,1.265,1.265,0,0,1-.476.633,1.08,1.08,0,0,1-.554.177.205.205,0,0,1-.214-.2.209.209,0,0,1,.2-.214.661.661,0,0,0,.349-.107.8.8,0,0,0,.234-.259.668.668,0,0,0,.045-.095.821.821,0,0,1-.353.074A.9.9,0,0,1,213.907,206.045Zm.411,0a.489.489,0,1,0,.487-.444.489.489,0,0,0-.487.444Z" transform="translate(-164.256 -122.609)" fill="#263238"/>
        <path id="Path_21455" data-name="Path 21455" d="M219.6,209.745a.275.275,0,1,1-.275.275A.275.275,0,0,1,219.6,209.745Z" transform="translate(-167.277 -125.163)" fill="#263238"/>
        <path id="Path_21456" data-name="Path 21456" d="M221.078,206.045a.9.9,0,0,1,1.791-.09h0v.214a2.2,2.2,0,0,1-.127.756,1.315,1.315,0,0,1-.476.633,1.08,1.08,0,0,1-.554.177.206.206,0,1,1-.016-.411.674.674,0,0,0,.349-.107.748.748,0,0,0,.23-.259.685.685,0,0,0,.049-.094.85.85,0,0,1-.353.074A.9.9,0,0,1,221.078,206.045Zm.411,0a.489.489,0,1,0,.487-.444.489.489,0,0,0-.487.444Z" transform="translate(-168.256 -122.609)" fill="#263238"/>
        <path id="Path_21457" data-name="Path 21457" d="M226.484,206.009a.9.9,0,0,1,1.787-.09h0v.214a2.2,2.2,0,0,1-.127.756,1.3,1.3,0,0,1-.481.633,1.056,1.056,0,0,1-.555.177.205.205,0,1,1,0-.411.674.674,0,0,0,.349-.107.748.748,0,0,0,.23-.259.688.688,0,0,0,.049-.094.855.855,0,0,1-.357.074.9.9,0,0,1-.9-.891Zm.411,0a.485.485,0,1,0,.485-.485A.485.485,0,0,0,226.895,206.009Z" transform="translate(-171.272 -122.573)" fill="#263238"/>
        <path id="Path_21458" data-name="Path 21458" d="M231.06,251.8c-.39.127-19.136-.07-19.4-.242s-.378-2.961-.411-6.091v-.238l11.669.021v.2s6.884,3.187,7.582,3.754S231.7,251.6,231.06,251.8Z" transform="translate(-162.774 -145.015)" fill="#bb328e"/>
        <path id="Path_21459" data-name="Path 21459" d="M232.414,258.231c-3.048-.115-15.35-.288-18.373-.168h0c3.019.181,15.321.255,18.373.2C232.476,258.28,232.476,258.231,232.414,258.231Z" transform="translate(-164.321 -152.155)" fill="#263238"/>
        <path id="Path_21460" data-name="Path 21460" d="M235.967,245.262a4.257,4.257,0,0,0-3.594.768c-.037.033,0,.086.049.074a16.945,16.945,0,0,1,3.536-.69.078.078,0,0,0,.008-.152Z" transform="translate(-174.548 -144.966)" fill="#263238"/>
        <path id="Path_21461" data-name="Path 21461" d="M237.89,246.469a4.256,4.256,0,0,0-3.594.768c-.037.033,0,.082.049.07a16.988,16.988,0,0,1,3.536-.686.078.078,0,0,0,.008-.152Z" transform="translate(-175.621 -145.641)" fill="#263238"/>
        <path id="Path_21462" data-name="Path 21462" d="M239.852,247.675a4.243,4.243,0,0,0-3.594.768c-.033.033,0,.082.049.07a16.763,16.763,0,0,1,3.541-.686.078.078,0,0,0,0-.152Z" transform="translate(-176.716 -146.314)" fill="#263238"/>
        <path id="Path_21463" data-name="Path 21463" d="M239.426,239.026c-.464-.653-1.347-.374-1.852.041a6.433,6.433,0,0,0-1.77,2.415l-.037.09a.207.207,0,0,1-.021.053h0v.025l-.041.123a.033.033,0,0,0,.029.045.2.2,0,0,0,.078.144.127.127,0,0,0,.111,0c.205-.074.411-.144.624-.209l.694-.238a5.751,5.751,0,0,0,1.643-.822C239.365,240.349,239.862,239.647,239.426,239.026Zm-.242.739c-.127.727-1.3,1.154-1.881,1.376-.382.148-.772.275-1.15.411h0l-.214.086-.078.033.049-.074h0l.025-.033a17.3,17.3,0,0,1,1.051-1.446,6.762,6.762,0,0,1,.645-.682C237.989,239.125,239.41,238.455,239.184,239.766Z" transform="translate(-176.414 -141.323)" fill="#263238"/>
        <path id="Path_21464" data-name="Path 21464" d="M230.853,242.613l-.053-.082a.254.254,0,0,0-.029-.041h0l-.025-.037c-.021-.029-.041-.062-.066-.09A6.42,6.42,0,0,0,228.4,240.4c-.587-.288-1.512-.357-1.811.386s.361,1.273.936,1.528a3.345,3.345,0,0,0,.337.127,8.123,8.123,0,0,0,2,.337c.275.025.55.045.822.078h0a.148.148,0,0,0,.148-.189.033.033,0,0,0,.025-.058Zm-.251-.074h-.062c-.222-.037-.44-.062-.661-.09l-.748-.09c-.612-.082-1.857-.226-2.144-.9-.526-1.232,1.015-.9,1.438-.67a6.6,6.6,0,0,1,.785.513,16.365,16.365,0,0,1,1.347,1.154l.062.053h0l.045.041Z" transform="translate(-171.286 -142.195)" fill="#263238"/>
        <rect id="Rectangle_146" data-name="Rectangle 146" width="3.031" height="3.031" transform="translate(11.136 118.543)" fill="#2980b9"/>
        <rect id="Rectangle_147" data-name="Rectangle 147" width="3.031" height="3.031" transform="translate(15.37 118.543)" fill="#334756"/>
        <rect id="Rectangle_148" data-name="Rectangle 148" width="3.031" height="3.031" transform="translate(19.605 118.543)" fill="#2c394b"/>
        <rect id="Rectangle_149" data-name="Rectangle 149" width="3.031" height="3.031" transform="translate(23.84 118.543)" fill="#263238"/>
        <rect id="Rectangle_150" data-name="Rectangle 150" width="3.031" height="3.031" transform="translate(44.652 118.543)" fill="#2980b9"/>
        <rect id="Rectangle_151" data-name="Rectangle 151" width="3.031" height="3.031" transform="translate(48.887 118.543)" fill="#334756"/>
        <rect id="Rectangle_152" data-name="Rectangle 152" width="3.031" height="3.031" transform="translate(53.122 118.543)" fill="#2c394b"/>
        <rect id="Rectangle_153" data-name="Rectangle 153" width="3.031" height="3.031" transform="translate(57.356 118.543)" fill="#263238"/>
        <path id="Path_21465" data-name="Path 21465" d="M128.354,298.455a.156.156,0,0,1,.156.156v.082a1.376,1.376,0,0,1,.575.205.2.2,0,0,1,.111.177.2.2,0,0,1-.205.2.193.193,0,0,1-.111-.033,1.359,1.359,0,0,0-.382-.16v.711c.563.14.821.366.821.76a.767.767,0,0,1-.789.723v.222a.156.156,0,0,1-.156.156.16.16,0,0,1-.164-.156v-.23a1.643,1.643,0,0,1-.756-.288.205.205,0,0,1-.1-.181.2.2,0,0,1,.205-.2.193.193,0,0,1,.123.041,1.318,1.318,0,0,0,.546.246v-.727c-.542-.14-.793-.345-.793-.764a.743.743,0,0,1,.776-.706v-.078A.16.16,0,0,1,128.354,298.455Zm-.148,1.261v-.657c-.238.025-.357.148-.357.312S127.919,299.622,128.206,299.716Zm.292.513v.674c.234-.029.366-.144.366-.324S128.781,300.316,128.5,300.23Z" transform="translate(-115.974 -174.77)" fill="#263238"/>
        <path id="Path_21466" data-name="Path 21466" d="M134.054,300a.922.922,0,1,1-1.31,1.3.209.209,0,1,1,.3-.3.493.493,0,0,0,.349.144.513.513,0,0,0,.357-.144.5.5,0,0,0,.148-.353.485.485,0,0,0-.148-.353.509.509,0,0,0-.353-.148.181.181,0,0,1-.152-.066h0a.209.209,0,0,1,0-.3l.378-.386h-.6a.209.209,0,1,1,0-.411h1.088a.209.209,0,0,1,.214.205.2.2,0,0,1-.029.1.156.156,0,0,1-.037.053l-.464.481A.865.865,0,0,1,134.054,300Z" transform="translate(-118.942 -175.064)" fill="#263238"/>
        <path id="Path_21467" data-name="Path 21467" d="M137.691,299.863a.9.9,0,0,1,1.791-.09h0v.21a2.108,2.108,0,0,1-.131.756,1.233,1.233,0,0,1-.476.633,1.044,1.044,0,0,1-.555.177.205.205,0,0,1-.214-.2.209.209,0,0,1,.2-.214.715.715,0,0,0,.349-.1.841.841,0,0,0,.234-.259,1.044,1.044,0,0,0,.045-.1.85.85,0,0,1-.353.074.9.9,0,0,1-.887-.887Zm.411,0a.489.489,0,1,0,.487-.444A.489.489,0,0,0,138.1,299.863Z" transform="translate(-121.741 -175.068)" fill="#263238"/>
        <path id="Path_21468" data-name="Path 21468" d="M143.381,303.648a.275.275,0,1,1-.275.275A.275.275,0,0,1,143.381,303.648Z" transform="translate(-124.762 -177.757)" fill="#263238"/>
        <path id="Path_21469" data-name="Path 21469" d="M144.908,299.863a.9.9,0,0,1,1.791-.09h0v.21a2.2,2.2,0,0,1-.127.756,1.3,1.3,0,0,1-.476.633,1.044,1.044,0,0,1-.555.177.209.209,0,0,1-.218-.2.214.214,0,0,1,.2-.214.714.714,0,0,0,.349-.1.785.785,0,0,0,.23-.259c.021-.033.033-.066.049-.1a.85.85,0,0,1-.353.074A.9.9,0,0,1,144.908,299.863Zm.411,0a.489.489,0,1,0,.489-.485.489.489,0,0,0-.489.485Z" transform="translate(-125.767 -175.068)" fill="#263238"/>
        <path id="Path_21470" data-name="Path 21470" d="M150.268,299.828a.9.9,0,0,1,1.787-.09h0v.21a2.2,2.2,0,0,1-.127.756,1.281,1.281,0,0,1-.481.633,1.023,1.023,0,0,1-.555.177.205.205,0,0,1-.214-.2.214.214,0,0,1,.2-.214.686.686,0,0,0,.345-.1.751.751,0,0,0,.234-.259c.021-.033.033-.066.049-.1a.854.854,0,0,1-.357.074.9.9,0,0,1-.883-.887Zm.411,0a.485.485,0,1,0,.485-.485A.485.485,0,0,0,150.679,299.828Z" transform="translate(-128.757 -175.032)" fill="#263238"/>
        <path id="Path_21471" data-name="Path 21471" d="M204.136,298.455a.156.156,0,0,1,.156.156v.082a1.375,1.375,0,0,1,.575.205.2.2,0,0,1,.111.177.2.2,0,0,1-.205.2.193.193,0,0,1-.111-.033,1.36,1.36,0,0,0-.382-.16v.711c.563.14.8.366.8.76a.767.767,0,0,1-.789.723v.222a.156.156,0,0,1-.156.156.16.16,0,0,1-.164-.156v-.23a1.606,1.606,0,0,1-.756-.288.206.206,0,0,1-.1-.181.2.2,0,0,1,.205-.2.177.177,0,0,1,.119.041,1.355,1.355,0,0,0,.55.246v-.727c-.542-.14-.793-.345-.793-.764a.744.744,0,0,1,.776-.706v-.078A.16.16,0,0,1,204.136,298.455Zm-.148,1.261v-.657c-.238.025-.357.148-.357.312S203.7,299.622,203.988,299.716Zm.292.513v.674c.234-.029.366-.144.366-.325S204.563,300.316,204.28,300.23Z" transform="translate(-158.235 -174.77)" fill="#263238"/>
        <path id="Path_21472" data-name="Path 21472" d="M209.9,300a.9.9,0,0,1,.267.649.915.915,0,0,1-1.565.649.209.209,0,0,1,.3-.3.493.493,0,0,0,.349.144A.522.522,0,0,0,209.6,301a.5.5,0,0,0,.148-.353.485.485,0,0,0-.148-.353.51.51,0,0,0-.353-.148.181.181,0,0,1-.152-.066h0a.214.214,0,0,1,0-.3l.374-.386h-.6a.209.209,0,1,1,0-.411h1.088a.205.205,0,0,1,.209.205.2.2,0,0,1-.025.1.156.156,0,0,1-.037.053l-.464.481A.865.865,0,0,1,209.9,300Z" transform="translate(-161.267 -175.064)" fill="#263238"/>
        <path id="Path_21473" data-name="Path 21473" d="M213.5,299.863a.9.9,0,0,1,1.791-.09h0v.21a2.2,2.2,0,0,1-.127.756,1.273,1.273,0,0,1-.476.633,1.044,1.044,0,0,1-.555.177.209.209,0,0,1-.218-.2.214.214,0,0,1,.2-.214.714.714,0,0,0,.349-.1.841.841,0,0,0,.234-.259,1.052,1.052,0,0,0,.045-.1.85.85,0,0,1-.353.074A.9.9,0,0,1,213.5,299.863Zm.411,0a.489.489,0,1,0,.487-.444A.489.489,0,0,0,213.909,299.863Z" transform="translate(-164.028 -175.068)" fill="#263238"/>
        <path id="Path_21474" data-name="Path 21474" d="M219.189,303.648a.275.275,0,1,1-.275.275A.275.275,0,0,1,219.189,303.648Z" transform="translate(-167.049 -177.757)" fill="#263238"/>
        <path id="Path_21475" data-name="Path 21475" d="M220.706,299.828a.9.9,0,0,1,1.787-.09h0v.21a2.2,2.2,0,0,1-.127.756,1.3,1.3,0,0,1-.476.633,1.044,1.044,0,0,1-.555.177.209.209,0,0,1-.218-.2.214.214,0,0,1,.2-.214.714.714,0,0,0,.349-.1.785.785,0,0,0,.23-.259c.021-.033.033-.066.049-.1a.854.854,0,0,1-.357.074.9.9,0,0,1-.883-.887Zm.411,0a.485.485,0,1,0,.485-.485A.485.485,0,0,0,221.117,299.828Z" transform="translate(-168.049 -175.032)" fill="#263238"/>
        <path id="Path_21476" data-name="Path 21476" d="M226.075,299.828a.9.9,0,0,1,1.787-.09h0v.21a2.2,2.2,0,0,1-.127.756,1.281,1.281,0,0,1-.481.633,1.023,1.023,0,0,1-.555.177.205.205,0,0,1-.214-.2.214.214,0,0,1,.2-.214.686.686,0,0,0,.345-.1.751.751,0,0,0,.234-.259c.021-.033.033-.066.049-.1a.854.854,0,0,1-.357.074.9.9,0,0,1-.883-.887Zm.411,0a.489.489,0,1,0,.489-.489.493.493,0,0,0-.489.489Z" transform="translate(-171.044 -175.032)" fill="#263238"/>
        <rect id="Rectangle_154" data-name="Rectangle 154" width="74.714" height="15.3" transform="translate(4.387 24.343)" fill="#db1032"/>
        <path id="Path_21477" data-name="Path 21477" d="M173.036,88.367a.32.32,0,0,1,.448-.045,2.025,2.025,0,0,0,1.179.476,1.322,1.322,0,0,0,.768-.23.55.55,0,0,0,.263-.444.353.353,0,0,0-.053-.2.6.6,0,0,0-.185-.185,2.464,2.464,0,0,0-.842-.288h0a3.447,3.447,0,0,1-.793-.242,1.306,1.306,0,0,1-.571-.481.928.928,0,0,1-.144-.505,1.138,1.138,0,0,1,.493-.9A1.824,1.824,0,0,1,174.662,85a2.419,2.419,0,0,1,1.347.493.316.316,0,0,1,.082.435.308.308,0,0,1-.435.094,1.8,1.8,0,0,0-.994-.411,1.162,1.162,0,0,0-.686.209.489.489,0,0,0-.238.386.316.316,0,0,0,.045.173.579.579,0,0,0,.168.16,2.111,2.111,0,0,0,.768.271h0a3.7,3.7,0,0,1,.85.259,1.4,1.4,0,0,1,.616.513,1.014,1.014,0,0,1,.148.522,1.2,1.2,0,0,1-.53.957,1.926,1.926,0,0,1-1.138.349,2.625,2.625,0,0,1-1.577-.616A.324.324,0,0,1,173.036,88.367Z" transform="translate(-141.425 -55.418)" fill="#fff"/>
        <path id="Path_21478" data-name="Path 21478" d="M182.705,89.254V85.619a.333.333,0,0,1,.337-.337.341.341,0,0,1,.349.337V87.1h1.594V85.619a.333.333,0,0,1,.337-.337.337.337,0,0,1,.345.337v3.635a.337.337,0,0,1-.345.341.333.333,0,0,1-.337-.341V87.775h-1.594v1.479a.341.341,0,0,1-.349.341.333.333,0,0,1-.337-.341Z" transform="translate(-146.851 -55.573)" fill="#fff"/>
        <path id="Path_21479" data-name="Path 21479" d="M195.325,85.661a2.259,2.259,0,0,1,0,3.118,2,2,0,0,1-1.47.661,2.082,2.082,0,0,1-1.512-.661,2.3,2.3,0,0,1,0-3.118A2.054,2.054,0,0,1,193.854,85,1.984,1.984,0,0,1,195.325,85.661Zm-.078,1.561a1.61,1.61,0,0,0-.411-1.08,1.335,1.335,0,0,0-1.972,0,1.573,1.573,0,0,0-.411,1.08,1.544,1.544,0,0,0,.411,1.072,1.318,1.318,0,0,0,1.972,0,1.581,1.581,0,0,0,.427-1.072Z" transform="translate(-151.888 -55.418)" fill="#fff"/>
        <path id="Path_21480" data-name="Path 21480" d="M204,89.254V85.619a.333.333,0,0,1,.341-.337h2.013a.341.341,0,0,1,.341.337.345.345,0,0,1-.341.345h-1.668v1.13h1.433a.349.349,0,0,1,.341.337.345.345,0,0,1-.341.345h-1.433v1.134h1.668a.345.345,0,0,1,0,.686h-2a.341.341,0,0,1-.357-.341Z" transform="translate(-158.732 -55.573)" fill="#fff"/>
        <path id="Path_21481" data-name="Path 21481" d="M211.89,88.367a.32.32,0,0,1,.448-.045,2.025,2.025,0,0,0,1.179.476,1.323,1.323,0,0,0,.768-.23.554.554,0,0,0,.267-.444.358.358,0,0,0-.057-.2.559.559,0,0,0-.185-.185,2.464,2.464,0,0,0-.842-.287h0a3.417,3.417,0,0,1-.8-.242,1.306,1.306,0,0,1-.571-.481.928.928,0,0,1-.144-.505,1.138,1.138,0,0,1,.493-.9A1.828,1.828,0,0,1,213.516,85a2.4,2.4,0,0,1,1.343.493.32.32,0,0,1-.353.53,1.782,1.782,0,0,0-.99-.411,1.167,1.167,0,0,0-.69.209.485.485,0,0,0-.234.386.316.316,0,0,0,.041.173.579.579,0,0,0,.168.16,2.112,2.112,0,0,0,.768.271h0a3.7,3.7,0,0,1,.85.259,1.4,1.4,0,0,1,.616.513.978.978,0,0,1,.148.522,1.2,1.2,0,0,1-.53.957,1.918,1.918,0,0,1-1.138.349,2.625,2.625,0,0,1-1.577-.616.324.324,0,0,1-.049-.431Z" transform="translate(-163.097 -55.418)" fill="#fff"/>
        <path id="Path_21482" data-name="Path 21482" d="M155.2,157.952c-.641.209-18.972.263-19.666-.181-.267-.168-.513-3.179-.238-6.3l11.813.1s6.765,3.191,7.476,3.762S155.84,157.742,155.2,157.952Z" transform="translate(-120.335 -92.584)" fill="#db1032"/>
        <path id="Path_21483" data-name="Path 21483" d="M155.717,161.57a.452.452,0,0,1-.271.411c-.641.209-18.972.263-19.67-.185a1.15,1.15,0,0,1-.156-.583h15.5a3.191,3.191,0,0,1,.863-1.807,2.756,2.756,0,0,1,1.717-.731,10.115,10.115,0,0,1,1.15.661,3.15,3.15,0,0,1,.9,1.877,1.371,1.371,0,0,1-.025.357Z" transform="translate(-120.586 -96.611)" fill="#fff"/>
        <path id="Path_21484" data-name="Path 21484" d="M156.5,164.311c-3.072-.094-15.469-.2-18.512-.062-.025,0-.025,0,0,.021,3.044.16,15.44.164,18.512.094C156.566,164.36,156.57,164.315,156.5,164.311Z" transform="translate(-121.899 -99.687)" fill="#263238"/>
        <path id="Path_21485" data-name="Path 21485" d="M173.2,158.682a2.465,2.465,0,0,0-1.844.739,2.407,2.407,0,0,0-.7,1.643h.037a2.846,2.846,0,0,1,2.506-2.333.025.025,0,1,0,0-.049Z" transform="translate(-140.131 -96.613)" fill="#263238"/>
        <path id="Path_21486" data-name="Path 21486" d="M159.995,152.4a4.328,4.328,0,0,0-3.43,1.4c-.029.041.025.082.062.062a17.2,17.2,0,0,1,3.389-1.306.078.078,0,0,0-.021-.152Z" transform="translate(-132.265 -93.101)" fill="#fff"/>
        <path id="Path_21487" data-name="Path 21487" d="M162.132,153.267a4.315,4.315,0,0,0-3.43,1.4c-.029.037.029.082.066.062a17.084,17.084,0,0,1,3.385-1.31.075.075,0,1,0-.021-.148Z" transform="translate(-133.457 -93.584)" fill="#fff"/>
        <path id="Path_21488" data-name="Path 21488" d="M164.277,154.1a4.318,4.318,0,0,0-3.43,1.4c-.029.037.025.078.062.062a16.962,16.962,0,0,1,3.389-1.31.078.078,0,0,0-.021-.152Z" transform="translate(-134.654 -94.052)" fill="#fff"/>
        <path id="Path_21489" data-name="Path 21489" d="M166.414,154.958a4.328,4.328,0,0,0-3.43,1.4c-.029.041.029.082.062.066a16.965,16.965,0,0,1,3.389-1.31.078.078,0,0,0-.021-.152Z" transform="translate(-135.846 -94.53)" fill="#fff"/>
        <path id="Path_21490" data-name="Path 21490" d="M138.525,156.557a1.073,1.073,0,0,0,0,2.144A1.073,1.073,0,0,0,138.525,156.557Z" transform="translate(-121.627 -95.425)" fill="#fff"/>
        <path id="Path_21491" data-name="Path 21491" d="M163.724,144.732c-.62-.522-1.409-.025-1.795.509a6.432,6.432,0,0,0-1.043,2.44c-.029.123-.049.246-.066.37v.156h0a.128.128,0,0,1,0,.041v.123c0,.041,0,.037.041.037a.152.152,0,0,0,.123.119.115.115,0,0,0,.094,0c.242-.164.5-.329.752-.493l.136-.086a6.7,6.7,0,0,0,1.68-1.4C164,146.034,164.307,145.22,163.724,144.732Zm-1.528,2.6c-.205.148-.411.288-.62.431s-.357.251-.53.382l-.062.045-.066.049.025-.07h0l.173-.481a10.709,10.709,0,0,1,.505-1.257,6.986,6.986,0,0,1,.452-.821c.271-.411,1.487-1.425,1.6-.086C163.737,146.251,162.7,146.966,162.2,147.332Z" transform="translate(-134.643 -88.692)" fill="#fff"/>
        <path id="Path_21492" data-name="Path 21492" d="M155.519,151.051a.033.033,0,0,0,0-.049l-.074-.066-.029-.025h0a1.071,1.071,0,0,0-.127-.111,5.014,5.014,0,0,0-.505-.374,6.255,6.255,0,0,0-2.222-.953c-.645-.131-1.561.037-1.664.821a.581.581,0,0,0,0,.082c-.037.706.706,1.072,1.306,1.167a6.043,6.043,0,0,0,1.9-.058c.444-.07.887-.156,1.318-.222h0a.152.152,0,0,0,.094-.214Zm-1.737.136c-.62.074-1.869.251-2.325-.337a.99.99,0,0,1-.226-.456c-.094-.624,1.064-.657,1.458-.563a6.944,6.944,0,0,1,.9.3c.218.086.411.181.641.288.349.168.694.353,1.039.534l.066.033h-.251C154.648,151.064,154.217,151.129,153.781,151.187Z" transform="translate(-129.108 -91.442)" fill="#fff"/>
        <path id="Path_21493" data-name="Path 21493" d="M155.2,251.91c-.641.21-18.972.263-19.666-.185-.267-.168-.513-3.179-.238-6.3l11.813.1s6.765,3.187,7.476,3.758S155.84,251.68,155.2,251.91Z" transform="translate(-120.335 -145.124)" fill="#082032"/>
        <path id="Path_21494" data-name="Path 21494" d="M156.5,258.217c-3.072-.1-15.469-.2-18.512-.066-.025,0-.025.021,0,.021,3.044.164,15.44.164,18.512.094C156.566,258.267,156.57,258.217,156.5,258.217Z" transform="translate(-121.899 -152.191)" fill="#fff"/>
        <path id="Path_21495" data-name="Path 21495" d="M173.2,252.594a2.464,2.464,0,0,0-1.844.735,2.407,2.407,0,0,0-.7,1.643c0,.021.037.021.037,0a2.875,2.875,0,0,1,2.506-2.333Z" transform="translate(-140.131 -149.123)" fill="#fff"/>
        <path id="Path_21496" data-name="Path 21496" d="M159.995,246.306a4.318,4.318,0,0,0-3.43,1.4c-.029.037.025.078.062.062a16.968,16.968,0,0,1,3.389-1.31.078.078,0,0,0-.021-.152Z" transform="translate(-132.265 -145.606)" fill="#fff"/>
        <path id="Path_21497" data-name="Path 21497" d="M162.132,247.16a4.328,4.328,0,0,0-3.43,1.4c-.029.041.029.082.066.062a17.068,17.068,0,0,1,3.385-1.306.078.078,0,0,0-.021-.152Z" transform="translate(-133.457 -146.084)" fill="#fff"/>
        <path id="Path_21498" data-name="Path 21498" d="M164.277,248.014a4.315,4.315,0,0,0-3.43,1.4c-.029.041.025.082.062.062a17.2,17.2,0,0,1,3.389-1.306.078.078,0,0,0-.021-.152Z" transform="translate(-134.654 -146.561)" fill="#fff"/>
        <path id="Path_21499" data-name="Path 21499" d="M166.414,248.86a4.318,4.318,0,0,0-3.43,1.4c-.029.037.029.078.062.062a16.966,16.966,0,0,1,3.389-1.31.078.078,0,0,0-.021-.152Z" transform="translate(-135.846 -147.034)" fill="#fff"/>
        <path id="Path_21500" data-name="Path 21500" d="M138.525,251.648a1.073,1.073,0,0,0,0,2.144A1.073,1.073,0,0,0,138.525,251.648Z" transform="translate(-121.627 -148.595)" fill="#fff"/>
        <path id="Path_21501" data-name="Path 21501" d="M163.724,238.635c-.62-.522-1.409-.021-1.795.509a6.478,6.478,0,0,0-1.043,2.444c-.029.123-.049.246-.066.366v.156h0v.168a.033.033,0,0,0,.041.033.152.152,0,0,0,.123.119.115.115,0,0,0,.094,0c.242-.164.5-.329.752-.493l.131-.082a6.646,6.646,0,0,0,1.684-1.409C164,239.937,164.307,239.128,163.724,238.635Zm-1.528,2.6-.608.435-.522.374-.07.053-.066.049.025-.074h0c.057-.16.115-.316.168-.476a11.91,11.91,0,0,1,.509-1.261,6.98,6.98,0,0,1,.452-.821c.271-.411,1.487-1.421,1.6-.082C163.737,240.155,162.7,240.874,162.2,241.235Z" transform="translate(-134.643 -141.199)" fill="#fff"/>
        <path id="Path_21502" data-name="Path 21502" d="M155.519,244.958a.033.033,0,0,0,0-.053l-.074-.062a.061.061,0,0,0-.029-.029h0a.793.793,0,0,0-.127-.111,4.331,4.331,0,0,0-.5-.37,6.42,6.42,0,0,0-2.23-.957c-.645-.131-1.561.037-1.663.822a.607.607,0,0,0,0,.086c-.033.7.706,1.068,1.306,1.167a6.221,6.221,0,0,0,1.91-.062c.439-.07.879-.156,1.31-.222h0a.148.148,0,0,0,.094-.21Zm-1.737.131c-.62.078-1.869.251-2.325-.333a.99.99,0,0,1-.226-.456c-.094-.624,1.064-.657,1.458-.563a6.914,6.914,0,0,1,.9.3c.222.086.435.185.649.292.349.168.686.353,1.031.53h0l.066.033h-.251C154.648,244.966,154.217,245.036,153.781,245.089Z" transform="translate(-129.107 -143.947)" fill="#fff"/>
        <path id="Path_21503" data-name="Path 21503" d="M231,153.988c-.641.209-18.972.267-19.666-.181-.267-.168-.513-6.309-.242-9.447l11.817.1a25.207,25.207,0,0,0,.222,3.233c1.179.559,6.621,3.146,7.254,3.656C231.091,151.934,231.646,153.779,231,153.988Z" transform="translate(-162.62 -88.614)" fill="#2980b9"/>
        <path id="Path_21504" data-name="Path 21504" d="M232.312,164.311c-3.072-.094-15.469-.2-18.512-.062-.025,0-.025.021,0,.021,3.044.164,15.44.164,18.512.094C232.374,164.36,232.374,164.315,232.312,164.311Z" transform="translate(-164.186 -99.687)" fill="#263238"/>
        <path id="Path_21505" data-name="Path 21505" d="M249.007,158.682a2.464,2.464,0,0,0-1.844.739,2.407,2.407,0,0,0-.7,1.643h.037a2.85,2.85,0,0,1,2.506-2.333.025.025,0,1,0,0-.049Z" transform="translate(-182.417 -96.613)" fill="#263238"/>
        <path id="Path_21506" data-name="Path 21506" d="M235.8,152.4a4.328,4.328,0,0,0-3.43,1.4c-.029.041.025.082.062.062a17.2,17.2,0,0,1,3.389-1.306.078.078,0,0,0-.021-.152Z" transform="translate(-174.552 -93.101)" fill="#263238"/>
        <path id="Path_21507" data-name="Path 21507" d="M237.939,153.267a4.315,4.315,0,0,0-3.43,1.4c-.029.041.029.082.066.062a17.068,17.068,0,0,1,3.384-1.306.078.078,0,0,0-.021-.152Z" transform="translate(-175.744 -93.584)" fill="#263238"/>
        <path id="Path_21508" data-name="Path 21508" d="M240.084,154.1a4.318,4.318,0,0,0-3.43,1.4c-.029.037.025.078.062.062a16.87,16.87,0,0,1,3.389-1.31.078.078,0,0,0-.021-.152Z" transform="translate(-176.94 -94.052)" fill="#263238"/>
        <path id="Path_21509" data-name="Path 21509" d="M242.221,154.958a4.318,4.318,0,0,0-3.43,1.4c-.029.037.025.078.062.062a16.964,16.964,0,0,1,3.389-1.31.078.078,0,0,0-.021-.152Z" transform="translate(-178.132 -94.53)" fill="#263238"/>
        <path id="Path_21510" data-name="Path 21510" d="M214.332,147a1.073,1.073,0,0,0,0,2.144A1.073,1.073,0,0,0,214.332,147Z" transform="translate(-163.913 -90.081)" fill="#263238"/>
        <path id="Path_21511" data-name="Path 21511" d="M239.527,144.732c-.616-.522-1.4-.025-1.791.509a5.485,5.485,0,0,0-.472.789,6.6,6.6,0,0,0-.633,2.021,1.063,1.063,0,0,0,0,.16.049.049,0,0,0,0,.041v.127a.033.033,0,0,0,.041.033.16.16,0,0,0,.123.119.115.115,0,0,0,.094,0c.242-.164.5-.329.752-.493l.136-.086a6.748,6.748,0,0,0,1.676-1.4C239.811,146.034,240.114,145.22,239.527,144.732Zm-1.524,2.6-.591.411c-.189.131-.378.263-.559.411l-.062.045-.066.049.025-.07h0c.177-.485.337-.978.55-1.45.037-.094.082-.189.127-.283a6.987,6.987,0,0,1,.452-.821c.271-.411,1.487-1.425,1.6-.086C239.544,146.251,238.508,146.97,238,147.332Z" transform="translate(-176.93 -88.692)" fill="#263238"/>
        <path id="Path_21512" data-name="Path 21512" d="M231.341,151.071a.037.037,0,0,0,0-.053l-.074-.066-.025-.025h0l-.123-.107a6.5,6.5,0,0,0-2.74-1.318c-.645-.131-1.561.037-1.643.822s.678,1.15,1.3,1.232a6.042,6.042,0,0,0,1.9-.057c.444-.07.887-.156,1.318-.222h0a.152.152,0,0,0,.082-.205Zm-1.742.131c-.616.078-1.865.251-2.321-.333-.821-1.064.76-1.138,1.232-1.023a6.935,6.935,0,0,1,.9.3,17.252,17.252,0,0,1,1.684.821h0l.062.033H230.9c-.431.078-.863.144-1.3.2Z" transform="translate(-171.409 -91.458)" fill="#263238"/>
        <path id="Path_21513" data-name="Path 21513" d="M155.2,341.879c-.641.21-18.972.263-19.666-.185-.267-.168-.513-6.3-.238-9.427l11.813.094a25.325,25.325,0,0,0,.222,3.237c1.179.555,6.621,3.142,7.254,3.652C155.286,339.825,155.84,341.669,155.2,341.879Z" transform="translate(-120.335 -193.721)" fill="#ff4c29"/>
        <path id="Path_21514" data-name="Path 21514" d="M156.5,352.177c-3.072-.1-15.469-.2-18.512-.062h0c3.044.164,15.44.168,18.512.095C156.566,352.226,156.57,352.177,156.5,352.177Z" transform="translate(-121.899 -204.755)" fill="#dbdbdb"/>
        <path id="Path_21515" data-name="Path 21515" d="M173.2,346.552a2.465,2.465,0,0,0-1.844.735,2.407,2.407,0,0,0-.7,1.643h.037A2.875,2.875,0,0,1,173.2,346.6Z" transform="translate(-140.131 -201.689)" fill="#dbdbdb"/>
        <path id="Path_21516" data-name="Path 21516" d="M158.439,334.564a4.315,4.315,0,0,0-3.7,0c-.041.025,0,.086.033.082a17.036,17.036,0,0,1,3.631.049.078.078,0,0,0,.033-.131Z" transform="translate(-131.243 -194.77)" fill="#dbdbdb"/>
        <path id="Path_21517" data-name="Path 21517" d="M158.718,336.781a4.257,4.257,0,0,0-3.7.021c-.041.025,0,.082.033.078a17.034,17.034,0,0,1,3.631.049.078.078,0,0,0,.033-.148Z" transform="translate(-131.399 -196.009)" fill="#dbdbdb"/>
        <path id="Path_21518" data-name="Path 21518" d="M158.987,338.992a4.257,4.257,0,0,0-3.7.021c-.041.025,0,.082.037.078a17.04,17.04,0,0,1,3.631.049.078.078,0,0,0,.029-.148Z" transform="translate(-131.549 -197.242)" fill="#dbdbdb"/>
        <path id="Path_21519" data-name="Path 21519" d="M140.767,332.6c.066.649.094,1.3.119,1.951s.033,1.3.037,1.955,0,1.3-.037,1.955-.053,1.3-.119,1.955c-.062-.653-.09-1.306-.115-1.955s-.033-1.3-.037-1.955,0-1.3.037-1.955S140.705,333.251,140.767,332.6Z" transform="translate(-123.372 -193.908)" fill="#dbdbdb"/>
        <path id="Path_21520" data-name="Path 21520" d="M231,336.334c-.641.21-18.972.263-19.666-.185-.267-.168-.513-10.679-.242-13.822l11.817.1s.078,7.558.222,7.628c1.179.555,6.621,3.142,7.254,3.652C231.091,334.281,231.646,336.125,231,336.334Z" transform="translate(-162.62 -188.177)" fill="#262626"/>
        <path id="Path_21521" data-name="Path 21521" d="M232.312,352.177c-3.072-.1-15.469-.2-18.512-.062h0c3.044.164,15.44.168,18.512.095C232.374,352.226,232.374,352.177,232.312,352.177Z" transform="translate(-164.186 -204.755)" fill="#db1032"/>
        <path id="Path_21522" data-name="Path 21522" d="M249.007,346.552a2.465,2.465,0,0,0-1.844.735,2.407,2.407,0,0,0-.7,1.643h.037a2.875,2.875,0,0,1,2.506-2.333Z" transform="translate(-182.417 -201.689)" fill="#db1032"/>
        <path id="Path_21523" data-name="Path 21523" d="M234.191,334.62a4.277,4.277,0,0,0-3.7-.086c-.041.025,0,.082.033.082a16.749,16.749,0,0,1,3.627.152.078.078,0,0,0,.037-.148Z" transform="translate(-173.499 -194.772)" fill="#fff"/>
        <path id="Path_21524" data-name="Path 21524" d="M234.392,336.84a4.277,4.277,0,0,0-3.7-.086c-.045.025,0,.082.029.082a16.787,16.787,0,0,1,3.631.152.078.078,0,0,0,.037-.148Z" transform="translate(-173.61 -196.01)" fill="#fff"/>
        <path id="Path_21525" data-name="Path 21525" d="M234.042,332.4a4.277,4.277,0,0,0-3.7-.086c-.041.025,0,.086.033.082a17.023,17.023,0,0,1,3.627.152.078.078,0,0,0,.037-.148Z" transform="translate(-173.416 -193.533)" fill="#fff"/>
        <path id="Path_21526" data-name="Path 21526" d="M233.8,330.179a4.277,4.277,0,0,0-3.7-.086c-.045.025,0,.086.029.082a17.053,17.053,0,0,1,3.631.152.078.078,0,0,0,.037-.148Z" transform="translate(-173.279 -192.295)" fill="#fff"/>
        <path id="Path_21527" data-name="Path 21527" d="M233.605,327.964a4.263,4.263,0,0,0-3.7-.09c-.041.025,0,.086.033.082a17.286,17.286,0,0,1,3.627.152.074.074,0,0,0,.037-.144Z" transform="translate(-173.172 -191.057)" fill="#fff"/>
        <path id="Path_21528" data-name="Path 21528" d="M233.4,325.746a4.263,4.263,0,0,0-3.7-.086c-.041.021,0,.082.033.082a16.747,16.747,0,0,1,3.627.152.078.078,0,0,0,.037-.148Z" transform="translate(-173.058 -189.821)" fill="#fff"/>
        <path id="Path_21529" data-name="Path 21529" d="M234.6,339.057a4.263,4.263,0,0,0-3.7-.086c-.045.021,0,.082.033.082a16.753,16.753,0,0,1,3.627.152.078.078,0,0,0,.037-.148Z" transform="translate(-173.725 -197.246)" fill="#fff"/>
        <path id="Path_21530" data-name="Path 21530" d="M216.559,322.374c.066,1.031.094,2.054.119,3.085s.025,2.054.037,3.085,0,2.054-.037,3.085-.053,2.054-.119,3.085c-.062-1.031-.09-2.054-.119-3.085s0-2.054-.033-3.085,0-2.054.037-3.085S216.5,323.405,216.559,322.374Z" transform="translate(-165.643 -188.203)" fill="#db1032"/>
      </g>
      <g id="Character" transform="translate(123.328 38.965)">
        <path id="Path_21531" data-name="Path 21531" d="M279.716,89.174l-.164.041a.1.1,0,0,1,.021-.041h.144Z" transform="translate(-279.552 -89.174)" fill="#263238"/>
        <path id="Path_21532" data-name="Path 21532" d="M308.747,134.328h0" transform="translate(-295.838 -114.362)" fill="none" stroke="#ff98b9" stroke-linecap="round" stroke-linejoin="round"/>
        <path id="Path_21533" data-name="Path 21533" d="M308.747,134.328h0" transform="translate(-295.838 -114.362)" fill="none" stroke="#ff98b9" stroke-linecap="round" stroke-linejoin="round"/>
        <path id="Path_21534" data-name="Path 21534" d="M290.522,357.466h-.074v-.053Z" transform="translate(-285.63 -238.802)" fill="#f7a9a0"/>
      </g>
    </g>
  </g>
</svg>
