<svg xmlns="http://www.w3.org/2000/svg" xmlns:xlink="http://www.w3.org/1999/xlink" width="140" height="126" viewBox="0 0 140 126">
  <defs>
    <clipPath id="clip-path">
      <rect id="Rectangle_83" data-name="Rectangle 83" width="140" height="126" fill="#fff"/>
    </clipPath>
  </defs>
  <g id="Mask_Group_16" data-name="Mask Group 16" clip-path="url(#clip-path)">
    <g id="analytics" transform="translate(7.004 0.085)">
      <rect id="Rectangle_86" data-name="Rectangle 86" width="21.355" height="59.793" transform="translate(0 23.49)" fill="#2980b9"/>
      <path id="Path_21153" data-name="Path 21153" d="M42.713,10.677H21.359V83.282H40.578a42.518,42.518,0,0,1,2.135-13.24V10.677Z" transform="translate(-0.004)" fill="#4c9dd2"/>
      <path id="Path_21154" data-name="Path 21154" d="M84.8,21.98a2.137,2.137,0,0,0-3.02,0L71.1,32.657l3.02,3.02,9.167-9.167,7.032,7.032a2.137,2.137,0,0,0,3.02,0l15.574-15.574v9.793h4.271V12.813h-.019a2.078,2.078,0,0,0-2.018-2.135H96.1v4.271h9.793L91.829,29.012Z" transform="translate(-0.004)" fill="#dbdbdb"/>
      <g id="Group_99" data-name="Group 99" transform="translate(2.131 93.96)">
        <rect id="Rectangle_87" data-name="Rectangle 87" width="34.167" height="4.271" fill="#dbdbdb"/>
        <rect id="Rectangle_88" data-name="Rectangle 88" width="34.167" height="4.271" transform="translate(0 8.542)" fill="#dbdbdb"/>
        <rect id="Rectangle_89" data-name="Rectangle 89" width="34.167" height="4.271" transform="translate(0 17.084)" fill="#dbdbdb"/>
      </g>
      <path id="Path_21155" data-name="Path 21155" d="M64.068,45.2V0H42.713V70.043A42.812,42.812,0,0,1,64.068,45.2Z" transform="translate(-0.004)" fill="#4aaae9"/>
      <path id="Path_21156" data-name="Path 21156" d="M85.422,40.638c-.7-.043-1.431-.064-2.135-.064s-1.431.021-2.135.064V83.282a2.136,2.136,0,0,0,2.135,2.135h42.645c.043-.7.064-1.431.064-2.135s-.021-1.431-.064-2.135A42.71,42.71,0,0,0,85.422,40.638Z" transform="translate(-0.004)" fill="#dbdbdb"/>
      <path id="Path_21157" data-name="Path 21157" d="M121.661,85.418H83.287a2.136,2.136,0,0,1-2.135-2.135V40.638a42.707,42.707,0,1,0,44.78,44.78h-4.271Z" transform="translate(-0.004)" fill="#2980b9"/>
    </g>
  </g>
</svg>
