<svg xmlns="http://www.w3.org/2000/svg" xmlns:xlink="http://www.w3.org/1999/xlink" width="140" height="126" viewBox="0 0 140 126">
  <defs>
    <clipPath id="clip-path">
      <rect id="Rectangle_82" data-name="Rectangle 82" width="140" height="126" fill="#fff"/>
    </clipPath>
  </defs>
  <g id="Mask_Group_15" data-name="Mask Group 15" clip-path="url(#clip-path)">
    <g id="vr-glasses" transform="translate(2.655 0)">
      <path id="Path_21126" data-name="Path 21126" d="M136.862,95.586a2.18,2.18,0,0,1-2.172,2.172H106.448a2.18,2.18,0,0,1-2.172-2.172V69.517a2.177,2.177,0,0,1,2.172-2.172H134.69a2.177,2.177,0,0,1,2.172,2.172Z" transform="translate(-2.172 -6.517)" fill="#2980b9"/>
      <path id="Path_21127" data-name="Path 21127" d="M34.759,95.586a2.18,2.18,0,0,1-2.172,2.172H4.345a2.18,2.18,0,0,1-2.172-2.172V73.862A2.177,2.177,0,0,1,4.345,71.69H32.586a2.177,2.177,0,0,1,2.172,2.172Z" transform="translate(-2.172 -6.517)" fill="#dbdbdb"/>
      <path id="Path_21128" data-name="Path 21128" d="M15.207,89.069,19.419,94.7l-2.04,3.063H8.69Z" transform="translate(-2.172 -6.517)" fill="#2980b9"/>
      <path id="Path_21129" data-name="Path 21129" d="M63,117.31l6.517-2.172,6.517,2.172,4.345-4.323,8.69-.022A13.029,13.029,0,0,1,102.1,126v6.517H36.931V126a13.042,13.042,0,0,1,13.034-13.034l8.69.022Z" transform="translate(-2.172 -6.517)" fill="#2980b9"/>
      <path id="Path_21131" data-name="Path 21131" d="M89.069,80.4h4.345v2.172a23.9,23.9,0,0,1-47.793-.022V80.4h4.345a4.358,4.358,0,0,0,4.345,4.345H84.724A4.359,4.359,0,0,0,89.069,80.4Z" transform="translate(-2.172 -6.517)" fill="#eac6bb"/>
      <path id="Path_21132" data-name="Path 21132" d="M43.448,69.517a2.177,2.177,0,0,1,2.172-2.172H93.414a2.177,2.177,0,0,1,2.172,2.172v8.711A2.18,2.18,0,0,1,93.414,80.4H45.621a2.18,2.18,0,0,1-2.172-2.172Z" transform="translate(-2.172 -6.517)" fill="#2980b9"/>
      <path id="Path_21134" data-name="Path 21134" d="M89.069,67.345V80.4a4.358,4.358,0,0,1-4.345,4.345H54.31A4.358,4.358,0,0,1,49.966,80.4V67.345A4.358,4.358,0,0,1,54.31,63H84.724a4.358,4.358,0,0,1,4.345,4.345Z" transform="translate(-2.172 -6.517)" fill="#2980b9"/>
      <path id="Path_21135" data-name="Path 21135" d="M80.379,112.966v.022l-4.345,4.323-6.517-2.172L63,117.31l-4.345-4.323v-9.148a23.915,23.915,0,0,0,21.724,0Z" transform="translate(-2.172 -6.517)" fill="#e4baad"/>
      <path id="Path_21136" data-name="Path 21136" d="M34.229,96.961l-8.16-12.237L19.419,94.7l-2.04,3.063H32.586A2.145,2.145,0,0,0,34.229,96.961Z" transform="translate(-2.172 -6.517)" fill="#2980b9"/>
      <path id="Path_21137" data-name="Path 21137" d="M93.414,67.345H89.069A4.358,4.358,0,0,0,84.724,63H54.31a4.358,4.358,0,0,0-4.345,4.345H45.621V63A19.552,19.552,0,0,1,65.172,43.448H82.552v8.69A10.852,10.852,0,0,1,93.414,63Z" transform="translate(-2.172 -6.517)" fill="#dbdbdb"/>
      <path id="Path_21138" data-name="Path 21138" d="M89.069,67.345h4.345V63A10.852,10.852,0,0,0,82.552,52.138v-8.69H76.034v8.69a6.518,6.518,0,0,0,6.517,6.517A4.348,4.348,0,0,1,86.9,63v.606A4.342,4.342,0,0,1,89.069,67.345Z" transform="translate(-2.172 -6.517)" fill="#dbdbdb"/>
      <path id="Path_21139" data-name="Path 21139" d="M104.276,73.862h32.586v23.9H104.276Z" transform="translate(-2.172 -6.517)" fill="#dbdbdb"/>
      <g id="Group_98" data-name="Group 98" transform="translate(69.517 2.172)">
        <path id="Path_21140" data-name="Path 21140" d="M108.621,39.1h10.862V49.966H108.621Z" transform="translate(-71.69 -8.69)" fill="#2980b9"/>
        <path id="Path_21141" data-name="Path 21141" d="M91.241,8.69h21.724V30.414H91.241Z" transform="translate(-71.69 -8.69)" fill="#dbdbdb"/>
        <path id="Path_21142" data-name="Path 21142" d="M71.69,17.379h8.69v8.69H71.69Z" transform="translate(-71.69 -8.69)" fill="#2c394b"/>
      </g>
      <path id="Path_21143" data-name="Path 21143" d="M44.489,26.047l-.041.022H30.414a4.345,4.345,0,0,1,0-8.69h7.908a19.232,19.232,0,0,1,6.167,8.668Z" transform="translate(-2.172 -6.517)" fill="#dbdbdb"/>
      <path id="Path_21144" data-name="Path 21144" d="M17.379,39.1a4.345,4.345,0,0,1,0,8.69H13.795A19.149,19.149,0,0,1,7.647,39.1Z" transform="translate(-2.172 -6.517)" fill="#dbdbdb"/>
      <path id="Path_21145" data-name="Path 21145" d="M30.414,17.379a4.345,4.345,0,0,0,0,8.69H44.448l.043-.022a19.139,19.139,0,0,1,1.13,6.539,19.525,19.525,0,0,1-31.8,15.207h3.563a4.345,4.345,0,0,0,0-8.69H7.647a18.942,18.942,0,0,1-1.13-6.517,19.525,19.525,0,0,1,31.8-15.207Z" transform="translate(-2.172 -6.517)" fill="#2980b9"/>
      <path id="Path_21146" data-name="Path 21146" d="M128.172,84.724H113.146a2.172,2.172,0,0,1,0-4.345h15.027a2.172,2.172,0,1,1,0,4.345Z" transform="translate(-2.172 -6.517)" fill="#334756"/>
      <path id="Path_21147" data-name="Path 21147" d="M121.655,91.241h-8.509a2.172,2.172,0,0,1,0-4.345h8.509a2.172,2.172,0,1,1,0,4.345Z" transform="translate(-2.172 -6.517)" fill="#334756"/>
      <path id="Path_21148" data-name="Path 21148" d="M10.927,82.552a2.172,2.172,0,0,1-.024-4.345h.024a2.172,2.172,0,0,1,0,4.345Z" transform="translate(-2.172 -6.517)" fill="#f6f6f6"/>
      <path id="Path_21149" data-name="Path 21149" d="M112.966,32.586H91.241a2.17,2.17,0,0,1-2.172-2.172V8.69a2.17,2.17,0,0,1,2.172-2.172h21.724a2.17,2.17,0,0,1,2.172,2.172V30.414A2.17,2.17,0,0,1,112.966,32.586ZM93.414,28.241h17.379V10.862H93.414Z" transform="translate(-2.172 -6.517)" fill="#2980b9"/>
      <path id="Path_21150" data-name="Path 21150" d="M119.483,52.138H108.621a2.17,2.17,0,0,1-2.172-2.172V39.1a2.17,2.17,0,0,1,2.172-2.172h10.862a2.17,2.17,0,0,1,2.172,2.172V49.966A2.17,2.17,0,0,1,119.483,52.138Zm-8.69-4.345h6.517V41.276h-6.517Z" transform="translate(-2.172 -6.517)" fill="#dbdbdb"/>
      <path id="Path_21151" data-name="Path 21151" d="M80.379,28.241H71.69a2.17,2.17,0,0,1-2.172-2.172v-8.69a2.17,2.17,0,0,1,2.172-2.172h8.69a2.17,2.17,0,0,1,2.172,2.172v8.69A2.17,2.17,0,0,1,80.379,28.241ZM73.862,23.9h4.345V19.552H73.862Z" transform="translate(-2.172 -6.517)" fill="#2980b9"/>
      <path id="Path_21152" data-name="Path 21152" d="M80.379,76.039H58.655a2.172,2.172,0,1,1,0-4.345H80.379a2.172,2.172,0,1,1,0,4.345Z" transform="translate(-2.172 -6.517)" fill="#334756"/>
    </g>
  </g>
</svg>
