<svg xmlns="http://www.w3.org/2000/svg" xmlns:xlink="http://www.w3.org/1999/xlink" width="175" height="175" viewBox="0 0 175 175">
  <defs>
    <clipPath id="clip-path">
      <rect id="Rectangle_3125" data-name="Rectangle 3125" width="175" height="175" transform="translate(-19224 -10510)" fill="#fff" stroke="#707070" stroke-width="1"/>
    </clipPath>
    <linearGradient id="linear-gradient" x1="0.5" x2="0.5" y2="1" gradientUnits="objectBoundingBox">
      <stop offset="0.09" stop-color="#6abf4b"/>
      <stop offset="0.29" stop-color="#63b649"/>
      <stop offset="0.6" stop-color="#529f44"/>
      <stop offset="0.86" stop-color="#3f873f"/>
    </linearGradient>
  </defs>
  <g id="Mask_Group_218" data-name="Mask Group 218" transform="translate(19224 10510)" clip-path="url(#clip-path)">
    <g id="Shadow" transform="translate(-19217.771 -10352.098)">
      <path id="Path_21418" data-name="Path 21418" d="M174.367,375.47c0,4.633-36.387,8.379-81.29,8.379S11.825,380.1,11.825,375.47s36.387-8.387,81.253-8.387S174.367,370.837,174.367,375.47Z" transform="translate(-11.825 -367.082)" fill="#dbdbdb"/>
    </g>
    <g id="Asset_1" data-name="Asset 1" transform="translate(-19224 -10499.997)">
      <g id="Layer_2" data-name="Layer 2" transform="translate(0 -0.003)">
        <g id="Layer_1" data-name="Layer 1">
          <path id="Path_21535" data-name="Path 21535" d="M67.588,1.5c11.887,18.755,41.178,35.468,41.178,35.468S85.482,35.084,73.925,20.027l4.19-3.47s-3.33.323-6.12.645A31.483,31.483,0,0,1,67.588,1.5Z" transform="translate(-41.852 -0.928)" fill="url(#linear-gradient)"/>
          <path id="Path_21536" data-name="Path 21536" d="M98.786,8.326c-1.808.82-4.485,2.07-4.485,2.07l2.576-3.7A30.023,30.023,0,0,0,87.3,1.786c-1.327,1.931-2.886,4.09-2.886,4.09L84.111.948A45.717,45.717,0,0,0,67.6.567c11.881,18.757,41.171,35.47,41.171,35.47C108.649,22.259,104.451,13.654,98.786,8.326Z" transform="translate(-41.863 0.003)" fill="url(#linear-gradient)"/>
          <path id="Path_21537" data-name="Path 21537" d="M56.127,64.718A27.589,27.589,0,0,1,66.617,61.1c1.039,1.185,2.313,2.579,2.313,2.579L69,60.89C82.249,60.258,93.416,68.6,93.416,68.6c-7.578,4.613-14.1,5.9-19.477,5.523-.339-.975-.821-2.429-.821-2.429l-.9,2.246a24.418,24.418,0,0,1-6.849-2.032c.477-1.166.978-2.5.978-2.5l-2.825,1.549A25.137,25.137,0,0,1,56.127,64.718Z" transform="translate(-34.756 -37.683)" fill="url(#linear-gradient)"/>
          <path id="Path_21538" data-name="Path 21538" d="M73.938,79.85c-.339-.975-.821-2.429-.821-2.429l-.9,2.246a24.418,24.418,0,0,1-6.849-2.032c.477-1.166.978-2.5.978-2.5l-2.825,1.549a25.123,25.123,0,0,1-7.395-6.242c15.414-1.769,37.288,3.881,37.288,3.881C85.838,78.939,79.313,80.231,73.938,79.85Z" transform="translate(-34.756 -43.408)" fill="url(#linear-gradient)"/>
          <path id="Path_21539" data-name="Path 21539" d="M396.911,57.319l-1.117,8.423,5.982-4.369,18.312-9.354-14.163,1.3s-7.216,1.753-7.605,2.106A17.6,17.6,0,0,0,396.911,57.319Z" transform="translate(-245.087 -32.211)" fill="#334756"/>
          <path id="Path_21540" data-name="Path 21540" d="M382.256,52.23l29.448-.215-23.176,5.3Z" transform="translate(-236.704 -32.209)" fill="#2c394b"/>
          <path id="Path_21541" data-name="Path 21541" d="M411.043,65.791l-7.716-6.2,21.425-7.576Z" transform="translate(-249.752 -32.209)" fill="#2c394b"/>
          <path id="Path_21542" data-name="Path 21542" d="M390.454,75.77a8.945,8.945,0,0,1,1.965-.517l-.056-.523a9.376,9.376,0,0,0-2.1.547Z" transform="translate(-241.666 -46.274)" fill="#2980b9"/>
          <path id="Path_21543" data-name="Path 21543" d="M342.018,127.032a33.139,33.139,0,0,0,3.41-1.978l.291.438a33.77,33.77,0,0,1-3.462,2.01Zm6.516-4.392a21.379,21.379,0,0,0,2.647-2.894l.419.316a21.784,21.784,0,0,1-2.711,2.965Zm4.675-6.242c.254-.542.5-1.106.706-1.677.237-.646.448-1.323.626-2.009l.508.127c-.182.7-.4,1.4-.635,2.059-.216.587-.458,1.166-.724,1.722Zm2.124-11.5.526-.011a33.925,33.925,0,0,1-.127,4l-.523-.05a33.713,33.713,0,0,0,.124-3.94Zm-.748-7.882.521-.075c.22,1.539.381,2.793.494,3.958l-.523.052c-.116-1.152-.273-2.4-.491-3.934Zm-.592-3.959a19.29,19.29,0,0,1-.2-3.991l.524.032a18.765,18.765,0,0,0,.194,3.881v.03l-.521.071Zm.661-7.942a9.552,9.552,0,0,1,2.285-3.355l.361.381a9.04,9.04,0,0,0-2.158,3.174Z" transform="translate(-211.787 -50.627)" fill="#2980b9"/>
          <path id="Path_21544" data-name="Path 21544" d="M327.537,206.121c.677-.235,1.345-.481,1.983-.733l-.193-.49c-.635.254-1.293.494-1.962.726Z" transform="translate(-202.715 -126.878)" fill="#2980b9"/>
          <path id="Path_21545" data-name="Path 21545" d="M189.842,39.744H129.725a8.107,8.107,0,0,0-8.107,8.1V170.715a8.108,8.108,0,0,0,8.106,8.107h60.119a8.107,8.107,0,0,0,8.107-8.107V47.846A8.108,8.108,0,0,0,189.842,39.744Z" transform="translate(-75.309 -24.61)" fill="#2980b9"/>
          <rect id="Rectangle_155" data-name="Rectangle 155" width="68.472" height="116.981" transform="translate(50.238 26.182)" fill="#f6f6f6"/>
          <path id="Path_21546" data-name="Path 21546" d="M165.3,247.95H105.836a3.719,3.719,0,0,0-3.719,3.719V276.21a3.719,3.719,0,0,0,3.719,3.719h46.818c1.894,2.643,5.333,7.378,5.632,7.378s-.262-4.472-.648-7.378H165.3a3.719,3.719,0,0,0,3.719-3.719V251.669A3.719,3.719,0,0,0,165.3,247.95Z" transform="translate(-63.234 -153.537)" fill="#334756" opacity="0.3"/>
          <path id="Path_21547" data-name="Path 21547" d="M214.959,101.934h-63.3a3.719,3.719,0,0,0-3.72,3.721v26.373a3.719,3.719,0,0,0,3.72,3.719h6.573c-.381,2.9-.881,7.068-.607,7.068s3.482-4.382,5.411-7.068h51.931a3.719,3.719,0,0,0,3.719-3.719V105.655a3.719,3.719,0,0,0-3.723-3.721Z" transform="translate(-91.605 -63.119)" fill="#334756" opacity="0.3"/>
          <rect id="Rectangle_156" data-name="Rectangle 156" width="29.3" height="1.465" rx="0.733" transform="translate(69.88 21.04)" fill="#dbdbdb"/>
          <path id="Path_21548" data-name="Path 21548" d="M158.853,231.234H99.387a3.719,3.719,0,0,0-3.719,3.719v24.538a3.719,3.719,0,0,0,3.719,3.72H146.2c1.894,2.643,5.333,7.378,5.634,7.378.283,0-.263-4.472-.649-7.378h7.664a3.719,3.719,0,0,0,3.719-3.72V234.953a3.719,3.719,0,0,0-3.719-3.719Z" transform="translate(-59.241 -143.186)" fill="#2980b9"/>
          <path id="Path_21549" data-name="Path 21549" d="M219.638,385.315a3.363,3.363,0,1,1-3.363-3.362A3.363,3.363,0,0,1,219.638,385.315Z" transform="translate(-131.841 -236.515)" fill="#dbdbdb" opacity="0.3"/>
          <path id="Path_21550" data-name="Path 21550" d="M220.47,389.908h-2a.4.4,0,0,1-.4-.4V387.5a.4.4,0,0,1,.4-.4h2a.4.4,0,0,1,.395.4V389.5a.4.4,0,0,1-.395.406Zm-2-2.693a.289.289,0,0,0-.289.289v2.006a.29.29,0,0,0,.289.29h2a.291.291,0,0,0,.291-.29V387.5a.291.291,0,0,0-.291-.29Z" transform="translate(-135.033 -239.701)" fill="#cfcfcf"/>
          <rect id="Rectangle_157" data-name="Rectangle 157" width="68.472" height="6.92" transform="translate(50.238 136.243)" fill="#dbdbdb"/>
          <rect id="Rectangle_158" data-name="Rectangle 158" width="68.472" height="6.208" transform="translate(50.238 26.182)" fill="#dbdbdb"/>
          <circle id="Ellipse_27" data-name="Ellipse 27" cx="9.323" cy="9.323" r="9.323" transform="matrix(0.383, -0.924, 0.924, 0.383, 37.01, 109.082)" fill="#dbdbdb"/>
          <path id="Path_21554" data-name="Path 21554" d="M116.126,263.16s-.924-3.793,1.279-5.215,4.554-1.746,6.162-.927a5.158,5.158,0,0,1,2.43,5.9l-5.913-1.486Z" transform="translate(-71.79 -158.878)" fill="#082032"/>
          <rect id="Rectangle_159" data-name="Rectangle 159" width="2.737" height="2.734" transform="translate(47.929 108.735)" fill="#f7c3cd"/>
          <path id="Path_21555" data-name="Path 21555" d="M128.6,287.2v-1.638h-2.732v1.4A4.018,4.018,0,0,0,128.6,287.2Z" transform="translate(-77.944 -176.829)" fill="#e39fad"/>
          <path id="Path_21556" data-name="Path 21556" d="M124.645,264.846a1.016,1.016,0,0,0-.918.037,4.874,4.874,0,0,0-9.749,0,1.016,1.016,0,0,0-.918-.037,1.416,1.416,0,0,0,1.224,2.477.887.887,0,0,0,.206-.141,4.394,4.394,0,0,0,8.725,0,.857.857,0,0,0,.206.141,1.416,1.416,0,0,0,1.224-2.477Z" transform="translate(-69.667 -161.004)" fill="#f7c3cd"/>
          <path id="Path_21557" data-name="Path 21557" d="M128.926,281.082a1.71,1.71,0,0,1-3.054.093Z" transform="translate(-77.944 -174.053)" fill="#eadcff"/>
          <path id="Path_21558" data-name="Path 21558" d="M116.091,263.606s3.582-1.086,5.15-2.9a10.76,10.76,0,0,1-.775,2.532c.105.07,3.579-1.62,4.05-3.174s-3.555-2.119-3.555-2.119-1.379.587-1.449.622-1.364.185-1.511.516c-.193.429-1.107.467-1.107.467l-.576,1.2-.4,1.261Z" transform="translate(-71.778 -159.728)" fill="#082032"/>
          <path id="Path_21559" data-name="Path 21559" d="M108.676,253.612a3.913,3.913,0,0,0,2.652.174c2.091-.642,2.92-.392,3.2-.235a.683.683,0,0,0,.55.071c.206-.069.4-.254.338-.726a3.8,3.8,0,0,0-1.62-3.118A9.345,9.345,0,0,0,108.676,253.612Z" transform="translate(-67.296 -154.669)" fill="#082032"/>
          <path id="Path_21560" data-name="Path 21560" d="M120.431,257.786h0a.175.175,0,0,1,.043-.254,4.908,4.908,0,0,1,2.326-.8.178.178,0,0,1,.187.178h0a.178.178,0,0,1-.169.176,4.626,4.626,0,0,0-2.15.745A.177.177,0,0,1,120.431,257.786Z" transform="translate(-74.552 -158.973)" fill="#2980b9"/>
          <path id="Path_21561" data-name="Path 21561" d="M222.908,83.52H159.6a3.719,3.719,0,0,0-3.719,3.719v26.375a3.719,3.719,0,0,0,3.719,3.719h6.575c-.381,2.9-.881,7.07-.607,7.07s3.482-4.382,5.41-7.07h51.931a3.719,3.719,0,0,0,3.719-3.719V87.239A3.72,3.72,0,0,0,222.908,83.52Z" transform="translate(-96.528 -51.717)" fill="#2c394b"/>
          <circle id="Ellipse_28" data-name="Ellipse 28" cx="9.323" cy="9.323" r="9.323" transform="matrix(0.87, -0.493, 0.493, 0.87, 58.905, 45.281)" fill="#f6f6f6"/>
          <rect id="Rectangle_160" data-name="Rectangle 160" width="2.737" height="2.734" transform="translate(70.35 53.502)" fill="#f7c3cd"/>
          <path id="Path_21562" data-name="Path 21562" d="M187.495,142.146v-1.638h-2.737v1.4A4.027,4.027,0,0,0,187.495,142.146Z" transform="translate(-114.407 -87.006)" fill="#e39fad"/>
          <path id="Path_21563" data-name="Path 21563" d="M183.543,119.789a1.016,1.016,0,0,0-.918.037,4.874,4.874,0,1,0-9.749,0,1.016,1.016,0,0,0-.918-.037,1.415,1.415,0,0,0,1.223,2.477.889.889,0,0,0,.206-.141,4.394,4.394,0,0,0,8.725,0,.858.858,0,0,0,.206.141,1.416,1.416,0,0,0,1.225-2.477Z" transform="translate(-106.139 -71.181)" fill="#f7c3cd"/>
          <path id="Path_21564" data-name="Path 21564" d="M175.521,109.977s1.374-1.163,4.5-.975,3.718,1.817,3.894,4.144l-.183,2.769a12.128,12.128,0,0,1-1.866-3.145s-1.748,1.962-2.51,1.729.288-1.651.288-1.651-3.563,3.066-5.66,3.061c0,0-1.111-3.587.448-4.9,0,0-1.174.056-1.237-.175s.56-.576,1.689-.446c0,0-.8-1.573-.356-1.737S175.521,109.977,175.521,109.977Z" transform="translate(-107.243 -67.27)" fill="#082032"/>
          <path id="Path_21565" data-name="Path 21565" d="M187.811,136.026a1.712,1.712,0,0,1-3.054.1Z" transform="translate(-114.407 -84.23)" fill="#eadcff"/>
          <rect id="Rectangle_161" data-name="Rectangle 161" width="37.108" height="1.62" rx="0.81" transform="translate(84.144 39.404)" fill="#f6f6f6"/>
          <rect id="Rectangle_162" data-name="Rectangle 162" width="8.763" height="1.62" rx="0.81" transform="translate(84.144 43.679)" fill="#f6f6f6"/>
          <rect id="Rectangle_163" data-name="Rectangle 163" width="25.037" height="1.62" rx="0.81" transform="translate(96.216 43.679)" fill="#f6f6f6"/>
          <path id="Path_21566" data-name="Path 21566" d="M221.757,125.937h17.63a.769.769,0,0,1,.769.769v.08a.769.769,0,0,1-.769.769h-17.63a.769.769,0,0,1-.769-.769v-.08a.771.771,0,0,1,.771-.771Z" transform="translate(-136.842 -77.982)" fill="#f6f6f6"/>
          <rect id="Rectangle_164" data-name="Rectangle 164" width="15.135" height="1.62" rx="0.81" transform="translate(106.119 47.955)" fill="#f6f6f6"/>
          <rect id="Rectangle_165" data-name="Rectangle 165" width="37.108" height="1.62" rx="0.81" transform="translate(84.144 52.23)" fill="#f6f6f6"/>
          <path id="Path_21567" data-name="Path 21567" d="M159.22,252.128h10.95a.771.771,0,0,1,.771.771v.08a.769.769,0,0,1-.769.769H159.22a.769.769,0,0,1-.769-.769v-.08a.769.769,0,0,1,.769-.769Z" transform="translate(-98.118 -156.124)" fill="#dbdbdb"/>
          <rect id="Rectangle_166" data-name="Rectangle 166" width="8.437" height="1.62" rx="0.81" transform="translate(60.332 100.279)" fill="#dbdbdb"/>
          <rect id="Rectangle_167" data-name="Rectangle 167" width="10.382" height="1.62" rx="0.81" transform="translate(70.224 100.279)" fill="#dbdbdb"/>
          <rect id="Rectangle_168" data-name="Rectangle 168" width="13.996" height="1.62" rx="0.81" transform="translate(82.062 100.279)" fill="#dbdbdb"/>
          <rect id="Rectangle_169" data-name="Rectangle 169" width="21.166" height="1.62" rx="0.81" transform="translate(74.893 96.004)" fill="#dbdbdb"/>
          <path id="Path_21568" data-name="Path 21568" d="M159.217,285.364H193.4a.769.769,0,0,1,.769.769v.08a.771.771,0,0,1-.771.771H159.217a.769.769,0,0,1-.769-.769v-.08a.769.769,0,0,1,.769-.771Z" transform="translate(-98.115 -176.705)" fill="#dbdbdb"/>
          <path id="Path_21569" data-name="Path 21569" d="M159.219,274.583h16.916a.769.769,0,0,1,.769.769v.08a.771.771,0,0,1-.771.771H159.22a.769.769,0,0,1-.769-.769v-.08A.769.769,0,0,1,159.219,274.583Z" transform="translate(-98.118 -170.029)" fill="#dbdbdb"/>
          <rect id="Rectangle_170" data-name="Rectangle 170" width="14.57" height="1.62" rx="0.81" transform="translate(81.488 104.554)" fill="#dbdbdb"/>
          <path id="Path_21570" data-name="Path 21570" d="M62.906,202.137a8.912,8.912,0,0,0-1.667-1.163l.232-.471a9.316,9.316,0,0,1,1.778,1.237Z" transform="translate(-37.921 -124.156)" fill="#2980b9"/>
          <path id="Path_21571" data-name="Path 21571" d="M56.334,260.128a33.792,33.792,0,0,1-2.557-3.082l.425-.31a33.1,33.1,0,0,0,2.517,3.033Zm-4.678-6.487a21.965,21.965,0,0,1-1.524-3.719l.508-.152a21.268,21.268,0,0,0,1.484,3.629Zm-2.293-7.666c-.056-.612-.085-1.241-.085-1.865,0-.706.037-1.431.109-2.158l.523.052c-.071.706-.107,1.413-.107,2.1,0,.609.028,1.22.084,1.817Zm1.26-7.835L50.115,238a33.92,33.92,0,0,1,1.261-3.8l.489.193a33.751,33.751,0,0,0-1.242,3.743Zm2.845-7.364-.472-.23c.508-1.049,1.092-2.175,1.83-3.542l.463.254c-.735,1.366-1.313,2.486-1.821,3.527ZM57.2,223.76l-.463-.246.014-.027a18.872,18.872,0,0,0,1.524-3.575l.508.15a19.354,19.354,0,0,1-1.566,3.682Zm1.609-7.684a9.035,9.035,0,0,0-.929-3.711l.471-.234a9.54,9.54,0,0,1,.984,3.936Z" transform="translate(-30.514 -131.356)" fill="#2980b9"/>
          <path id="Path_21572" data-name="Path 21572" d="M76.958,346.257c-.554-.455-1.094-.917-1.607-1.373l.35-.392c.508.452,1.042.909,1.591,1.359Z" transform="translate(-46.659 -213.319)" fill="#2980b9"/>
          <path id="Path_21573" data-name="Path 21573" d="M21.523,165.007l-.7,8.469-4.919-5.54L0,154.906l13.565,4.274s6.679,3.245,6.983,3.673A17.9,17.9,0,0,1,21.523,165.007Z" transform="translate(0 -95.922)" fill="#2c394b"/>
          <path id="Path_21574" data-name="Path 21574" d="M28.731,161.369,0,154.906l21.523,10.1Z" transform="translate(0 -95.922)" fill="#082032"/>
          <path id="Path_21575" data-name="Path 21575" d="M10.474,171.278l8.855-4.419L0,154.906Z" transform="translate(0 -95.922)" fill="#082032"/>
        </g>
      </g>
    </g>
  </g>
</svg>
