<svg xmlns="http://www.w3.org/2000/svg" xmlns:xlink="http://www.w3.org/1999/xlink" width="140" height="126" viewBox="0 0 140 126">
  <defs>
    <clipPath id="clip-path">
      <rect id="Rectangle_84" data-name="Rectangle 84" width="140" height="126" fill="#fff"/>
    </clipPath>
  </defs>
  <g id="Mask_Group_17" data-name="Mask Group 17" clip-path="url(#clip-path)">
    <g id="cashless-payment" transform="translate(12.704 0.085)">
      <path id="Path_21158" data-name="Path 21158" d="M70.1,126H15.845A10.141,10.141,0,0,1,5.7,115.859V10.141A10.141,10.141,0,0,1,15.845,0H70.1A10.141,10.141,0,0,1,80.239,10.141V115.859A10.141,10.141,0,0,1,70.1,126Z" transform="translate(-5.704)" fill="#2980b9"/>
      <path id="Path_21160" data-name="Path 21160" d="M73.648,10.141V115.859a3.549,3.549,0,0,1-3.549,3.549H15.845a3.549,3.549,0,0,1-3.549-3.549V10.141a3.549,3.549,0,0,1,3.549-3.549H26.012a1.384,1.384,0,0,1,1.309.934l1.34,3.892a1.384,1.384,0,0,0,1.309.934h26a1.385,1.385,0,0,0,1.309-.934l1.34-3.892a1.384,1.384,0,0,1,1.309-.934H70.1a3.55,3.55,0,0,1,3.549,3.549Z" transform="translate(-5.704)" fill="#dbdbdb"/>
      <path id="Path_21162" data-name="Path 21162" d="M52.859,103.056H33.085a5.324,5.324,0,0,1,0-10.648H52.859a5.324,5.324,0,1,1,0,10.648Z" transform="translate(-5.704)" fill="#2980b9"/>
      <path id="Path_21163" data-name="Path 21163" d="M115.319,81H27.92a4.977,4.977,0,0,1-4.977-4.977V25.132a4.977,4.977,0,0,1,4.977-4.977h87.4a4.977,4.977,0,0,1,4.977,4.977V76.023A4.976,4.976,0,0,1,115.319,81Z" transform="translate(-5.704)" fill="#f6f6f6"/>
      <g id="Group_101" data-name="Group 101" transform="translate(68.613 55.806)">
        <path id="Path_21165" data-name="Path 21165" d="M94.641,57.207l-.019-.05a2.17,2.17,0,0,0-2.015-1.35h0a2.171,2.171,0,0,0-2.015,1.352l-.017.043L85.068,71.659a1.846,1.846,0,1,0,3.45,1.314l.918-2.412h6.3l.908,2.407a1.846,1.846,0,1,0,3.453-1.3Zm-3.8,9.663L92.6,62.254l1.742,4.616Z" transform="translate(-74.317 -55.806)" fill="#2980b9"/>
        <path id="Path_21166" data-name="Path 21166" d="M111.034,56.143a1.846,1.846,0,0,0-2.554.54l-3.1,4.764-3.136-4.8a1.846,1.846,0,0,0-3.091,2.018l4.382,6.711-.017,6.939a1.846,1.846,0,0,0,1.841,1.85h0a1.846,1.846,0,0,0,1.846-1.841l.017-6.945,4.348-6.679a1.846,1.846,0,0,0-.54-2.554Z" transform="translate(-74.317 -55.806)" fill="#2980b9"/>
        <path id="Path_21167" data-name="Path 21167" d="M80.246,55.807H76.163a1.846,1.846,0,0,0-1.846,1.852V72.316a1.846,1.846,0,0,0,3.691,0V67.783c.818,0,1.717-.008,2.237-.008a5.984,5.984,0,1,0,0-11.968Zm0,8.276c-.517,0-1.4,0-2.219.008,0-.843-.008-1.769-.008-2.3,0-.451,0-1.41,0-2.292h2.232a2.294,2.294,0,1,1,0,4.585Z" transform="translate(-74.317 -55.806)" fill="#2980b9"/>
      </g>
      <path id="Path_21168" data-name="Path 21168" d="M51.592,43.225H35.873A1.521,1.521,0,0,1,34.352,41.7V31.563a1.521,1.521,0,0,1,1.521-1.521H51.592a1.521,1.521,0,0,1,1.521,1.521V41.7A1.521,1.521,0,0,1,51.592,43.225Z" transform="translate(-5.704)" fill="#2980b9"/>
      <path id="Path_21169" data-name="Path 21169" d="M45.253,71.576H22.944V58.393h22.31a6.591,6.591,0,1,1,0,13.183Z" transform="translate(-5.704)" fill="#2980b9"/>
      <g id="Group_102" data-name="Group 102" transform="translate(61.891 32.777)">
        <path id="Path_21170" data-name="Path 21170" d="M69.441,32.777a1.845,1.845,0,0,0-1.846,1.846v3.042a1.846,1.846,0,0,0,3.691,0V34.623A1.846,1.846,0,0,0,69.441,32.777Z" transform="translate(-67.595 -32.777)" fill="#2980b9"/>
        <path id="Path_21171" data-name="Path 21171" d="M100.8,32.777a1.845,1.845,0,0,0-1.846,1.846v3.042a1.846,1.846,0,1,0,3.691,0V34.623A1.846,1.846,0,0,0,100.8,32.777Z" transform="translate(-67.595 -32.777)" fill="#2980b9"/>
        <path id="Path_21172" data-name="Path 21172" d="M107.579,32.777a1.845,1.845,0,0,0-1.846,1.846v3.042a1.846,1.846,0,0,0,3.691,0V34.623A1.846,1.846,0,0,0,107.579,32.777Z" transform="translate(-67.595 -32.777)" fill="#2980b9"/>
        <path id="Path_21173" data-name="Path 21173" d="M79.282,32.777a1.845,1.845,0,0,0-1.846,1.846v3.042a1.846,1.846,0,0,0,3.691,0V34.623A1.846,1.846,0,0,0,79.282,32.777Z" transform="translate(-67.595 -32.777)" fill="#2980b9"/>
        <path id="Path_21174" data-name="Path 21174" d="M86.466,32.777a1.845,1.845,0,0,0-1.846,1.846v3.042a1.846,1.846,0,0,0,3.691,0V34.623A1.846,1.846,0,0,0,86.466,32.777Z" transform="translate(-67.595 -32.777)" fill="#2980b9"/>
      </g>
    </g>
  </g>
</svg>
