<svg xmlns="http://www.w3.org/2000/svg" xmlns:xlink="http://www.w3.org/1999/xlink" width="175" height="175" viewBox="0 0 175 175">
  <defs>
    <clipPath id="clip-path">
      <rect id="Rectangle_3127" data-name="Rectangle 3127" width="175" height="175" transform="translate(-19245 -11073)" fill="#fff" stroke="#707070" stroke-width="1"/>
    </clipPath>
    <clipPath id="clip-path-2">
      <rect id="Rectangle_3053" data-name="Rectangle 3053" width="22.372" height="4.925" fill="none"/>
    </clipPath>
  </defs>
  <g id="Mask_Group_220" data-name="Mask Group 220" transform="translate(19245 11073)" clip-path="url(#clip-path)">
    <g id="Layer_2" data-name="Layer 2" transform="translate(-19245 -11063.998)">
      <g id="OBJECTS" transform="translate(0 -0.002)">
        <g id="Shadow" transform="translate(3.373 146.924)" opacity="0.6">
          <path id="Path_21418" data-name="Path 21418" d="M174.367,375.47c0,4.633-36.387,8.379-81.29,8.379S11.825,380.1,11.825,375.47s36.387-8.387,81.253-8.387S174.367,370.837,174.367,375.47Z" transform="translate(-11.825 -367.082)" fill="#dbdbdb"/>
        </g>
        <path id="Path_42527" data-name="Path 42527" d="M0,35.4c.057-.075.119-.15.181-.221l.7-.61a3.537,3.537,0,0,1,1.7-.544,2.622,2.622,0,0,1,1.326.217A2.573,2.573,0,0,1,5,34.81v-.119a2.653,2.653,0,0,1,.637-1.251L6.19,33a2.7,2.7,0,0,1,1.291-.411,1.985,1.985,0,0,1,1,.164,1.742,1.742,0,0,1,.367.137A3.22,3.22,0,0,1,11.867,30a3.281,3.281,0,0,1,3.374,3.038,3.1,3.1,0,0,1-.124,1.008l.181-.022a1.928,1.928,0,0,1,.973.159,1.941,1.941,0,0,1,.884.5,1.906,1.906,0,0,1,.531.721Z" transform="translate(0 -18.406)" fill="#dbdbdb"/>
        <path id="Path_42528" data-name="Path 42528" d="M58.391,11.012H46.753a2.962,2.962,0,0,1,2.7-2.211,3.263,3.263,0,0,1,1.525.38c0-.146.022-.3.031-.442l.23-.69.407-.61.553-.473.632-.3a2.021,2.021,0,0,1,1.021-.1,1.326,1.326,0,0,1,.676.146,1.99,1.99,0,0,1,.929.531l.04.04a2.052,2.052,0,0,1,.6.884,2.025,2.025,0,0,1,.265.99c0,.155-.022.309-.031.442A2.622,2.622,0,0,1,58.391,11.012Z" transform="translate(-28.692 -4.012)" fill="#dbdbdb"/>
        <path id="Path_42529" data-name="Path 42529" d="M346.323,97.19a2.653,2.653,0,0,0-1.8-.747,2.494,2.494,0,0,0-.8.137,1.9,1.9,0,0,0-1.9-1.68,2.021,2.021,0,0,0-1.415.473,2.118,2.118,0,0,0-.628-1.123,2.4,2.4,0,0,0-1.618-.663,2.357,2.357,0,0,0-1.609.663,2.489,2.489,0,0,0-.668,1.6,2.809,2.809,0,0,0,.168.853,2.213,2.213,0,0,0-.389-.035,1.791,1.791,0,0,0-1.83,1.879h13.193a2.383,2.383,0,0,0-.7-1.362Z" transform="translate(-204.864 -57.432)" fill="#dbdbdb"/>
        <path id="Path_42530" data-name="Path 42530" d="M349.5,5.782a2.7,2.7,0,0,0-.354-1.618,2.764,2.764,0,0,0-1.64-1.265l-.734-.1a2.994,2.994,0,0,0-.562.062V2.744a2.772,2.772,0,0,0-.8-1.941,2.741,2.741,0,0,0-3.882,0,2.038,2.038,0,0,0-.57.884,2.03,2.03,0,0,0-.234,1.057,3.122,3.122,0,0,0,.363,1.375,2.357,2.357,0,0,0-.995-.221,2.573,2.573,0,0,0-1.769.73,1.834,1.834,0,0,0-.513.8,1.7,1.7,0,0,0-.141.349Z" transform="translate(-207.221 0.002)" fill="#dbdbdb"/>
        <path id="Path_42531" data-name="Path 42531" d="M400.433,43.615a5.169,5.169,0,0,0-.836-1.088l-1.07-.827a5.239,5.239,0,0,0-2.653-.721,3.979,3.979,0,0,0-2.034.442,3.864,3.864,0,0,0-1.3.712l-.027-.066a5.186,5.186,0,0,0-.23-.539l-.146-.349a4.652,4.652,0,0,0-1.632-1.632l-.049-.027-1.1-.442-.641-.088a2.352,2.352,0,0,0-1.238,0l-.632.084a11.306,11.306,0,0,0-1.172.491l-.256.2a3.126,3.126,0,0,0-.884-1.534,3.48,3.48,0,0,0-4.925,0,2.613,2.613,0,0,0-.721,1.119,2.653,2.653,0,0,0-.3,1.326,2.879,2.879,0,0,0,.053.442c-.323-.066-.646-.124-.964-.195a4.572,4.572,0,0,0-5.438,2.653Z" transform="translate(-228.439 -22.833)" fill="#dbdbdb"/>
        <path id="Path_42532" data-name="Path 42532" d="M64.1,283.81a22.934,22.934,0,0,0-4.948-1.8c-1.136-.27-2.533-.371-3.272.535a2.281,2.281,0,0,0-.172,2.321c.327.747,1.733,1.326.787,2.878s-4.5-.385-7.1-.106a4.187,4.187,0,0,0-1.919.535,1.455,1.455,0,0,0-.592,1.742c.292.592,1,.725,1.4,1.2.685.814.155,2.131-.721,2.737a13.331,13.331,0,0,1-2.967,1.136c-2.352.884-4.961,3.484-4.3,5.748s4.267,3.007,6.734,2.485a13.244,13.244,0,0,1,3.1-.654c1.048.035,2.211.849,2.091,1.906-.08.615-.575,1.15-.522,1.769a1.478,1.478,0,0,0,1.441,1.145,4.2,4.2,0,0,0,1.9-.6c2.335-1.176,5.8-7.012,7.158-6.19s-.486,4.284-.354,5.093a2.29,2.29,0,0,0,1.406,1.853c1.114.358,2.211-.486,3.038-1.326A23.1,23.1,0,0,0,69.467,302a5.084,5.084,0,0,1,1.291-1.676,1.526,1.526,0,0,1,1.954.035c.743.827-.08,2.184.279,3.236a1.981,1.981,0,0,0,2.427,1.052,5.081,5.081,0,0,0,2.3-1.724c3.714-4.337,5.536-9.939,7.269-15.382l.248.08.23.08h0l-.248-.08c-4.421-3.63-9.1-7.384-14.591-9.006A5.134,5.134,0,0,0,67.7,278.4a2.024,2.024,0,0,0-1.5,2.211c.274,1.079,1.689,1.769,1.508,2.861a1.529,1.529,0,0,1-1.623,1.092A5.094,5.094,0,0,1,64.1,283.81Z" transform="translate(-24.664 -170.766)" fill="#3f873f"/>
        <path id="Path_42533" data-name="Path 42533" d="M73.337,308.552a254.111,254.111,0,0,1,31.18-8.365q4.483-.884,8.989-1.636c.42-.071.243-.707-.177-.641a254.642,254.642,0,0,0-31.458,7.233q-4.377,1.326-8.71,2.772C72.758,308.048,72.93,308.689,73.337,308.552Z" transform="translate(-44.757 -182.819)" fill="#dbdbdb"/>
        <path id="Path_42534" data-name="Path 42534" d="M136.423,304.759a30.764,30.764,0,0,1-4.351,8.723c-.248.345.327.676.57.336a31.391,31.391,0,0,0,4.421-8.883c.128-.411-.513-.584-.641-.177Z" transform="translate(-81.014 -186.883)" fill="#ffdb82"/>
        <path id="Path_42535" data-name="Path 42535" d="M108.7,311.092a17.823,17.823,0,0,1-4.961,8.087c-.31.292.159.76.469.469a18.53,18.53,0,0,0,5.133-8.379.333.333,0,1,0-.641-.177Z" transform="translate(-63.6 -190.762)" fill="#ffdb82"/>
        <path id="Path_42536" data-name="Path 42536" d="M87.806,317.672a17.637,17.637,0,0,1-3.71,5.748c-.3.31.168.778.469.469a18.4,18.4,0,0,0,3.878-6.044C88.6,317.451,87.961,317.279,87.806,317.672Z" transform="translate(-51.551 -194.814)" fill="#dbdbdb"/>
        <path id="Path_42537" data-name="Path 42537" d="M132.326,295.392a29.42,29.42,0,0,0-7.485-5.655c-.376-.2-.712.371-.332.575a28.877,28.877,0,0,1,7.348,5.522c.3.309.765-.159.469-.469Z" transform="translate(-76.307 -177.781)" fill="#ffdb82"/>
        <path id="Path_42538" data-name="Path 42538" d="M105.311,303.394a23.68,23.68,0,0,0-7.4-4.833c-.394-.164-.566.478-.177.641a22.708,22.708,0,0,1,7.105,4.66c.309.3.778-.168.469-.469Z" transform="translate(-59.845 -183.206)" fill="#dbdbdb"/>
        <path id="Path_42539" data-name="Path 42539" d="M83.913,312.878a13.216,13.216,0,0,0-6.632-2.949c-.416-.057-.6.579-.177.637a12.65,12.65,0,0,1,6.323,2.781c.323.274.8-.195.469-.469Z" transform="translate(-47.171 -190.196)" fill="#dbdbdb"/>
        <path id="Path_42540" data-name="Path 42540" d="M53.541,215.2a22.834,22.834,0,0,1-5.266-.345c-1.141-.221-2.467-.663-2.781-1.8a2.286,2.286,0,0,1,.778-2.211c.6-.557,2.122-.522,1.884-2.321s-4.28-1.459-6.544-2.763a4.183,4.183,0,0,1-1.552-1.242,1.419,1.419,0,0,1,.164-1.83c.531-.411,1.207-.265,1.769-.535.955-.469,1-1.888.442-2.794a13.335,13.335,0,0,0-2.255-2.237c-1.791-1.769-3.139-5.191-1.623-6.99s5.116-1.035,7.163.442a13.334,13.334,0,0,0,2.578,1.853c.982.4,2.379.119,2.684-.884.177-.592-.062-1.282.234-1.826a1.464,1.464,0,0,1,1.769-.464,4.1,4.1,0,0,1,1.5,1.326c1.662,2.016,2.485,8.75,4.059,8.551s1.282-4.116,1.729-4.8a2.286,2.286,0,0,1,2.034-1.132c1.163.119,1.848,1.326,2.246,2.441a22.991,22.991,0,0,1,1.211,5.133,5.182,5.182,0,0,0,.508,2.06,1.533,1.533,0,0,0,1.8.752c1.012-.442.809-2.029,1.556-2.847a2.021,2.021,0,0,1,2.653,0,4.911,4.911,0,0,1,1.415,2.507c1.649,5.469,1.061,11.328.442,17l.261.027s.243.022.243.027h0l-.261-.031c-5.5,1.543-11.306,3.1-16.969,2.37a5.173,5.173,0,0,1-2.768-.982,2.023,2.023,0,0,1-.491-2.613c.685-.884,2.255-.933,2.533-2.012a1.53,1.53,0,0,0-1.048-1.654A5.164,5.164,0,0,0,53.541,215.2Z" transform="translate(-23.259 -116.031)" fill="#3f873f"/>
        <path id="Path_42541" data-name="Path 42541" d="M64.624,215.7a254.013,254.013,0,0,0,25.154,20.232q3.771,2.653,7.645,5.177c.358.234.694-.34.336-.575A252.315,252.315,0,0,1,71.884,221.2q-3.44-2.927-6.769-5.969c-.314-.287-.787.181-.469.469Z" transform="translate(-39.607 -132.029)" fill="#dbdbdb"/>
        <path id="Path_42542" data-name="Path 42542" d="M121.188,245.972a31.468,31.468,0,0,0-.482-9.908c-.084-.42-.725-.243-.637.177a30.871,30.871,0,0,1,.442,9.727c-.049.442.615.442.663,0Z" transform="translate(-73.68 -144.721)" fill="#ffdb82"/>
        <path id="Path_42543" data-name="Path 42543" d="M97.987,229.722A18.5,18.5,0,0,0,96.661,220c-.168-.394-.738-.053-.57.332a17.929,17.929,0,0,1,1.251,9.4c-.057.42.61.416.663,0Z" transform="translate(-58.951 -134.9)" fill="#dbdbdb"/>
        <path id="Path_42544" data-name="Path 42544" d="M79.921,218.737a18.411,18.411,0,0,0-1.11-7.017c-.146-.4-.787-.226-.641.177a17.836,17.836,0,0,1,1.088,6.84A.332.332,0,1,0,79.921,218.737Z" transform="translate(-47.959 -129.79)" fill="#dbdbdb"/>
        <path id="Path_42545" data-name="Path 42545" d="M107.122,261.541a28.853,28.853,0,0,1-8.958,2.127c-.442.031-.442.694,0,.663a29.459,29.459,0,0,0,9.135-2.153c.389-.164.217-.8-.177-.641Z" transform="translate(-60.039 -160.484)" fill="#dbdbdb"/>
        <path id="Path_42546" data-name="Path 42546" d="M85.6,244.386a22.992,22.992,0,0,1-8.463,1.41.332.332,0,1,0,0,.663,23.588,23.588,0,0,0,8.644-1.441c.4-.146.225-.787-.177-.641Z" transform="translate(-47.136 -149.957)" fill="#dbdbdb"/>
        <path id="Path_42547" data-name="Path 42547" d="M69.917,229.42a12.641,12.641,0,0,1-6.906,0,.332.332,0,0,0-.177.637,13.238,13.238,0,0,0,7.26,0,.332.332,0,0,0-.177-.637Z" transform="translate(-38.428 -140.788)" fill="#dbdbdb"/>
        <path id="Path_42548" data-name="Path 42548" d="M411.746,83.824a9.877,9.877,0,0,0-9.873,9.877c0,7.141,9.873,17.27,9.873,17.27s9.877-9.935,9.877-17.27A9.877,9.877,0,0,0,411.746,83.824Zm0,15.475a2.368,2.368,0,1,1,0,.018Z" transform="translate(-246.624 -51.441)" fill="#db1032"/>
        <rect id="Rectangle_3050" data-name="Rectangle 3050" width="75.982" height="136.706" rx="17.98" transform="translate(40.08 19.751)" fill="#193441"/>
        <rect id="Rectangle_3051" data-name="Rectangle 3051" width="68.625" height="107.113" transform="translate(43.759 30.433)" fill="#f6f6f6"/>
        <circle id="Ellipse_425" data-name="Ellipse 425" cx="6.196" cy="6.196" r="6.196" transform="translate(72.003 152.994) rotate(-88.854)" fill="#fff"/>
        <path id="Path_42549" data-name="Path 42549" d="M196.761,63.209H186.534a1.463,1.463,0,0,1-1.455-1.455h0a1.463,1.463,0,0,1,1.455-1.472h10.218a1.463,1.463,0,0,1,1.472,1.472h0a1.464,1.464,0,0,1-1.464,1.455Z" transform="translate(-113.581 -36.993)" fill="#fff"/>
        <rect id="Rectangle_3052" data-name="Rectangle 3052" width="68.634" height="11.054" transform="translate(43.75 30.208)" fill="#dbdbdb"/>
        <g id="Group_1727" data-name="Group 1727" transform="translate(51.315 82.217)" clip-path="url(#clip-path-2)">
          <line id="Line_355" data-name="Line 355" y1="16.686" x2="80.757" transform="translate(-11.77 -18.185)" fill="none" stroke="#2980b9" stroke-width="0.858"/>
          <line id="Line_356" data-name="Line 356" y1="16.682" x2="80.757" transform="translate(-11.77 -16.063)" fill="none" stroke="#2980b9" stroke-width="0.858"/>
          <line id="Line_357" data-name="Line 357" y1="16.682" x2="80.757" transform="translate(-11.77 -13.945)" fill="none" stroke="#2980b9" stroke-width="0.858"/>
          <line id="Line_358" data-name="Line 358" y1="16.682" x2="80.757" transform="translate(-11.77 -11.823)" fill="none" stroke="#2980b9" stroke-width="0.858"/>
          <line id="Line_359" data-name="Line 359" y1="16.682" x2="80.757" transform="translate(-11.77 -9.705)" fill="none" stroke="#2980b9" stroke-width="0.858"/>
          <line id="Line_360" data-name="Line 360" y1="16.682" x2="80.757" transform="translate(-11.77 -7.583)" fill="none" stroke="#2980b9" stroke-width="0.858"/>
          <line id="Line_361" data-name="Line 361" y1="16.682" x2="80.757" transform="translate(-11.77 -5.465)" fill="none" stroke="#2980b9" stroke-width="0.858"/>
          <line id="Line_362" data-name="Line 362" y1="16.682" x2="80.757" transform="translate(-11.77 -3.347)" fill="none" stroke="#2980b9" stroke-width="0.858"/>
          <line id="Line_363" data-name="Line 363" y1="16.682" x2="80.757" transform="translate(-11.77 -1.225)" fill="none" stroke="#2980b9" stroke-width="0.858"/>
          <line id="Line_364" data-name="Line 364" y1="16.682" x2="80.757" transform="translate(-11.77 0.893)" fill="none" stroke="#2980b9" stroke-width="0.858"/>
          <line id="Line_365" data-name="Line 365" y1="16.682" x2="80.757" transform="translate(-11.77 3.015)" fill="none" stroke="#2980b9" stroke-width="0.858"/>
          <line id="Line_366" data-name="Line 366" y1="16.682" x2="80.757" transform="translate(-11.77 5.133)" fill="none" stroke="#2980b9" stroke-width="0.858"/>
          <line id="Line_367" data-name="Line 367" y1="16.682" x2="80.757" transform="translate(-11.77 7.251)" fill="none" stroke="#2980b9" stroke-width="0.858"/>
          <line id="Line_368" data-name="Line 368" y1="16.682" x2="80.757" transform="translate(-11.77 9.373)" fill="none" stroke="#2980b9" stroke-width="0.858"/>
          <line id="Line_369" data-name="Line 369" y1="16.682" x2="80.757" transform="translate(-11.77 11.491)" fill="none" stroke="#2980b9" stroke-width="0.858"/>
          <line id="Line_370" data-name="Line 370" y1="16.682" x2="80.757" transform="translate(-11.77 13.614)" fill="none" stroke="#2980b9" stroke-width="0.858"/>
          <line id="Line_371" data-name="Line 371" y1="16.682" x2="80.757" transform="translate(-11.77 15.731)" fill="none" stroke="#2980b9" stroke-width="0.858"/>
        </g>
        <rect id="Rectangle_3054" data-name="Rectangle 3054" width="22.372" height="3.404" transform="translate(73.692 78.866) rotate(180)" fill="#2980b9"/>
        <rect id="Rectangle_3055" data-name="Rectangle 3055" width="23.469" height="23.469" rx="11.734" transform="translate(50.767 49.22)" fill="#3f873f"/>
        <path id="Path_42550" data-name="Path 42550" d="M152.818,139.184l-5.668,3.864v8.825h4.421v-3.537h2.653v3.537h4.421v-8.825Z" transform="translate(-90.304 -85.415)" fill="#fff"/>
        <rect id="Rectangle_3056" data-name="Rectangle 3056" width="1.326" height="2.357" transform="translate(58.69 59.593)" fill="#3f873f"/>
        <rect id="Rectangle_3057" data-name="Rectangle 3057" width="1.326" height="2.357" transform="translate(66.339 61.954) rotate(180)" fill="#3f873f"/>
        <g id="Group_1728" data-name="Group 1728" transform="translate(82.455 82.217)" clip-path="url(#clip-path-2)">
          <line id="Line_372" data-name="Line 372" y1="16.686" x2="80.757" transform="translate(-11.774 -18.185)" fill="none" stroke="#2980b9" stroke-width="0.858"/>
          <line id="Line_373" data-name="Line 373" y1="16.682" x2="80.757" transform="translate(-11.774 -16.063)" fill="none" stroke="#2980b9" stroke-width="0.858"/>
          <line id="Line_374" data-name="Line 374" y1="16.682" x2="80.757" transform="translate(-11.774 -13.945)" fill="none" stroke="#2980b9" stroke-width="0.858"/>
          <line id="Line_375" data-name="Line 375" y1="16.682" x2="80.757" transform="translate(-11.774 -11.823)" fill="none" stroke="#2980b9" stroke-width="0.858"/>
          <line id="Line_376" data-name="Line 376" y1="16.682" x2="80.757" transform="translate(-11.774 -9.705)" fill="none" stroke="#2980b9" stroke-width="0.858"/>
          <line id="Line_377" data-name="Line 377" y1="16.682" x2="80.757" transform="translate(-11.774 -7.583)" fill="none" stroke="#2980b9" stroke-width="0.858"/>
          <line id="Line_378" data-name="Line 378" y1="16.682" x2="80.757" transform="translate(-11.774 -5.465)" fill="none" stroke="#2980b9" stroke-width="0.858"/>
          <line id="Line_379" data-name="Line 379" y1="16.682" x2="80.757" transform="translate(-11.774 -3.347)" fill="none" stroke="#2980b9" stroke-width="0.858"/>
          <line id="Line_380" data-name="Line 380" y1="16.682" x2="80.757" transform="translate(-11.774 -1.225)" fill="none" stroke="#2980b9" stroke-width="0.858"/>
          <line id="Line_381" data-name="Line 381" y1="16.682" x2="80.757" transform="translate(-11.774 0.893)" fill="none" stroke="#2980b9" stroke-width="0.858"/>
          <line id="Line_382" data-name="Line 382" y1="16.682" x2="80.757" transform="translate(-11.774 3.015)" fill="none" stroke="#2980b9" stroke-width="0.858"/>
          <line id="Line_383" data-name="Line 383" y1="16.682" x2="80.757" transform="translate(-11.774 5.133)" fill="none" stroke="#2980b9" stroke-width="0.858"/>
          <line id="Line_384" data-name="Line 384" y1="16.682" x2="80.757" transform="translate(-11.774 7.251)" fill="none" stroke="#2980b9" stroke-width="0.858"/>
          <line id="Line_385" data-name="Line 385" y1="16.682" x2="80.757" transform="translate(-11.774 9.373)" fill="none" stroke="#2980b9" stroke-width="0.858"/>
          <line id="Line_386" data-name="Line 386" y1="16.682" x2="80.757" transform="translate(-11.774 11.491)" fill="none" stroke="#2980b9" stroke-width="0.858"/>
          <line id="Line_387" data-name="Line 387" y1="16.682" x2="80.757" transform="translate(-11.774 13.614)" fill="none" stroke="#2980b9" stroke-width="0.858"/>
          <line id="Line_388" data-name="Line 388" y1="16.682" x2="80.757" transform="translate(-11.774 15.731)" fill="none" stroke="#2980b9" stroke-width="0.858"/>
        </g>
        <rect id="Rectangle_3059" data-name="Rectangle 3059" width="22.372" height="3.404" transform="translate(104.823 78.866) rotate(180)" fill="#2980b9"/>
        <g id="Group_1729" data-name="Group 1729" transform="translate(51.315 125.547)" clip-path="url(#clip-path-2)">
          <line id="Line_389" data-name="Line 389" y1="16.682" x2="80.757" transform="translate(-11.77 -18.185)" fill="none" stroke="#2980b9" stroke-width="0.858"/>
          <line id="Line_390" data-name="Line 390" y1="16.682" x2="80.757" transform="translate(-11.77 -16.063)" fill="none" stroke="#2980b9" stroke-width="0.858"/>
          <line id="Line_391" data-name="Line 391" y1="16.682" x2="80.757" transform="translate(-11.77 -13.945)" fill="none" stroke="#2980b9" stroke-width="0.858"/>
          <line id="Line_392" data-name="Line 392" y1="16.682" x2="80.757" transform="translate(-11.77 -11.823)" fill="none" stroke="#2980b9" stroke-width="0.858"/>
          <line id="Line_393" data-name="Line 393" y1="16.682" x2="80.757" transform="translate(-11.77 -9.705)" fill="none" stroke="#2980b9" stroke-width="0.858"/>
          <line id="Line_394" data-name="Line 394" y1="16.682" x2="80.757" transform="translate(-11.77 -7.583)" fill="none" stroke="#2980b9" stroke-width="0.858"/>
          <line id="Line_395" data-name="Line 395" y1="16.682" x2="80.757" transform="translate(-11.77 -5.465)" fill="none" stroke="#2980b9" stroke-width="0.858"/>
          <line id="Line_396" data-name="Line 396" y1="16.682" x2="80.757" transform="translate(-11.77 -3.347)" fill="none" stroke="#2980b9" stroke-width="0.858"/>
          <line id="Line_397" data-name="Line 397" y1="16.682" x2="80.757" transform="translate(-11.77 -1.225)" fill="none" stroke="#2980b9" stroke-width="0.858"/>
          <line id="Line_398" data-name="Line 398" y1="16.682" x2="80.757" transform="translate(-11.77 0.893)" fill="none" stroke="#2980b9" stroke-width="0.858"/>
          <line id="Line_399" data-name="Line 399" y1="16.682" x2="80.757" transform="translate(-11.77 3.015)" fill="none" stroke="#2980b9" stroke-width="0.858"/>
          <line id="Line_400" data-name="Line 400" y1="16.682" x2="80.757" transform="translate(-11.77 5.133)" fill="none" stroke="#2980b9" stroke-width="0.858"/>
          <line id="Line_401" data-name="Line 401" y1="16.682" x2="80.757" transform="translate(-11.77 7.251)" fill="none" stroke="#2980b9" stroke-width="0.858"/>
          <line id="Line_402" data-name="Line 402" y1="16.682" x2="80.757" transform="translate(-11.77 9.373)" fill="none" stroke="#2980b9" stroke-width="0.858"/>
          <line id="Line_403" data-name="Line 403" y1="16.682" x2="80.757" transform="translate(-11.77 11.491)" fill="none" stroke="#2980b9" stroke-width="0.858"/>
          <line id="Line_404" data-name="Line 404" y1="16.682" x2="80.757" transform="translate(-11.77 13.614)" fill="none" stroke="#2980b9" stroke-width="0.858"/>
          <line id="Line_405" data-name="Line 405" y1="16.682" x2="80.757" transform="translate(-11.77 15.731)" fill="none" stroke="#2980b9" stroke-width="0.858"/>
        </g>
        <rect id="Rectangle_3061" data-name="Rectangle 3061" width="22.372" height="3.404" transform="translate(73.692 122.196) rotate(180)" fill="#2980b9"/>
        <g id="Group_1730" data-name="Group 1730" transform="translate(82.455 125.547)" clip-path="url(#clip-path-2)">
          <line id="Line_406" data-name="Line 406" y1="16.682" x2="80.757" transform="translate(-11.774 -18.185)" fill="none" stroke="#2980b9" stroke-width="0.858"/>
          <line id="Line_407" data-name="Line 407" y1="16.682" x2="80.757" transform="translate(-11.774 -16.063)" fill="none" stroke="#2980b9" stroke-width="0.858"/>
          <line id="Line_408" data-name="Line 408" y1="16.682" x2="80.757" transform="translate(-11.774 -13.945)" fill="none" stroke="#2980b9" stroke-width="0.858"/>
          <line id="Line_409" data-name="Line 409" y1="16.682" x2="80.757" transform="translate(-11.774 -11.823)" fill="none" stroke="#2980b9" stroke-width="0.858"/>
          <line id="Line_410" data-name="Line 410" y1="16.682" x2="80.757" transform="translate(-11.774 -9.705)" fill="none" stroke="#2980b9" stroke-width="0.858"/>
          <line id="Line_411" data-name="Line 411" y1="16.682" x2="80.757" transform="translate(-11.774 -7.583)" fill="none" stroke="#2980b9" stroke-width="0.858"/>
          <line id="Line_412" data-name="Line 412" y1="16.682" x2="80.757" transform="translate(-11.774 -5.465)" fill="none" stroke="#2980b9" stroke-width="0.858"/>
          <line id="Line_413" data-name="Line 413" y1="16.682" x2="80.757" transform="translate(-11.774 -3.347)" fill="none" stroke="#2980b9" stroke-width="0.858"/>
          <line id="Line_414" data-name="Line 414" y1="16.682" x2="80.757" transform="translate(-11.774 -1.225)" fill="none" stroke="#2980b9" stroke-width="0.858"/>
          <line id="Line_415" data-name="Line 415" y1="16.682" x2="80.757" transform="translate(-11.774 0.893)" fill="none" stroke="#2980b9" stroke-width="0.858"/>
          <line id="Line_416" data-name="Line 416" y1="16.682" x2="80.757" transform="translate(-11.774 3.015)" fill="none" stroke="#2980b9" stroke-width="0.858"/>
          <line id="Line_417" data-name="Line 417" y1="16.682" x2="80.757" transform="translate(-11.774 5.133)" fill="none" stroke="#2980b9" stroke-width="0.858"/>
          <line id="Line_418" data-name="Line 418" y1="16.682" x2="80.757" transform="translate(-11.774 7.251)" fill="none" stroke="#2980b9" stroke-width="0.858"/>
          <line id="Line_419" data-name="Line 419" y1="16.682" x2="80.757" transform="translate(-11.774 9.373)" fill="none" stroke="#2980b9" stroke-width="0.858"/>
          <line id="Line_420" data-name="Line 420" y1="16.682" x2="80.757" transform="translate(-11.774 11.491)" fill="none" stroke="#2980b9" stroke-width="0.858"/>
          <line id="Line_421" data-name="Line 421" y1="16.682" x2="80.757" transform="translate(-11.774 13.614)" fill="none" stroke="#2980b9" stroke-width="0.858"/>
          <line id="Line_422" data-name="Line 422" y1="16.682" x2="80.757" transform="translate(-11.774 15.731)" fill="none" stroke="#2980b9" stroke-width="0.858"/>
        </g>
        <rect id="Rectangle_3063" data-name="Rectangle 3063" width="22.372" height="3.404" transform="translate(104.823 122.196) rotate(180)" fill="#2980b9"/>
        <path id="Path_42551" data-name="Path 42551" d="M182.1,17.656V13.132a3.1,3.1,0,0,0-3.1-3.095H119.046a3.1,3.1,0,0,0-3.095,3.095v4.523Z" transform="translate(-71.157 -6.159)" fill="#2c394b"/>
        <path id="Path_42552" data-name="Path 42552" d="M246.059,44H270.4l-8.356-15.833h-15.17Z" transform="translate(-151.003 -17.285)" fill="#2980b9"/>
        <path id="Path_42553" data-name="Path 42553" d="M119.571,28.167H103.066L95.121,44H120.8Z" transform="translate(-58.374 -17.285)" fill="#2980b9"/>
        <path id="Path_42554" data-name="Path 42554" d="M187.5,44H137.914l4.452-15.833h13.45l6.889,1.353,6.893-1.353h13.039Z" transform="translate(-84.636 -17.285)" fill="#334756"/>
        <path id="Path_42555" data-name="Path 42555" d="M197.228,44H180.7l1.375-15.833h13.782Z" transform="translate(-110.89 -17.285)" fill="#2980b9"/>
        <path id="Path_42556" data-name="Path 42556" d="M95.121,69.152h16.532v4a8.264,8.264,0,0,1-8.268,8.268h0a8.264,8.264,0,0,1-8.264-8.268Z" transform="translate(-58.374 -42.436)" fill="#334756"/>
        <path id="Path_42557" data-name="Path 42557" d="M137.914,69.152h16.532v4a8.264,8.264,0,0,1-8.264,8.264h0a8.264,8.264,0,0,1-8.268-8.264Z" transform="translate(-84.636 -42.436)" fill="#2980b9"/>
        <path id="Path_42558" data-name="Path 42558" d="M188.96,81.456h0a8.264,8.264,0,0,1-8.264-8.268V69.209h16.532v3.979A8.268,8.268,0,0,1,188.96,81.456Z" transform="translate(-110.89 -42.472)" fill="#334756"/>
        <path id="Path_42559" data-name="Path 42559" d="M223.489,69.152h16.532v4a8.264,8.264,0,0,1-8.25,8.268h0a8.264,8.264,0,0,1-8.264-8.264V69.152Z" transform="translate(-137.152 -42.436)" fill="#2980b9"/>
        <path id="Path_42560" data-name="Path 42560" d="M266.25,69.152h16.514v4a8.264,8.264,0,0,1-8.264,8.264h0a8.264,8.264,0,0,1-8.264-8.264v-4Z" transform="translate(-163.386 -42.436)" fill="#334756"/>
        <rect id="Rectangle_3064" data-name="Rectangle 3064" width="23.469" height="23.469" rx="11.734" transform="translate(81.902 49.22)" fill="#3f873f"/>
        <path id="Path_42561" data-name="Path 42561" d="M232.935,139.184l-5.668,3.864v8.825h4.421v-3.537h2.653v3.537h4.421v-8.825Z" transform="translate(-139.47 -85.415)" fill="#fff"/>
        <rect id="Rectangle_3065" data-name="Rectangle 3065" width="1.326" height="2.357" transform="translate(89.733 59.593)" fill="#3f873f"/>
        <rect id="Rectangle_3066" data-name="Rectangle 3066" width="1.326" height="2.357" transform="translate(97.382 61.954) rotate(180)" fill="#3f873f"/>
        <rect id="Rectangle_3067" data-name="Rectangle 3067" width="23.469" height="23.469" rx="11.734" transform="translate(50.767 92.55)" fill="#3f873f"/>
        <path id="Path_42562" data-name="Path 42562" d="M152.818,251.358l-5.668,3.864v8.821h4.421v-3.537h2.653v3.537h4.421v-8.821Z" transform="translate(-90.304 -154.254)" fill="#fff"/>
        <rect id="Rectangle_3068" data-name="Rectangle 3068" width="1.326" height="2.357" transform="translate(58.69 102.923)" fill="#3f873f"/>
        <rect id="Rectangle_3069" data-name="Rectangle 3069" width="1.326" height="2.357" transform="translate(66.339 105.284) rotate(180)" fill="#3f873f"/>
        <rect id="Rectangle_3070" data-name="Rectangle 3070" width="23.469" height="23.469" rx="11.734" transform="translate(81.902 92.55)" fill="#3f873f"/>
        <path id="Path_42563" data-name="Path 42563" d="M232.935,251.358l-5.668,3.864v8.821h4.421v-3.537h2.653v3.537h4.421v-8.821Z" transform="translate(-139.47 -154.254)" fill="#fff"/>
        <rect id="Rectangle_3071" data-name="Rectangle 3071" width="1.326" height="2.357" transform="translate(89.733 102.923)" fill="#3f873f"/>
        <rect id="Rectangle_3072" data-name="Rectangle 3072" width="1.326" height="2.357" transform="translate(97.382 105.284) rotate(180)" fill="#3f873f"/>
        <path id="Path_42564" data-name="Path 42564" d="M321.94,303.4a24.331,24.331,0,0,1,.336-4.237,5.26,5.26,0,0,1,1.552-3.226,3.026,3.026,0,0,1,3.692-.226,4.915,4.915,0,0,1,1.039,2.188,2.02,2.02,0,0,0,1.884,1.483,2.484,2.484,0,0,0,1.3-.647,10.04,10.04,0,0,1,2.352-1.533,3.548,3.548,0,0,1,2.843-.038c1.6.808,1.424,3,.19,4.214-.924.893-2.357,1.6-2.458,2.8-.159,1.87,3.029,2.8,3.294,4.659a2.5,2.5,0,0,1-2.029,2.448,6.054,6.054,0,0,1-3.67-.318c-1.158-.429-2.211-1.05-3.329-1.533a15.315,15.315,0,0,0-4.01-1.149,5.374,5.374,0,0,0-1.99.226v10.222h-1.017S321.935,304.407,321.94,303.4Z" transform="translate(-197.556 -174.422)" fill="#3f873f"/>
        <path id="Path_42565" data-name="Path 42565" d="M285.585,304.688c1.353-.646,3.329.2,4.253-.977a2.8,2.8,0,0,0,.128-2.45,9.792,9.792,0,0,1-.517-2.653,2.8,2.8,0,0,1,1.105-2.352c1.172-.76,2.843-.062,3.612,1.105a8.09,8.09,0,0,1,.964,4.032c.1,1.68.2,3.4.305,5.071.04.645.071,16.333.071,16.333h-.92v-9.426a14.391,14.391,0,0,0-6.115-2.724,5.544,5.544,0,0,1-3.648-2.175C284.033,307.248,284.272,305.316,285.585,304.688Z" transform="translate(-174.514 -181.613)" fill="#3f873f"/>
        <path id="Path_42566" data-name="Path 42566" d="M307.357,264.823a1.57,1.57,0,0,1,2.9-.561,4.125,4.125,0,0,1,.676,1.95c.071.535.323,1.251.853,1.163.336-.057.5-.42.654-.721a4.024,4.024,0,0,1,2.025-1.976,2.785,2.785,0,0,1,2.737.336c1.194.964,1.145,2.887.349,4.2a10.973,10.973,0,0,1-3.157,3.1,9.891,9.891,0,0,0-2.631,3.267v25.56h-.884V275.05a32.883,32.883,0,0,1-3.294-8.516C307.534,265.964,307.211,265.38,307.357,264.823Z" transform="translate(-188.597 -161.702)" fill="#3f873f"/>
        <path id="Path_42567" data-name="Path 42567" d="M2.48,0H8.228a2.48,2.48,0,0,1,2.48,2.48V20.7H0V2.48A2.48,2.48,0,0,1,2.48,0Z" transform="translate(128.133 156.457) rotate(180)" fill="#c4c4c4"/>
        <rect id="Rectangle_3073" data-name="Rectangle 3073" width="25.613" height="17.947" transform="translate(143.886 107.105)" fill="#4c9dd2"/>
        <rect id="Rectangle_3074" data-name="Rectangle 3074" width="13.008" height="17.947" transform="translate(131.94 107.105)" fill="#2980b9"/>
        <rect id="Rectangle_3075" data-name="Rectangle 3075" width="5.752" height="2.993" transform="translate(135.26 117.412)" fill="#fff"/>
        <rect id="Rectangle_3076" data-name="Rectangle 3076" width="41.088" height="31.755" transform="translate(130.176 124.406)" fill="#334756"/>
        <rect id="Rectangle_3077" data-name="Rectangle 3077" width="13.008" height="31.755" transform="translate(130.176 124.406)" fill="#2c394b"/>
        <rect id="Rectangle_3078" data-name="Rectangle 3078" width="5.752" height="2.993" transform="translate(133.496 148.521)" fill="#fff"/>
        <path id="Path_42568" data-name="Path 42568" d="M387.385,211.163l-11.332,7.768v17.8H384.9v-7.074H390.2v7.074h8.843v-17.8Zm-4.7,16.28h-2.653v-4.421h2.653Zm12.38,0h-2.653v-4.421h2.653Z" transform="translate(-230.778 -129.587)" fill="#3f873f"/>
        <circle id="Ellipse_426" data-name="Ellipse 426" cx="2.127" cy="2.127" r="2.127" transform="translate(154.838 86.678)" fill="#fff"/>
        <path id="Path_42569" data-name="Path 42569" d="M379.052,168.455V140.821a8.4,8.4,0,0,0-8.4-8.4h0a8.4,8.4,0,0,0-8.4,8.4v4.864" transform="translate(-222.308 -81.264)" fill="none" stroke="#f0a500" stroke-linecap="round" stroke-width="3.434"/>
        <path id="Path_42570" data-name="Path 42570" d="M341.788,202.7v4.921h8.4V180.6a8.516,8.516,0,1,0-3.692.088v15.444h-4.709v4.819h3.489V202.7Zm6.376-25.534a4.837,4.837,0,1,1,4.841-4.837A4.837,4.837,0,0,1,348.164,177.165Z" transform="translate(-208.425 -100.532)" fill="#262626"/>
        <path id="Path_42571" data-name="Path 42571" d="M360.058,165.649h0a1.738,1.738,0,0,1-1.733-1.733v-4.961a1.733,1.733,0,0,1,1.733-1.733h0a1.729,1.729,0,0,1,1.733,1.733v4.961A1.733,1.733,0,0,1,360.058,165.649Z" transform="translate(-219.899 -96.484)" fill="#f0a500"/>
      </g>
    </g>
  </g>
</svg>
