<svg xmlns="http://www.w3.org/2000/svg" xmlns:xlink="http://www.w3.org/1999/xlink" width="140" height="126" viewBox="0 0 140 126">
  <defs>
    <clipPath id="clip-path">
      <rect id="Rectangle_81" data-name="Rectangle 81" width="140" height="126" fill="#fff"/>
    </clipPath>
  </defs>
  <g id="Mask_Group_14" data-name="Mask Group 14" clip-path="url(#clip-path)">
    <g id="social-media" transform="translate(10.997 0)">
      <path id="Path_21116" data-name="Path 21116" d="M58.269,66.3a12.322,12.322,0,0,0,7.242,2.337H88.653V79.854l14.669-11.221h6.328A12.333,12.333,0,0,0,122,56.319v-44A12.333,12.333,0,0,0,109.65,0H65.511A12.333,12.333,0,0,0,53.159,12.315V66.3Z" transform="translate(-3.997 0)" fill="#dbdbdb"/>
      <path id="Path_21118" data-name="Path 21118" d="M78.062,50.583l1.273,1.031a11.339,11.339,0,0,0,7.134,2.526h18.074a3.015,3.015,0,0,0,3.011-3.161c-.076-1.622,0-16.389,0-18.054a3.015,3.015,0,0,0-3.015-3.015l-12.256-.037,1.5-3.554a12.86,12.86,0,0,0-.682-11.382,2.023,2.023,0,0,0-3.748,1,13.08,13.08,0,0,1-3.272,8.654L78.272,33.43H75.423V50.583h2.64Z" transform="translate(-3.997 0)" fill="#2980b9"/>
      <path id="Path_21119" data-name="Path 21119" d="M76.843,53.3H68.591a.988.988,0,0,1-.988-.988V31.279a.988.988,0,0,1,.988-.988h8.252a.988.988,0,0,1,.988.988V52.315A.988.988,0,0,1,76.843,53.3Z" transform="translate(-3.997 0)" fill="#f6f6f6"/>
      <path id="Path_21120" data-name="Path 21120" d="M58.287,88.349V43.936a9.726,9.726,0,0,0-9.741-9.711H13.738A9.726,9.726,0,0,0,4,43.936v34.7a9.726,9.726,0,0,0,9.741,9.711H32.86V97.28l11.568-8.932Z" transform="translate(-3.997 0)" fill="#2980b9"/>
      <path id="Path_21122" data-name="Path 21122" d="M43.907,64.14h-7l.767-4.638h6.234a1.9,1.9,0,0,0,0-3.8H38.3l1.047-6.333a1.9,1.9,0,0,0-3.752-.62L34.448,55.7H29.861l1.047-6.333a1.9,1.9,0,0,0-3.752-.62L26.006,55.7H18.377a1.9,1.9,0,0,0,0,3.8h7l-.767,4.638H18.377a1.9,1.9,0,0,0,0,3.8h5.6l-1.047,6.333c-.4,2.394,3.351,3.044,3.752.62l1.149-6.953h4.587l-1.047,6.333c-.4,2.394,3.351,3.044,3.752.62l1.149-6.953h7.629a1.9,1.9,0,0,0,0-3.8Zm-10.855,0H28.465l.767-4.638h4.587Z" transform="translate(-3.997 0)" fill="#f7f3f1"/>
      <path id="Path_21123" data-name="Path 21123" d="M77.129,81.253h-24.7a6.9,6.9,0,0,0-6.913,6.891V112.77a6.9,6.9,0,0,0,6.913,6.891H66V126l8.209-6.338h2.922a6.9,6.9,0,0,0,6.913-6.891V88.145a6.9,6.9,0,0,0-6.913-6.892Z" transform="translate(-3.997 0)" fill="#dbdbdb"/>
      <path id="Path_21125" data-name="Path 21125" d="M64.779,108.825c5.944-3.151,9.024-5.832,9.024-9.986,0-5.729-7.018-7.162-9.024-2.865-2.292-4.44-9.024-2.865-9.024,2.865C55.755,102.992,58.835,105.673,64.779,108.825Z" transform="translate(-3.997 0)" fill="#334756"/>
    </g>
  </g>
</svg>
