<svg xmlns="http://www.w3.org/2000/svg" xmlns:xlink="http://www.w3.org/1999/xlink" width="140" height="126" viewBox="0 0 140 126">
  <defs>
    <clipPath id="clip-path">
      <rect id="Rectangle_85" data-name="Rectangle 85" width="140" height="126" fill="#fff"/>
    </clipPath>
  </defs>
  <g id="Mask_Group_18" data-name="Mask Group 18" clip-path="url(#clip-path)">
    <g id="qr-code" transform="translate(21.425 0.085)">
      <g id="Group_107" data-name="Group 107" transform="translate(11.936)">
        <g id="Group_106" data-name="Group 106">
          <g id="Group_103" data-name="Group 103">
            <path id="Path_21175" data-name="Path 21175" d="M99.639,8.9V4.922A4.922,4.922,0,0,0,94.717,0H31.283a4.922,4.922,0,0,0-4.922,4.922V8.9Z" transform="translate(-26.361 0)" fill="#2980b9"/>
            <path id="Path_21176" data-name="Path 21176" d="M26.361,117.228v3.85A4.922,4.922,0,0,0,31.283,126H94.718a4.922,4.922,0,0,0,4.922-4.922v-3.85Z" transform="translate(-26.361 0)" fill="#2980b9"/>
          </g>
          <path id="Path_21179" data-name="Path 21179" d="M26.362,7.526H99.638V118.474H26.362Z" transform="translate(-26.361 0)" fill="#dbdbdb"/>
        </g>
      </g>
      <g id="Group_108" data-name="Group 108" transform="translate(19.728 28.097)">
        <path id="Path_21183" data-name="Path 21183" d="M36.614,28.1a2.461,2.461,0,0,0-2.461,2.461v22.67a1.231,1.231,0,0,0,1.23,1.23h3.691a1.231,1.231,0,0,0,1.23-1.23V34.249H59.284a1.231,1.231,0,0,0,1.23-1.23V29.327a1.231,1.231,0,0,0-1.23-1.23Zm52.772,0H66.716a1.231,1.231,0,0,0-1.23,1.23v3.691a1.231,1.231,0,0,0,1.23,1.23H85.695V53.228a1.231,1.231,0,0,0,1.23,1.23h3.691a1.231,1.231,0,0,0,1.23-1.23V30.557A2.461,2.461,0,0,0,89.386,28.1ZM85.695,60.66V79.638H66.716a1.231,1.231,0,0,0-1.23,1.23V84.56a1.231,1.231,0,0,0,1.23,1.23h22.67a2.461,2.461,0,0,0,2.461-2.461V60.66a1.231,1.231,0,0,0-1.23-1.23H86.925a1.231,1.231,0,0,0-1.23,1.23Zm-46.62-1.23H35.383a1.231,1.231,0,0,0-1.23,1.23V83.33a2.461,2.461,0,0,0,2.461,2.461h22.67a1.231,1.231,0,0,0,1.23-1.23V80.869a1.231,1.231,0,0,0-1.23-1.23H40.305V60.66a1.231,1.231,0,0,0-1.23-1.23Z" transform="translate(-34.153 -28.097)" fill="#f6f6f6"/>
      </g>
      <g id="Group_112" data-name="Group 112" transform="translate(19.728 94.632)">
        <g id="Group_110" data-name="Group 110" transform="translate(0 9.521)">
          <path id="Path_21185" data-name="Path 21185" d="M37.013,109.873h23.8a2.86,2.86,0,1,0,0-5.72h-23.8a2.86,2.86,0,0,0,0,5.72Z" transform="translate(-34.153 -104.153)" fill="#2980b9"/>
        </g>
        <g id="Group_111" data-name="Group 111">
          <path id="Path_21188" data-name="Path 21188" d="M37.013,100.352H53.124a2.86,2.86,0,0,0,0-5.72H37.013a2.86,2.86,0,1,0,0,5.72Z" transform="translate(-34.153 -94.632)" fill="#2980b9"/>
        </g>
      </g>
      <g id="Group_116" data-name="Group 116" transform="translate(38.845 12.312)">
        <g id="Group_114" data-name="Group 114">
          <path id="Path_21192" data-name="Path 21192" d="M63,31.773a9.73,9.73,0,1,1,9.73-9.73A9.741,9.741,0,0,1,63,31.773Zm0-14.538a4.808,4.808,0,1,0,4.808,4.808A4.814,4.814,0,0,0,63,17.234Z" transform="translate(-53.27 -12.312)" fill="#2980b9"/>
        </g>
      </g>
      <g id="Group_118" data-name="Group 118" transform="translate(29.096 37.435)">
        <path id="Path_21194" data-name="Path 21194" d="M45.367,54.945H59.185A1.846,1.846,0,0,0,61.031,53.1V47.748h7.5a1.231,1.231,0,0,0,1.23-1.23v-1.23a1.231,1.231,0,0,0-1.23-1.23h-7.5V39.281a1.846,1.846,0,0,0-1.846-1.846H45.367a1.846,1.846,0,0,0-1.846,1.846V53.1A1.846,1.846,0,0,0,45.367,54.945Zm1.846-13.819H57.34V51.253H47.213Z" transform="translate(-43.521 -37.435)" fill="#334756"/>
        <path id="Path_21196" data-name="Path 21196" d="M80.633,59.324H66.815a1.845,1.845,0,0,0-1.846,1.846V74.988a1.845,1.845,0,0,0,1.846,1.846H80.633a1.845,1.845,0,0,0,1.846-1.846V61.17A1.845,1.845,0,0,0,80.633,59.324ZM78.787,73.143H68.66V63.016H78.787Z" transform="translate(-43.521 -37.435)" fill="#334756"/>
        <path id="Path_21199" data-name="Path 21199" d="M80.633,37.435H76.622a1.231,1.231,0,0,0-1.23,1.23V39.9a1.231,1.231,0,0,0,1.23,1.23h2.166V51.253h-2.5V45.184a1.231,1.231,0,0,0-1.23-1.23h-1.23a1.231,1.231,0,0,0-1.23,1.23v6.069H68.045a1.231,1.231,0,0,0-1.23,1.23v1.23a1.231,1.231,0,0,0,1.23,1.23H80.633A1.846,1.846,0,0,0,82.479,53.1V39.28A1.846,1.846,0,0,0,80.633,37.435Z" transform="translate(-43.521 -37.435)" fill="#334756"/>
        <g id="Group_117" data-name="Group 117">
          <path id="Path_21201" data-name="Path 21201" d="M70.526,37.435h-3.81a1.231,1.231,0,0,0-1.23,1.23V39.9a1.231,1.231,0,0,0,1.23,1.23h3.81a1.231,1.231,0,0,0,1.23-1.23v-1.23A1.231,1.231,0,0,0,70.526,37.435Z" transform="translate(-43.521 -37.435)" fill="#334756"/>
          <path id="Path_21202" data-name="Path 21202" d="M45.982,58.032h-1.23a1.231,1.231,0,0,0-1.23,1.23v3.29a1.231,1.231,0,0,0,1.23,1.23h1.23a1.231,1.231,0,0,0,1.23-1.23v-3.29a1.23,1.23,0,0,0-1.23-1.23Z" transform="translate(-43.521 -37.435)" fill="#334756"/>
          <path id="Path_21203" data-name="Path 21203" d="M59.97,58.247h-8.4a1.231,1.231,0,0,0-1.23,1.23v1.23a1.231,1.231,0,0,0,1.23,1.23h8.4a1.231,1.231,0,0,0,1.23-1.23v-1.23A1.23,1.23,0,0,0,59.97,58.247Z" transform="translate(-43.521 -37.435)" fill="#334756"/>
          <path id="Path_21204" data-name="Path 21204" d="M51.57,67.8h8.4a1.231,1.231,0,0,0,1.23-1.23v-1.23a1.231,1.231,0,0,0-1.23-1.23h-8.4a1.231,1.231,0,0,0-1.23,1.23v1.23A1.23,1.23,0,0,0,51.57,67.8Z" transform="translate(-43.521 -37.435)" fill="#334756"/>
        </g>
        <path id="Path_21206" data-name="Path 21206" d="M57.552,73.143H54.122V71.631a1.231,1.231,0,0,0-1.23-1.23h-1.23a1.231,1.231,0,0,0-1.23,1.23v1.512H47.213V67.824a1.231,1.231,0,0,0-1.23-1.23h-1.23a1.231,1.231,0,0,0-1.23,1.23v7.164a1.846,1.846,0,0,0,1.846,1.846H59.4a1.846,1.846,0,0,0,1.846-1.846V72.021a1.231,1.231,0,0,0-1.23-1.23h-1.23a1.231,1.231,0,0,0-1.23,1.23v1.121Z" transform="translate(-43.521 -37.435)" fill="#334756"/>
        <path id="Path_21207" data-name="Path 21207" d="M74.339,65.855h-1.23a1.231,1.231,0,0,0-1.23,1.23v1.849a1.231,1.231,0,0,0,1.23,1.23h1.23a1.231,1.231,0,0,0,1.23-1.23V67.086A1.23,1.23,0,0,0,74.339,65.855Z" transform="translate(-43.521 -37.435)" fill="#334756"/>
      </g>
      <g id="Group_120" data-name="Group 120" transform="translate(0 73.143)">
        <path id="Path_21208" data-name="Path 21208" d="M0,0H4.291V92.691H0Z" transform="translate(2.23 7.288) rotate(-90)" fill="#2980b9"/>
        <path id="Path_21211" data-name="Path 21211" d="M103.953,76.14h5.392v4.291h-5.392Z" transform="translate(-14.425 -73.143)" fill="#2980b9"/>
        <g id="Group_119" data-name="Group 119">
          <path id="Path_21212" data-name="Path 21212" d="M107.116,75.372V81.2a2.23,2.23,0,0,0,4.459,0V75.372a2.23,2.23,0,1,0-4.459,0Z" transform="translate(-14.425 -73.143)" fill="#2980b9"/>
          <path id="Path_21213" data-name="Path 21213" d="M14.425,75.372V81.2a2.23,2.23,0,0,0,4.459,0V75.372a2.23,2.23,0,1,0-4.459,0Z" transform="translate(-14.425 -73.143)" fill="#2980b9"/>
        </g>
      </g>
      <g id="Group_122" data-name="Group 122" transform="translate(54.109 95.429)">
        <g id="Group_121" data-name="Group 121">
          <path id="Path_21214" data-name="Path 21214" d="M87.81,108.249H71a2.461,2.461,0,0,1-2.461-2.461v-7.9A2.461,2.461,0,0,1,71,95.429H87.81a2.461,2.461,0,0,1,2.461,2.461v7.9A2.461,2.461,0,0,1,87.81,108.249Z" transform="translate(-68.534 -95.429)" fill="#2980b9"/>
          <path id="Path_21216" data-name="Path 21216" d="M80.654,98.549a3.076,3.076,0,0,0-3.076-3.076H74.793a3.076,3.076,0,0,0,0,6.152h2.785A3.076,3.076,0,0,0,80.654,98.549Z" transform="translate(-68.534 -92.14)" fill="#f6f6f6"/>
        </g>
      </g>
    </g>
  </g>
</svg>
