<svg xmlns="http://www.w3.org/2000/svg" xmlns:xlink="http://www.w3.org/1999/xlink" width="660" height="672" viewBox="0 0 660 672">
  <defs>
    <clipPath id="clip-path">
      <rect id="Rectangle_1213" data-name="Rectangle 1213" width="660" height="672" transform="translate(-20334.172 -12385.158)" fill="#fff"/>
    </clipPath>
    <clipPath id="clip-path-2">
      <path id="Path_35349" data-name="Path 35349" d="M30.239,723.652l5.315,61.917c0,2.831,11.988,5.116,33.307,5.116s31.859-2.285,31.859-5.116l6.762-61.917Z" transform="translate(-30.239 -723.652)" fill="none"/>
    </clipPath>
  </defs>
  <g id="Mask_Group_102" data-name="Mask Group 102" transform="translate(20334.172 12385.158)" clip-path="url(#clip-path)">
    <g id="Group_793" data-name="Group 793" transform="translate(-20334 -12355.428)">
      <rect id="Rectangle_1204" data-name="Rectangle 1204" width="242.682" height="259.793" transform="translate(42.091 285.747)" fill="#2980b9"/>
      <path id="Path_29590" data-name="Path 29590" d="M872.55,404.058H777.341V311.49H872.55Z" transform="translate(-242.623 -93.918)" fill="#2980b9"/>
      <line id="Line_206" data-name="Line 206" x2="22.447" transform="translate(275.055 64.451)" fill="none" stroke="#2980b9" stroke-linecap="round" stroke-linejoin="round" stroke-width="2.47"/>
      <line id="Line_207" data-name="Line 207" x2="22.447" transform="translate(83.305 228.027)" fill="none" stroke="#2980b9" stroke-linecap="round" stroke-linejoin="round" stroke-width="2.47"/>
      <line id="Line_208" data-name="Line 208" x2="11.224" transform="translate(605.88 42.449)" fill="none" stroke="#2980b9" stroke-linecap="round" stroke-linejoin="round" stroke-width="1.24"/>
      <line id="Line_209" data-name="Line 209" y1="11.224" transform="translate(611.492 36.838)" fill="none" stroke="#2980b9" stroke-linecap="round" stroke-linejoin="round" stroke-width="1.24"/>
      <line id="Line_210" data-name="Line 210" x2="11.224" transform="translate(532.138 101.559)" fill="none" stroke="#2980b9" stroke-linecap="round" stroke-linejoin="round" stroke-width="1.24"/>
      <line id="Line_211" data-name="Line 211" y1="11.224" transform="translate(537.749 95.947)" fill="none" stroke="#2980b9" stroke-linecap="round" stroke-linejoin="round" stroke-width="1.24"/>
      <path id="Path_24965" data-name="Path 24965" d="M438.221,72.927A13.01,13.01,0,1,1,425.21,60a13.01,13.01,0,0,1,13.011,12.927Z" transform="translate(-19.047 -37.96)" fill="none" stroke="#2980b9" stroke-linecap="round" stroke-linejoin="round" stroke-width="2.11" opacity="0.7"/>
      <path id="Path_24966" data-name="Path 24966" d="M428.637,68.166A8.218,8.218,0,1,1,420.418,60a8.218,8.218,0,0,1,8.218,8.166Z" transform="translate(107.703 -54.397)" fill="none" stroke="#2980b9" stroke-linecap="round" stroke-linejoin="round" stroke-width="2.11" opacity="0.7"/>
      <g id="Group_763" data-name="Group 763" transform="translate(67.573 256.358)">
        <line id="Line_212" data-name="Line 212" x2="11.87" transform="translate(0 5.926)" fill="none" stroke="#2980b9" stroke-linecap="round" stroke-linejoin="round" stroke-width="5.176"/>
        <line id="Line_213" data-name="Line 213" y1="11.853" transform="translate(5.935)" fill="none" stroke="#2980b9" stroke-linecap="round" stroke-linejoin="round" stroke-width="5.176"/>
      </g>
      <g id="Group_764" data-name="Group 764" transform="translate(620.567 60.031)">
        <line id="Line_214" data-name="Line 214" x2="11.884" transform="translate(0 5.926)" fill="none" stroke="#2980b9" stroke-linecap="round" stroke-linejoin="round" stroke-width="5.176"/>
        <line id="Line_215" data-name="Line 215" y1="11.853" transform="translate(5.95)" fill="none" stroke="#2980b9" stroke-linecap="round" stroke-linejoin="round" stroke-width="5.176"/>
      </g>
      <g id="Group_765" data-name="Group 765" transform="translate(138.112 56.876)">
        <line id="Line_216" data-name="Line 216" x2="14.085" transform="translate(0 7.033)" fill="none" stroke="#2980b9" stroke-linecap="round" stroke-linejoin="round" stroke-width="3.583"/>
        <line id="Line_217" data-name="Line 217" y1="14.05" transform="translate(7.042)" fill="none" stroke="#2980b9" stroke-linecap="round" stroke-linejoin="round" stroke-width="3.583"/>
      </g>
      <g id="Group_766" data-name="Group 766" transform="translate(278.986 13.269)">
        <line id="Line_218" data-name="Line 218" x2="11.884" transform="translate(0 5.926)" fill="none" stroke="#2980b9" stroke-linecap="round" stroke-linejoin="round" stroke-width="5.176"/>
        <line id="Line_219" data-name="Line 219" y1="11.853" transform="translate(5.935)" fill="none" stroke="#2980b9" stroke-linecap="round" stroke-linejoin="round" stroke-width="5.176"/>
      </g>
      <line id="Line_220" data-name="Line 220" x2="8.356" transform="translate(186.124 238.771)" fill="none" stroke="#2980b9" stroke-linecap="round" stroke-linejoin="round" stroke-width="3.646"/>
      <line id="Line_221" data-name="Line 221" y1="8.359" transform="translate(190.302 234.599)" fill="none" stroke="#2980b9" stroke-linecap="round" stroke-linejoin="round" stroke-width="3.646"/>
      <g id="Group_767" data-name="Group 767" transform="translate(484.538 4.614)">
        <line id="Line_222" data-name="Line 222" x2="5.95" transform="translate(0 2.964)" fill="none" stroke="#2980b9" stroke-linecap="round" stroke-linejoin="round" stroke-width="2.599"/>
        <line id="Line_223" data-name="Line 223" y1="5.926" transform="translate(2.982)" fill="none" stroke="#2980b9" stroke-linecap="round" stroke-linejoin="round" stroke-width="2.599"/>
      </g>
      <path id="Path_24967" data-name="Path 24967" d="M274.586,9.091a6.9,6.9,0,1,1-6.88-6.87A6.9,6.9,0,0,1,274.586,9.091Z" transform="translate(-77.079 -2.221)" fill="none" stroke="#2980b9" stroke-linecap="round" stroke-linejoin="round" stroke-width="4.422"/>
      <path id="Path_24968" data-name="Path 24968" d="M874.75,497.068a3.438,3.438,0,1,1-1-2.439,3.438,3.438,0,0,1,1,2.439Z" transform="translate(-256.472 -147.92)" fill="none" stroke="#2980b9" stroke-linecap="round" stroke-linejoin="round" stroke-width="2.221"/>
      <path id="Path_24969" data-name="Path 24969" d="M556.792,53.114a6.875,6.875,0,1,1-2.01-4.867,6.875,6.875,0,0,1,2.01,4.867Z" transform="translate(-188.204 -17.118)" fill="none" stroke="#2980b9" stroke-linecap="round" stroke-linejoin="round" stroke-width="2"/>
      <path id="Path_24970" data-name="Path 24970" d="M780.7,143.659a7.516,7.516,0,1,1-7.5-7.445A7.516,7.516,0,0,1,780.7,143.659Z" transform="translate(-170.982 -23.309)" fill="none" stroke="#2980b9" stroke-linecap="round" stroke-linejoin="round" stroke-width="1.132"/>
      <path id="Path_24971" data-name="Path 24971" d="M860.911,220.371a5.452,5.452,0,1,1-5.433-5.426A5.453,5.453,0,0,1,860.911,220.371Z" transform="translate(-251.194 -65.293)" fill="none" stroke="#2980b9" stroke-linecap="round" stroke-linejoin="round" stroke-width="1.299"/>
      <path id="Path_24972" data-name="Path 24972" d="M59.743,172.5a5.448,5.448,0,1,1-5.448-5.44,5.448,5.448,0,0,1,5.448,5.44Z" transform="translate(-14.447 -51.096)" fill="none" stroke="#2980b9" stroke-linecap="round" stroke-linejoin="round" stroke-width="1.299"/>
      <rect id="Rectangle_1206" data-name="Rectangle 1206" width="264" height="498.358" rx="33.865" transform="translate(254.715 76.057)" fill="#2980b9" stroke="#fff" stroke-width="2.096"/>
      <rect id="Rectangle_1207" data-name="Rectangle 1207" width="477.497" height="243.124" rx="23.387" transform="translate(508.276 86.48) rotate(90)" fill="#f6f6f6"/>
      <path id="Path_29573" data-name="Path 29573" d="M508.2,265.067l-10.438.31c-3.5.1-7.012.206-10.555.277-7.086.133-14.188.354-21.363.443s-14.365.177-21.569.236-14.424,0-21.614-.177h-1.24v-1.181c.237-12.576.647-25.062.709-37.712V208.411c0-6.3-.207-12.561-.31-18.841v-.84h.871c7.116-.133,14.232-.324,21.347-.4s14.246-.191,21.363-.236l21.347-.162h23.016v1.622q0,9.553-.207,19.166l-.324,19.037Zm-.237-.221-.992-38.067-.325-18.667c-.133-6.206-.177-12.4-.207-18.575l1.638,1.637H486.723l-21.347-.162q-10.674,0-21.363-.236c-7.116-.074-14.232-.265-21.347-.4l.857-.855c-.1,6.284-.277,12.561-.295,18.841s-.133,12.576,0,18.852c0,12.576.472,25.062.724,37.712l-1.211-1.209c7.042-.162,14.055-.191,21.082-.177s14.07.1,21.156.236,14.2.31,21.347.443l10.807.277Z" transform="translate(-124.546 -57.284)" fill="#262626" opacity="0.6"/>
      <rect id="Rectangle_1208" data-name="Rectangle 1208" width="185.267" height="107.37" transform="translate(295.182 224.942)" fill="#2980b9"/>
      <path id="Path_29574" data-name="Path 29574" d="M604.05,748.719l-22.795.443-23.031.324c-15.369.221-30.9.265-46.372.413s-31.121,0-46.668-.295l-23.3-.339-23.135-.1h-.5v-.443c0-8.609,0-17.219-.074-25.828s-.192-17.219-.295-25.829v-.84h.871L441.9,695.9l23.164-.221,46.313-.25h23.163l23.164.1,46.313.443h1.166v1.12l-.462,26.109Zm-.221-.221-.531-25.947L602.835,697l1.137,1.135-46.313.443-23.164.1h-23.16l-46.313-.25-23.164-.221-23.1-.354.857-.855c-.1,8.609-.251,17.219-.295,25.829s-.118,17.219-.074,25.829l-.487-.486,23.09-.162,23.031-.339c15.325-.236,30.6-.4,45.974-.295s30.752.191,46.254.413l23.3.324Z" transform="translate(-123.499 -207.755)" fill="#262626" opacity="0.6"/>
      <rect id="Rectangle_1209" data-name="Rectangle 1209" width="83.118" height="107.37" transform="translate(397.329 360.042)" fill="#2980b9"/>
      <path id="Path_29575" data-name="Path 29575" d="M560.672,233.774c14.764.634,29.527.87,44.29.575,7.382-.148,14.631-.354,21.939-.752s14.763-.354,21.717-2.093c.783-.191.546-1.253-.177-1.312-7.208-.664-14.694.339-21.909.664s-14.616.647-21.939.825c-14.616.354-29.261.428-43.9.118a.988.988,0,0,0,0,1.976Z" transform="translate(-165.409 -69.748)" fill="#262626" opacity="0.6"/>
      <path id="Path_29576" data-name="Path 29576" d="M560.686,249.575c14.764.634,29.527.87,44.29.575,7.382-.148,14.631-.354,21.939-.752s14.764-.354,21.717-2.093c.783-.191.546-1.253-.177-1.312-7.208-.664-14.694.339-21.909.664s-14.616.647-21.939.825c-14.616.354-29.261.428-43.9.1a1,1,0,0,0,0,1.991Z" transform="translate(-165.424 -74.433)" fill="#262626" opacity="0.6"/>
      <path id="Path_29577" data-name="Path 29577" d="M560.686,263.825c14.764.634,29.527.87,44.29.575,7.382-.148,14.631-.354,21.939-.752s14.764-.354,21.717-2.093c.783-.191.546-1.253-.177-1.312-7.208-.664-14.694.339-21.909.664s-14.616.647-21.939.825c-14.616.354-29.261.428-43.9.1a1,1,0,0,0,0,1.991Z" transform="translate(-165.424 -78.657)" fill="#262626" opacity="0.6"/>
      <path id="Path_29578" data-name="Path 29578" d="M560.686,281.088c14.764.634,29.527.87,44.29.575,7.382-.147,14.631-.354,21.939-.752s14.764-.37,21.717-2.093c.783-.191.546-1.253-.177-1.312-7.208-.664-14.694.339-21.909.664s-14.616.647-21.939.825q-21.924.53-43.9.1a1,1,0,0,0,0,1.991Z" transform="translate(-165.424 -83.777)" fill="#262626" opacity="0.6"/>
      <path id="Path_29579" data-name="Path 29579" d="M421.336,518.231c14.763.634,29.527.87,44.291.575,7.382-.148,14.631-.354,21.939-.752s14.763-.354,21.717-2.093c.768-.191.531-1.253-.177-1.312-7.219-.664-14.764.339-21.909.664s-14.616.647-21.939.825c-14.631.354-29.275.428-43.9.118a.988.988,0,1,0,0,1.976Z" transform="translate(-124.237 -154.089)" fill="#262626" opacity="0.6"/>
      <path id="Path_29580" data-name="Path 29580" d="M421.381,534.032c14.764.634,29.527.87,44.291.575,7.382-.148,14.631-.354,21.939-.752s14.763-.354,21.717-2.093c.768-.192.531-1.253-.177-1.312-7.219-.664-14.763.339-21.909.664s-14.616.647-21.939.825c-14.631.354-29.276.428-43.9.1a1,1,0,0,0,0,1.991Z" transform="translate(-124.281 -158.775)" fill="#262626" opacity="0.6"/>
      <path id="Path_29581" data-name="Path 29581" d="M421.381,548.282c14.764.634,29.527.87,44.291.575,7.382-.148,14.631-.354,21.939-.752s14.763-.354,21.717-2.093c.768-.191.531-1.253-.177-1.312-7.219-.664-14.763.339-21.909.664s-14.616.647-21.939.825c-14.631.354-29.276.428-43.9.1a1,1,0,0,0,0,1.99Z" transform="translate(-124.281 -162.999)" fill="#262626" opacity="0.6"/>
      <path id="Path_29582" data-name="Path 29582" d="M421.381,565.549c14.764.634,29.527.87,44.291.575,7.382-.148,14.631-.354,21.939-.752s14.763-.37,21.717-2.093c.768-.191.531-1.253-.177-1.312-7.219-.664-14.763.339-21.909.664s-14.616.647-21.939.825q-21.939.53-43.9.1a1,1,0,0,0,0,1.99Z" transform="translate(-124.281 -168.118)" fill="#262626" opacity="0.6"/>
      <path id="Path_29583" data-name="Path 29583" d="M506.924,641.133c-6.806.25-13.7.486-20.669.647l-10.512.277-10.6.177c-7.086.092-14.2.177-21.347.148s-14.261-.265-21.347-.428h-.959v-.9l.324-13.549c.092-4.512.118-9.037.133-13.549l-.118-13.534-.265-13.549v-.84h.886c7.023-.177,14.055-.354,21.1-.457s14.07-.162,21.1-.236,14.07-.147,21.1-.133,14.07,0,21.1.133H508.4v1.479c-.163,9.2-.295,18.413-.576,27.495Zm-.222-.221-.871-27.377c-.277-8.978-.413-17.836-.576-26.684l1.55,1.548c-7.023,0-14.07.147-21.1.118s-14.07,0-21.1-.133-14.07-.1-21.1-.236-14.07-.265-21.1-.443l.857-.855L423,600.4l-.1,13.534c0,4.512,0,9.037.118,13.549l.339,13.549-.931-.943c6.983-.162,13.907-.384,20.831-.428s13.892,0,20.86.148l10.5.191,10.585.265c7.057.163,14.217.4,21.5.59Z" transform="translate(-124.565 -175.078)" fill="#262626" opacity="0.6"/>
      <rect id="Rectangle_1210" data-name="Rectangle 1210" width="89.643" height="53.383" transform="translate(85.466 127.14)" fill="#2980b9"/>
      <rect id="Rectangle_1211" data-name="Rectangle 1211" width="98.487" height="58.602" transform="translate(148.166 145.199)" fill="#dbdbdb"/>
      <path id="Path_29584" data-name="Path 29584" d="M132.884,200.03c19.684.384,39.36.664,59.052.944,5.463,0,10.94.236,16.4.162a.384.384,0,0,0,0-.752c-9.774-.384-19.577-.324-29.349-.457s-19.709-.31-29.527-.4l-16.521-.133a.324.324,0,0,0,0,.634Z" transform="translate(-39.224 -60.683)" fill="#334756"/>
      <path id="Path_29585" data-name="Path 29585" d="M132.859,214.4c7.515-.118,15.044-.092,22.559,0,3.721,0,7.382.133,11.175.25l5.492.162a55.6,55.6,0,0,0,5.905.162c.324,0,.443-.545.092-.6a44.078,44.078,0,0,0-5.581-.295q-2.746-.118-5.492-.176c-3.794-.092-7.578-.163-11.367-.191-7.578,0-15.162,0-22.734.176a.25.25,0,0,0,0,.5Z" transform="translate(-39.213 -64.927)" fill="#334756"/>
      <path id="Path_29586" data-name="Path 29586" d="M132.123,229.736q11.56-1.15,23.179-1.479h11.619c3.868,0,7.736.413,11.6.457.487,0,.462-.708,0-.752-3.839-.443-7.751-.443-11.6-.5s-7.751,0-11.619,0c-7.751.221-15.487.752-23.179,1.681-.277,0-.277.471,0,.443Z" transform="translate(-38.994 -68.998)" fill="#334756"/>
      <path id="Path_29587" data-name="Path 29587" d="M132.759,244.77c11.043-.265,22.145-.647,33.129-.884a38.337,38.337,0,0,1,10.335.619c.546.148.783-.708.237-.84a33.9,33.9,0,0,0-9.213-.647l-7.987.206q-8.681.265-17.347.6c-3.071.133-6.142.277-9.213.471-.31,0-.31.486,0,.471Z" transform="translate(-39.159 -73.595)" fill="#334756"/>
      <g id="Group_790" data-name="Group 790" transform="translate(73.21 319.509)">
        <path id="Path_35405" data-name="Path 35405" d="M133.017,200.456c32.885.641,65.756,1.109,98.655,1.576,9.126,0,18.277.394,27.4.27a.641.641,0,0,0,0-1.257c-16.328-.641-32.706-.542-49.032-.764s-32.927-.517-49.329-.665l-27.6-.222a.542.542,0,0,0,0,1.059Z" transform="translate(-131.781 -199.394)" fill="#f6f6f6"/>
        <path id="Path_35406" data-name="Path 35406" d="M132.992,214.867c12.555-.2,25.133-.154,37.688,0,6.216,0,12.333.222,18.67.418l9.175.27a92.884,92.884,0,0,0,9.865.27c.542,0,.74-.911.154-1.01a73.636,73.636,0,0,0-9.324-.493q-4.587-.2-9.175-.295c-6.339-.154-12.66-.272-18.99-.32-12.66,0-25.331,0-37.98.295a.418.418,0,1,0,0,.837Z" transform="translate(-131.781 -196.883)" fill="#f6f6f6"/>
        <path id="Path_35407" data-name="Path 35407" d="M132.262,231.279q19.313-1.921,38.724-2.47H190.4c6.463,0,12.924.69,19.387.764.814,0,.772-1.183,0-1.257-6.413-.74-12.949-.74-19.387-.837s-12.949,0-19.411,0c-12.949.369-25.873,1.257-38.724,2.808-.463,0-.463.787,0,.74Z" transform="translate(-131.914 -194.479)" fill="#f6f6f6"/>
        <path id="Path_35408" data-name="Path 35408" d="M132.954,246c18.45-.443,37-1.081,55.347-1.478a64.049,64.049,0,0,1,17.265,1.034c.912.247,1.308-1.183.4-1.4a56.634,56.634,0,0,0-15.391-1.081l-13.344.344q-14.5.443-28.98,1.01c-5.13.222-10.261.463-15.391.787-.517,0-.517.812,0,.787Z" transform="translate(-131.819 -191.76)" fill="#f6f6f6"/>
      </g>
      <g id="Group_791" data-name="Group 791" transform="translate(73.21 392.515)">
        <path id="Path_35405-2" data-name="Path 35405" d="M133.017,200.456c32.885.641,65.756,1.109,98.655,1.576,9.126,0,18.277.394,27.4.27a.641.641,0,0,0,0-1.257c-16.328-.641-32.706-.542-49.032-.764s-32.927-.517-49.329-.665l-27.6-.222a.542.542,0,0,0,0,1.059Z" transform="translate(-131.781 -199.394)" fill="#f6f6f6"/>
        <path id="Path_35406-2" data-name="Path 35406" d="M132.992,214.867c12.555-.2,25.133-.154,37.688,0,6.216,0,12.333.222,18.67.418l9.175.27a92.884,92.884,0,0,0,9.865.27c.542,0,.74-.911.154-1.01a73.636,73.636,0,0,0-9.324-.493q-4.587-.2-9.175-.295c-6.339-.154-12.66-.272-18.99-.32-12.66,0-25.331,0-37.98.295a.418.418,0,1,0,0,.837Z" transform="translate(-131.781 -196.883)" fill="#f6f6f6"/>
        <path id="Path_35407-2" data-name="Path 35407" d="M132.262,231.279q19.313-1.921,38.724-2.47H190.4c6.463,0,12.924.69,19.387.764.814,0,.772-1.183,0-1.257-6.413-.74-12.949-.74-19.387-.837s-12.949,0-19.411,0c-12.949.369-25.873,1.257-38.724,2.808-.463,0-.463.787,0,.74Z" transform="translate(-131.914 -194.479)" fill="#f6f6f6"/>
        <path id="Path_35408-2" data-name="Path 35408" d="M132.954,246c18.45-.443,37-1.081,55.347-1.478a64.049,64.049,0,0,1,17.265,1.034c.912.247,1.308-1.183.4-1.4a56.634,56.634,0,0,0-15.391-1.081l-13.344.344q-14.5.443-28.98,1.01c-5.13.222-10.261.463-15.391.787-.517,0-.517.812,0,.787Z" transform="translate(-131.819 -191.76)" fill="#f6f6f6"/>
      </g>
      <g id="Group_792" data-name="Group 792" transform="translate(73.21 465.521)">
        <path id="Path_35405-3" data-name="Path 35405" d="M133.017,200.456c32.885.641,65.756,1.109,98.655,1.576,9.126,0,18.277.394,27.4.27a.641.641,0,0,0,0-1.257c-16.328-.641-32.706-.542-49.032-.764s-32.927-.517-49.329-.665l-27.6-.222a.542.542,0,0,0,0,1.059Z" transform="translate(-131.781 -199.394)" fill="#f6f6f6"/>
        <path id="Path_35406-3" data-name="Path 35406" d="M132.992,214.867c12.555-.2,25.133-.154,37.688,0,6.216,0,12.333.222,18.67.418l9.175.27a92.884,92.884,0,0,0,9.865.27c.542,0,.74-.911.154-1.01a73.636,73.636,0,0,0-9.324-.493q-4.587-.2-9.175-.295c-6.339-.154-12.66-.272-18.99-.32-12.66,0-25.331,0-37.98.295a.418.418,0,1,0,0,.837Z" transform="translate(-131.781 -196.883)" fill="#f6f6f6"/>
        <path id="Path_35407-3" data-name="Path 35407" d="M132.262,231.279q19.313-1.921,38.724-2.47H190.4c6.463,0,12.924.69,19.387.764.814,0,.772-1.183,0-1.257-6.413-.74-12.949-.74-19.387-.837s-12.949,0-19.411,0c-12.949.369-25.873,1.257-38.724,2.808-.463,0-.463.787,0,.74Z" transform="translate(-131.914 -194.479)" fill="#f6f6f6"/>
        <path id="Path_35408-3" data-name="Path 35408" d="M132.954,246c18.45-.443,37-1.081,55.347-1.478a64.049,64.049,0,0,1,17.265,1.034c.912.247,1.308-1.183.4-1.4a56.634,56.634,0,0,0-15.391-1.081l-13.344.344q-14.5.443-28.98,1.01c-5.13.222-10.261.463-15.391.787-.517,0-.517.812,0,.787Z" transform="translate(-131.819 -191.76)" fill="#f6f6f6"/>
      </g>
      <path id="Path_29588" data-name="Path 29588" d="M297.74,575.171l-2.957-3.45h0Z" transform="translate(-87.123 -171.076)" fill="#6c80ff"/>
      <path id="Path_29589" data-name="Path 29589" d="M266.141,538.841Z" transform="translate(-78.66 -161.328)" fill="#6c80ff"/>
      <path id="Path_32168" data-name="Path 32168" d="M860.9,265.149c-4.813,9.8-10.054,19.357-15.443,28.822-2.716,4.713-5.4,9.45-8.282,14.079s-5.905,9.185-8.858,13.784l-.768-1.357c5.905.295,11.81.384,17.716.37s11.81-.221,17.716-.428,11.81-.472,17.716-.56l17.716-.265-1.479,2.8q-4.591-6.413-8.976-12.915c-2.957-4.423-5.905-8.7-8.74-13.091s-5.714-8.846-8.5-13.269-5.581-8.846-8.267-13.416l.295-.206q4.916,6.177,9.641,12.457t9.4,12.635c3.086,4.231,6.157,8.492,9.168,12.782s6.007,8.594,8.932,12.959l1.9,2.845h-3.381l-17.716-.265c-5.905-.092-11.81-.339-17.716-.56s-11.81-.428-17.716-.428-11.811,0-17.716.37H826l.783-1.479c2.588-4.792,5.109-9.627,7.78-14.374s5.463-9.406,8.282-14.079c5.67-9.3,11.471-18.517,17.716-27.48Z" transform="translate(-244.098 -80.1)" fill="#334756"/>
      <path id="Path_35404" data-name="Path 35404" d="M866.895,322.91c4.813-9.8,10.054-19.357,15.443-28.822,2.716-4.713,5.4-9.45,8.282-14.079s5.905-9.185,8.858-13.784l.768,1.357c-5.905-.295-11.81-.384-17.717-.37s-11.81.221-17.717.428-11.81.472-17.717.56l-17.717.265,1.479-2.8q4.591,6.413,8.976,12.915c2.957,4.423,5.905,8.7,8.74,13.091s5.714,8.846,8.5,13.269,5.581,8.846,8.267,13.416l-.295.206q-4.916-6.177-9.641-12.457T846,293.468c-3.086-4.231-6.157-8.492-9.168-12.782s-6.007-8.594-8.932-12.959l-1.9-2.845h3.381l17.717.265c5.905.092,11.81.339,17.717.56s11.81.428,17.717.428,11.811,0,17.717-.37H901.8l-.783,1.479c-2.588,4.792-5.109,9.627-7.78,14.374s-5.463,9.406-8.282,14.079c-5.67,9.3-11.471,18.517-17.717,27.48Z" transform="translate(-301.605 -0.091)" fill="#334756"/>
      <path id="Path_32169" data-name="Path 32169" d="M254.143,229.75a4.751,4.751,0,0,0-3.721-3.7,6.665,6.665,0,0,0-5.73,1.681,16.929,16.929,0,0,0-5.344,11.543c-.709,8.639,3.9,18.561,11.693,22.718a11.441,11.441,0,0,0,12.343-.516,13.466,13.466,0,0,0,5.241-12.325c-.384-4.01-2.362-9.863-7.057-10.453a5.067,5.067,0,0,0-4.739,1.9c-1.4,1.976-.324,4.334.5,6.31a15.215,15.215,0,0,0,4.429,6.4,7.494,7.494,0,0,0,7.071,1.312,7.373,7.373,0,0,0,4.193-5.278,15.416,15.416,0,0,0-1.109-8.418l-1.609.929c1.653,1.976,3.307,3.965,4.99,5.9a.931.931,0,0,0,.959.265,3.881,3.881,0,0,0,2.466-3.419c.192-1.238,0-3.376,1.211-4.172.62-.4,1.122.37,1.579.723a2.853,2.853,0,0,0,2.588.5,21.424,21.424,0,0,0,3.2-1.294c1.122-.486,2.229-.988,3.307-1.577A.8.8,0,0,0,290,237.3c-1.137.354-2.218.782-3.322,1.238a11.317,11.317,0,0,1-3.278,1.283c-.842,0-1.358-.884-2.082-1.224a2.365,2.365,0,0,0-2.112,0,4.731,4.731,0,0,0-2.185,3.568c-.148,1.09,0,3.45-1.3,3.863l.974.265c-1.653-1.991-3.351-3.921-5.035-5.9a.974.974,0,0,0-1.609.929c1.24,3.361,2.48,8.418-1.063,10.909s-7.382-1.09-8.946-4.01a25.728,25.728,0,0,1-1.2-2.5,6.848,6.848,0,0,1-.915-3.288,2.957,2.957,0,0,1,3.278-2.138,5.475,5.475,0,0,1,3.913,3.273,14.417,14.417,0,0,1,1.565,5.794,11.785,11.785,0,0,1-4.134,10.054,9.282,9.282,0,0,1-10.1.855c-6.392-3.185-10.453-10.762-11.09-17.692a17.671,17.671,0,0,1,2.5-11.2,7.837,7.837,0,0,1,4.606-3.745,3.307,3.307,0,0,1,4.015,2.462c.177,1.077,1.8.6,1.639-.457Z" transform="translate(-70.721 -68.555)" fill="#262626"/>
      <path id="Path_32170" data-name="Path 32170" d="M211.791,326l-10.335.486-10.659.4-10.851.25c-3.632,0-7.264.118-10.9.074h-1.4v-1.294c0-9.509.561-19.018.783-28.542.118-4.747.1-9.509,0-14.256s-.207-9.509-.339-14.27v-.781h.827q10.644-.37,21.334-.53l10.659-.133c3.558,0,7.116-.1,10.674-.1h1.565v1.563c0,9.7-.163,19.431-.413,29.018l-.5,14.242C212.2,316.8,211.938,321.429,211.791,326Zm-.207-.206-.561-14.624-.487-14.285c-.266-9.435-.472-18.738-.413-28.011l1.565,1.563c-3.558,0-7.116,0-10.674-.092l-10.659-.132c-7.116-.118-14.232-.277-21.334-.53l.812-.81c-.133,4.762-.3,9.509-.339,14.27s0,9.509,0,14.256c.222,9.524.768,19.037.768,28.542l-1.314-1.312c3.469,0,6.953,0,10.423.074l10.5.25,10.674.4Z" transform="translate(-49.555 -80.815)" fill="#334756"/>
      <path id="Path_35403" data-name="Path 35403" d="M343.717,503.424,302.5,505.38l-42.514,1.6L216.7,507.989c-14.486,0-28.972.476-43.458.3h-5.6v-5.2c0-38.252,2.237-76.5,3.122-114.811.472-19.1.413-38.252,0-57.344s-.826-38.252-1.353-57.4v-3.141h3.3q42.455-1.487,85.091-2.134l42.514-.535c14.191,0,28.382-.416,42.573-.416h6.24v6.286c0,39.032-.649,78.161-1.648,116.725l-2,57.288C345.364,466.418,344.3,485.042,343.717,503.424Zm-.826-.829-2.237-58.827-1.943-57.463c-1.062-37.954-1.883-75.373-1.648-112.677l6.24,6.286c-14.191,0-28.382,0-42.573-.372l-42.514-.532c-28.382-.476-56.764-1.115-85.091-2.134l3.24-3.26c-.531,19.155-1.18,38.252-1.353,57.4s0,38.252,0,57.344c.885,38.311,3.063,76.577,3.063,114.81l-5.241-5.279c13.837,0,27.733,0,41.574.3l41.869,1.007,42.573,1.6Z" transform="translate(-112.668 27.691)" fill="#334756"/>
      <path id="Path_32171" data-name="Path 32171" d="M842.774,736.414l5.285,72.475h-5.285l-8.225-72.475" transform="translate(-259.528 -219.908)" fill="#2980b9"/>
      <path id="Path_32172" data-name="Path 32172" d="M834.551,736.393l8.225,72.49h3l-8.225-72.49Z" transform="translate(-259.528 -219.902)" fill="#441e1f" opacity="0.37"/>
      <path id="Path_32173" data-name="Path 32173" d="M888.207,704.393l18.794,95h-5.3l-21.717-95" transform="translate(-271.106 -203.946)" fill="#2980b9"/>
      <path id="Path_32174" data-name="Path 32174" d="M879.983,704.393l21.717,95h2.588l-21.732-95Z" transform="translate(-271.106 -203.946)" fill="#334756" opacity="0.37"/>
      <path id="Path_32175" data-name="Path 32175" d="M688.848,736.414l-5.285,72.475h5.285l8.225-72.475" transform="translate(-214.912 -219.908)" fill="#2980b9"/>
      <path id="Path_32176" data-name="Path 32176" d="M687.4,808.882h2.588l8.208-72.49h-2.588Z" transform="translate(-216.044 -219.902)" fill="#441e1f" opacity="0.37"/>
      <path id="Path_32178" data-name="Path 32178" d="M779.552,728.442H664.619v-7.46a11.448,11.448,0,0,1,11.471-11.459h115.73Z" transform="translate(-196.411 -211.936)" fill="#2c394b"/>
      <path id="Path_32179" data-name="Path 32179" d="M827.908,693.019h26.574a21.114,21.114,0,0,0,21.07-19.445l6.654-83.516h-3.115a11.612,11.612,0,0,0-11.573,10.575l-5.905,66.34a7.835,7.835,0,0,1-7.795,7.12H840.8a12.688,12.688,0,0,0-12.682,12.291Z" transform="translate(-244.662 -176.513)" fill="#223146"/>
      <path id="Path_32180" data-name="Path 32180" d="M775.618,783.207,773.9,814.993l-4.311,8.433-8.755-8.433-1.52-35.764Z" transform="translate(-237.297 -232.602)" fill="#d17e39"/>
      <path id="Path_32181" data-name="Path 32181" d="M750.438,828.515s2.957,9.3,2.332,11.057-27.563,18.413-27.563,18.413a10.471,10.471,0,0,1-1.358-6.59c.576-3.494,12.343-9.126,13.2-22.88.413-6.664,8.533-4.039,7.632,1.164C743.971,833.778,750.438,828.515,750.438,828.515Z" transform="translate(-213.888 -246.037)" fill="#334756"/>
      <path id="Path_32182" data-name="Path 32182" d="M736.074,776.7l-1.712,31.785-4.311,8.447-8.755-8.447-1.52-35.751Z" transform="translate(-225.612 -230.676)" fill="#d17e39"/>
      <path id="Path_32183" data-name="Path 32183" d="M710.894,822.014s2.957,9.3,2.333,11.042-27.563,18.428-27.563,18.428a10.543,10.543,0,0,1-1.359-6.6c.576-3.479,12.342-9.126,13.2-22.866.413-6.679,8.519-4.054,7.618,1.164C704.427,827.277,710.894,822.014,710.894,822.014Z" transform="translate(-202.205 -244.106)" fill="#334756"/>
      <path id="Path_32184" data-name="Path 32184" d="M718.58,570.36s-9.8,21.731-12.342,28.262S703.281,617.1,720.4,614.573s15.236-45.3,15.236-45.3Z" transform="translate(-208.325 -170.35)" fill="#dc772e"/>
      <path id="Path_32185" data-name="Path 32185" d="M769.676,648.472s10.748,29.706-.37,35.927-39.271,3.3-39.271,3.3l-1.122,64.319H691.149l2.218-69.821s-1.609-18.428,16.668-22.364c26.187-5.526,23.856-12.236,23.856-12.236Z" transform="translate(-204.25 -193.575)" fill="#2b2b2b"/>
      <path id="Path_32186" data-name="Path 32186" d="M798.483,648.86s10.7,30.034-.37,36.252-39.271,3.331-39.271,3.331l-1.109,68.449h-37.8l2.218-73.993s-1.979-21.3,16.682-22.571c22.145-1.479,23.518-11,23.518-11Z" transform="translate(-212.757 -193.948)" fill="#262626"/>
      <path id="Path_32187" data-name="Path 32187" d="M763.3,532.946a10.683,10.683,0,0,0,8.106-7.67,10.052,10.052,0,0,1-8.341-6.3,16.476,16.476,0,0,1-.3-10.792,49.888,49.888,0,0,1,4.5-10.01,24.808,24.808,0,0,1,13.922,8.639c3.278,4.423,2.4,10.32,4.65,15.583a87.807,87.807,0,0,0,3.617,8.034,11.48,11.48,0,0,0,5.788,5.2,24.637,24.637,0,0,1-16.535,4.659,24.256,24.256,0,0,1-15.414-7.357Z" transform="translate(-225.186 -149.273)" fill="#dc772e"/>
      <path id="Path_32188" data-name="Path 32188" d="M810.181,564.524l-14.483,15.2,5.905,40.513-65.329-1.479-4.931-38.979L718.308,566.4s9.227-20.345,38.385-19.519C783.518,547.644,805,548.528,810.181,564.524Z" transform="translate(-212.276 -163.703)" fill="#4c9dd2"/>
      <path id="Path_32189" data-name="Path 32189" d="M825.149,574.194s8.578,32.743,10.6,42.134-.074,19.431-19.562,13.843c-19.192-5.484-21.954-20.374-31.535-18.192s-12.445-2.845-12.445-6.885a14.473,14.473,0,0,1,.325-4.6s6.746-3.287,20.019.914c11.09,3.512,25.9,13.269,25.9,13.269l-8.252-24.9Z" transform="translate(-228.185 -171.811)" fill="#dc772e"/>
      <path id="Path_32190" data-name="Path 32190" d="M791.04,515.458c.324,1.872,1.7,3.185,3.056,2.948s2.2-1.932,1.875-3.789-1.683-3.2-3.041-2.949S790.73,513.6,791.04,515.458Z" transform="translate(-233.748 -153.262)" fill="#e06004"/>
      <path id="Path_32191" data-name="Path 32191" d="M815.074,484.034a6.71,6.71,0,0,1,2.732,3.022,13.614,13.614,0,0,1,1.566,4.084,9.839,9.839,0,0,1-1.816,7.18,9.643,9.643,0,0,1-6.451,3.965,14.545,14.545,0,0,1-8.326-1.7.206.206,0,0,0-.192.354,11.6,11.6,0,0,0,13.095.092,10.311,10.311,0,0,0,3.824-11.1c-.724-2.256-2.112-4.953-4.355-6.015-.074,0-.148.092-.074.118Z" transform="translate(-237.158 -145.042)" fill="#12203d"/>
      <path id="Path_32192" data-name="Path 32192" d="M801.948,508.039a13.769,13.769,0,0,0,7.5,3.494.1.1,0,0,0,0-.206,20.26,20.26,0,0,1-3.794-1.312,17.724,17.724,0,0,1-3.484-2.226c-.177-.133-.428.1-.251.25Z" transform="translate(-236.965 -152.11)" fill="#12203d"/>
      <path id="Path_32193" data-name="Path 32193" d="M793.67,495.847l-.237-.191-.237-.177-.443-.4a8.621,8.621,0,0,1-.753-.87,6.817,6.817,0,0,1-.989-2.093.148.148,0,0,0-.277.074,5.716,5.716,0,0,0,.974,2.256,4.8,4.8,0,0,0,.812.914,5.867,5.867,0,0,0,.462.4l.236.163a3.11,3.11,0,0,0,.311.163.14.14,0,1,0,.148-.236Z" transform="translate(-233.676 -147.45)" fill="#12203d"/>
      <path id="Path_32194" data-name="Path 32194" d="M768.833,492.62c2.067,6.266,6.88,11.234,11.914,15.509a35,35,0,0,1,4.267,3.951,9.723,9.723,0,0,1,2.392,5.2c1.344-3.45,5.374-5.083,7.208-8.3a7.922,7.922,0,0,0-.339-8.225c4.713-.647,9.774-2.108,12.637-5.9a12.192,12.192,0,0,0,1.3-9.611,8.946,8.946,0,0,0-2.155-3.539c-3.336-3.539-8.947-5.116-13.287-2.949a12.141,12.141,0,0,0-4.946,4.924,25.046,25.046,0,0,0-2.421,6.634,17.333,17.333,0,0,0-6.451-2.373,12.123,12.123,0,0,0-6.023.6,7.243,7.243,0,0,0-4.094,4.068Z" transform="translate(-227.206 -143.222)" fill="#082032"/>
      <path id="Path_32195" data-name="Path 32195" d="M769.185,498.107c-1.181,3.965,1.225,8.462,3.765,11.382a11.1,11.1,0,0,0,10.5,3.715c.3,0,.237-.53,0-.5a11.968,11.968,0,0,1-9.8-3.848c-2.539-2.949-4.429-6.766-3.986-10.688,0-.25-.354-.277-.413,0Z" transform="translate(-227.218 -149.209)" fill="#12203d"/>
      <path id="Path_32196" data-name="Path 32196" d="M808.447,479a10.746,10.746,0,0,0-11-.486,11.1,11.1,0,0,0-5.374,9.155,8.644,8.644,0,0,0,1.479,5.794c.163.221.517,0,.37-.206a10.587,10.587,0,0,1-.148-9.966,9.73,9.73,0,0,1,8.519-5.528,10.45,10.45,0,0,1,5.979,1.479.14.14,0,1,0,.148-.236Z" transform="translate(-234.059 -143.06)" fill="#12203d"/>
      <path id="Path_32197" data-name="Path 32197" d="M676.324,628.057h15.414l3.351-26.935h-22.13Z" transform="translate(-211.777 -179.794)" fill="#262626" stroke="#262626" stroke-width="1"/>
      <path id="Path_32198" data-name="Path 32198" d="M676.019,617.343a6.561,6.561,0,1,0,1.925-4.643,6.57,6.57,0,0,0-1.925,4.643Z" transform="translate(-199.779 -182.659)" fill="none" stroke="#262626" stroke-width="2.389"/>
      <path id="Path_32199" data-name="Path 32199" d="M675.9,607.163l-2.466,20.359H660.587l-2.465-19.9a5.915,5.915,0,0,1,5.67-2.02C667.453,606.282,669.7,610.305,675.9,607.163Z" transform="translate(-194.49 -181.091)" fill="#d4a447"/>
      <path id="Path_32200" data-name="Path 32200" d="M663.141,586.644a2.166,2.166,0,0,0,1.166-3.066c-.857-1.843-3.5-2.125-5.122-2.949-2.14-1.047-4.281-2.949-3.974-5.545s3.071-2.816,5.241-2.786a9.135,9.135,0,0,0,5.448-1.016,5.274,5.274,0,0,0,2.023-4.88c-.354-4.172-3.881-7.239-7.6-8.61-5.315-1.946-11.693-.619-16.521,2.064-.561.31-.163,1.109.413.988,4.695-.929,9.374-2.816,14.217-1.651,3.573.87,7.8,3.685,7.751,7.813,0,4.821-5.905,2.949-8.946,3.774a4.966,4.966,0,0,0-3.13,7.046,8.069,8.069,0,0,0,3.974,3.819,24.162,24.162,0,0,0,3.027,1.164,5.674,5.674,0,0,1,1.579.723c.62.457,1.284,1.769.222,2.211-.531.221-.339,1.062.237.87Z" transform="translate(-190.177 -166.673)" fill="#fffcf3"/>
      <path id="Path_32201" data-name="Path 32201" d="M793.96,614.786H769.526l-7.855-37.933H711.078l7.855,44.493h71.234l4.591-4.629a1.135,1.135,0,0,0-.8-1.931Z" transform="translate(-210.139 -172.599)" fill="#334756"/>
      <path id="Path_32202" data-name="Path 32202" d="M731.428,598.61a5.019,5.019,0,1,0,3.366-6.516A5.188,5.188,0,0,0,731.428,598.61Z" transform="translate(-208.81 -170.16)" fill="#aabbc1"/>
      <path id="Path_32203" data-name="Path 32203" d="M660.866,645.486,640.729,797.835h3.661l27.46-151.742Z" transform="translate(-202.255 -192.948)" fill="#082032"/>
      <path id="Path_32204" data-name="Path 32204" d="M921.144,645.486l20.138,152.35h-3.661L910.16,646.09Z" transform="translate(-281.872 -192.948)" fill="#082032"/>
      <path id="Path_35409" data-name="Path 35409" d="M0,0H211.486V9.037H0Z" transform="translate(442.977 447.761)" fill="#4c9dd2"/>
      <path id="Path_32205" data-name="Path 32205" d="M377.648,309.093l87.414,44.228L503.536,286.1l-93.5-23.163Z" transform="translate(-124.513 -79.522)" opacity="0.25"/>
      <path id="Path_32206" data-name="Path 32206" d="M366.667,311.909l83.31,42.9,43.685-66.562-86.868-25.313Z" transform="translate(-121.268 -79.522)" fill="#2c394b"/>
      <path id="Path_32207" data-name="Path 32207" d="M342.148,732.5l1.875,34.939,4.739,9.273,9.626-9.273,1.668-39.3Z" transform="translate(-114.022 -217.454)" fill="#c66f34"/>
      <path id="Path_32208" data-name="Path 32208" d="M325.47,782.3s-3.2,10.216-2.554,12.148,30.29,20.231,30.29,20.231a11.618,11.618,0,0,0,1.479-7.239c-.647-3.833-13.585-10.025-14.509-25.136-.462-7.371-9.374-4.423-8.386,1.283C332.586,788.082,325.47,782.3,325.47,782.3Z" transform="translate(-95.409 -232.214)" fill="#334756"/>
      <path id="Path_32209" data-name="Path 32209" d="M261,512.772s-21.289,29.087-6.584,46.277c10.955,12.8,39.079,50.523,39.079,50.523l-3.38,74.789s22.913,2.005,42.048-.944c0,0,4.68-66.681,1.373-82.838s-39.478-71.03-39.478-71.03Z" transform="translate(-73.663 -153.599)" fill="#082032"/>
      <path id="Path_32210" data-name="Path 32210" d="M204.846,720.215,185.373,749.3l-1.756,10.258,13.272-1.663L221.8,727.438Z" transform="translate(-67.175 -215.105)" fill="#c66f34"/>
      <path id="Path_32211" data-name="Path 32211" d="M163.865,761.729s-8.711,6.266-9.346,8.182,12.106,34.335,12.106,34.335a11.644,11.644,0,0,0,5.551-4.909c1.786-3.464-4.857-16.217,3.469-28.807,4.03-6.147-4.828-9.185-7.485-3.995C166.094,770.618,163.865,761.729,163.865,761.729Z" transform="translate(-45.667 -227.414)" fill="#334756"/>
      <path id="Path_32212" data-name="Path 32212" d="M237.754,495.42s-23.8,19.49-22.337,42.048c1.078,16.806.959,63.835.959,63.835l-47.6,57.85S185.92,674.471,203,683.523c0,0,43.773-50.581,50.827-65.5s16.465-94.9,16.465-94.9Z" transform="translate(-49.89 -148.454)" fill="#0f283a"/>
      <path id="Path_32213" data-name="Path 32213" d="M356.482,420.225s25.777-.25,29.675-1.548,33.587-28.011,33.587-28.011-3.13-10.394.783-11.956,8.594,3.125,9.626,4.688c0,0-3.115,1.032-2.6,3.111s3.13,7.283-.517,9.361c0,0-17.967,37.7-33.838,45.231,0,0-13.287,5.986-35.152,3.907Z" transform="translate(-105.356 -113.756)" fill="#c66f34"/>
      <path id="Path_32214" data-name="Path 32214" d="M307.361,402.891s22.456-12.62,25.245-15.642,15.9-40.749,15.9-40.749-7.763-7.607-5.094-10.85,9.035-1.4,10.7-.53c0,0-2.244,2.4-.783,3.98s6.245,4.879,4.06,8.447c0,0,2.436,41.678-7.839,55.918,0,0-8.754,11.632-28.925,20.315Z" transform="translate(-90.839 -100.535)" fill="#c66f34"/>
      <path id="Path_32215" data-name="Path 32215" d="M332.4,409.605c-5.551,4.688-19.059,4.644-24.965-2.31s-6.2-16.394-.647-21.1,14.439-2.831,20.344,4.128S337.948,404.9,332.4,409.605Z" transform="translate(-89.493 -115.3)" fill="#cb895c"/>
      <path id="Path_32216" data-name="Path 32216" d="M353.988,391.688l7.456.884-2.332,5.545Z" transform="translate(-117.521 -117.698)" fill="#cb895c"/>
      <path id="Path_32217" data-name="Path 32217" d="M312.477,420.611l-6.29,7.74s12.284,10.216,19.458,6.723l.148-15.347Z" transform="translate(-90.492 -126.011)" fill="#cb895c"/>
      <path id="Path_32218" data-name="Path 32218" d="M309.47,384.537a8.026,8.026,0,0,1,4.045-3.936c1.8-1,1.668-6.089-1.479-6.354s-.753,2.949-7.278,5.78-11.929,6.811-11.175,13.165,4.429,11.057,8.179,12.236,4.783,3.229,4.961,4.718c0,0,4.518-3.98,3.721-8.581a14.574,14.574,0,0,0-2.436-2.786c-1.063-.767-3.824-2.949-1-5.16s5.241,1.062,5.241,1.062l1.092-.59S308.379,388.119,309.47,384.537Z" transform="translate(-86.747 -112.522)" fill="#12203d"/>
      <path id="Path_32219" data-name="Path 32219" d="M322.328,432.116s-33.321-4.673-45.043-.516-37.972,47.777-42.577,53.766c0,0,28.05,20.949,62.922,20.949,0,0,4.99-39.362,8.858-43,0,0,12.239.265,27.342-.25C333.785,463.057,322.328,439.66,322.328,432.116Z" transform="translate(-69.371 -129.02)" fill="#fffcf3"/>
      <path id="Path_32220" data-name="Path 32220" d="M30.239,723.652l5.315,61.917c0,2.831,11.988,5.116,33.307,5.116s31.859-2.285,31.859-5.116l6.762-61.917Z" transform="translate(-8.949 -216.124)" fill="#e2b45a"/>
      <ellipse id="Ellipse_163" data-name="Ellipse 163" cx="38.621" cy="4.334" rx="38.621" ry="4.334" transform="translate(21.289 503.193)" fill="#262626"/>
      <path id="Path_35350" data-name="Path 35350" d="M78.061,664.657a92.012,92.012,0,0,1,4.429,20.02c.37,3.346.591,6.708.709,10.073.074,1.711.1,3.435.1,5.146a49.548,49.548,0,0,0,0,5.131c0,.277.5.413.561.074a32.243,32.243,0,0,0,.207-5.2v-5.146c-.1-3.419-.339-6.839-.753-10.231a88.423,88.423,0,0,0-4.65-19.991c-.1-.31-.605-.177-.5.132Z" transform="translate(-23.08 -198.541)" fill="#c9c9c9"/>
      <path id="Path_35351" data-name="Path 35351" d="M89.962,628.392a259.95,259.95,0,0,0-3.278,50q.1,3.524.31,7.033c.118,2.345.192,4.713.517,7.047.118.825,1.479.619,1.479-.206,0-2.093-.237-4.2-.339-6.3s-.177-4.1-.237-6.133c-.1-4.159-.177-8.317-.133-12.457,0-8.3.443-16.615,1.151-24.885.4-4.659.886-9.334,1.479-13.976,0-.516-.812-.634-.9-.118Z" transform="translate(-25.593 -187.781)" fill="#c9c9c9"/>
      <path id="Path_35352" data-name="Path 35352" d="M98.888,669.959a51.759,51.759,0,0,0-15.5,26.536,42.545,42.545,0,0,0-.827,4.26,13.8,13.8,0,0,0-.177,4.26c.1.619.93.471,1.109,0a29.274,29.274,0,0,0,.944-4.659c.31-1.577.635-3.142,1.063-4.673a58.27,58.27,0,0,1,3.307-9.1A62,62,0,0,1,99.686,670.77a.576.576,0,0,0-.8-.811Z" transform="translate(-24.331 -200.173)" fill="#c9c9c9"/>
      <path id="Path_35353" data-name="Path 35353" d="M102.17,704.457a35.429,35.429,0,0,0-7.057,5.307,17.2,17.2,0,0,0-4.547,7.253.192.192,0,0,0,.354.148c.709-1.253,1.344-2.536,2.17-3.73a24.713,24.713,0,0,1,2.613-3.2,41.22,41.22,0,0,1,6.746-5.322c.277-.191,0-.647-.277-.457Z" transform="translate(-26.772 -210.42)" fill="#c9c9c9"/>
      <path id="Path_35354" data-name="Path 35354" d="M56.024,707.955a20.352,20.352,0,0,1,9.714,2.831,17.187,17.187,0,0,1,3.794,3.037c1.151,1.238,1.848,2.757,2.957,4.039.207.25.531,0,.487-.277a9.714,9.714,0,0,0-2.7-4.29,18.275,18.275,0,0,0-4.075-3.229,21.354,21.354,0,0,0-10.142-2.653.277.277,0,0,0,0,.545Z" transform="translate(-16.502 -211.309)" fill="#c9c9c9"/>
      <path id="Path_35355" data-name="Path 35355" d="M54.927,675.373A69.71,69.71,0,0,1,66.28,690.734a92.488,92.488,0,0,1,6.865,17.9c.118.4.827.339.768-.1-1.137-9.981-6.171-19.578-12.328-27.392a56.822,56.822,0,0,0-5.994-6.412.475.475,0,1,0-.664.678Z" transform="translate(-16.202 -201.577)" fill="#c9c9c9"/>
      <path id="Path_35356" data-name="Path 35356" d="M47.407,593.825c6.407,10.32,12.18,21.053,15.575,32.729a152.708,152.708,0,0,1,5.211,36.075c.148,3.465.222,6.931.3,10.394a75.784,75.784,0,0,0,.428,10.2c.092.545,1.033.56,1.109,0a59.432,59.432,0,0,0,.222-9.17c0-3.066-.1-6.147-.222-9.214-.222-6.177-.605-12.355-1.358-18.487a112.584,112.584,0,0,0-9.8-35.239,142.455,142.455,0,0,0-10.5-17.853c-.4-.59-1.344,0-.959.56Z" transform="translate(-13.995 -177.391)" fill="#c9c9c9"/>
      <path id="Path_35357" data-name="Path 35357" d="M42.347,649.753a45.133,45.133,0,0,0-8.252-11.234,57.743,57.743,0,0,0-9.788-8.6,19.2,19.2,0,0,0-7.382-3.2c-6.2-1.017-12.623,2.949-15.3,8.625a20.319,20.319,0,0,0,1.122,18.1A32.108,32.108,0,0,0,16.48,665.97c5.979,3.05,12.933,4.747,19.444,3.125,3.321-.84,7.8-2.462,8.594-6.133C45.433,658.776,44.133,653.513,42.347,649.753Z" transform="translate(-0.019 -187.339)" fill="#00ae00"/>
      <path id="Path_35358" data-name="Path 35358" d="M41.045,699.661c-2.082-.37-4.562-.324-5.905,1.312a4.521,4.521,0,0,0-.462,4.5,7.38,7.38,0,0,0,4.889,4.127,12.032,12.032,0,0,0,6.54-.192c2.613-.766,7.249-2.329,4.828-5.307C48.915,701.608,44.087,700.207,41.045,699.661Z" transform="translate(-10.146 -208.955)" fill="#00ae00"/>
      <path id="Path_35359" data-name="Path 35359" d="M12.531,575.435a21.135,21.135,0,0,1-7.736-13.4,17.189,17.189,0,0,1,12.136-17.868c6.407-1.769,13.538.575,18.395,5.116a30.324,30.324,0,0,1,8.7,17.544c1.063,6.5-.664,18.192-9.567,18.089C27.338,584.885,17.816,579.961,12.531,575.435Z" transform="translate(-1.413 -162.732)" fill="#00ae00"/>
      <path id="Path_35360" data-name="Path 35360" d="M75.92,592.476a26.284,26.284,0,0,1,8.519-18.532c4.429-4.039,11.382-6.4,16.55-3.287,3.974,2.388,5.714,7.268,6.245,11.794a31.79,31.79,0,0,1-3.278,18.354A26.385,26.385,0,0,1,90.168,613.16a8.441,8.441,0,0,1-4.193.693c-3.13-.428-5.905-6.266-7.16-8.846A26.094,26.094,0,0,1,75.92,592.476Z" transform="translate(-22.446 -170.338)" fill="#00ae00"/>
      <path id="Path_35361" data-name="Path 35361" d="M55.444,650.043A20.206,20.206,0,0,1,51.429,634.9c.664-4.57,3.6-9.334,8.193-10.01,3.512-.53,6.925,1.479,9.493,3.965a24.317,24.317,0,0,1,7.023,12.457,20.084,20.084,0,0,1-2.11,14.036,6.534,6.534,0,0,1-2.14,2.462c-2.053,1.253-6.525-.87-8.563-1.739a20.222,20.222,0,0,1-7.881-6.03Z" transform="translate(-15.154 -186.817)" fill="#00ae00"/>
      <path id="Path_35362" data-name="Path 35362" d="M108.459,641a37.78,37.78,0,0,1,12.4-10.615c3.44-1.976,7.382-3.671,11.279-2.949,6.216,1.15,9.921,8.433,8.739,14.624s-6.053,11.145-11.5,14.33c-5.905,3.465-16,6.664-22.617,2.949C100.826,656.109,105.668,644.963,108.459,641Z" transform="translate(-30.729 -187.546)" fill="#00ae00"/>
      <path id="Path_35363" data-name="Path 35363" d="M118.12,685.186a6.3,6.3,0,0,1,4.857.81,6.746,6.746,0,0,1,1.979,3.819,8.745,8.745,0,0,1,0,5.528c-.915,2.152-3.174,3.361-5.268,4.423a33.75,33.75,0,0,1-8.252,3.214c-6.654,1.327-9.094-3.435-6.26-8.846a17.849,17.849,0,0,1,12.948-8.948Z" transform="translate(-30.749 -204.668)" fill="#00ae00"/>
      <path id="Path_35364" data-name="Path 35364" d="M21.417,553.513q5.757,7.74,10.925,15.877c1.712,2.727,3.366,5.47,4.976,8.256s3.071,5.661,4.8,8.359c.133.221.428,0,.339-.191a85.717,85.717,0,0,0-4.621-8.477c-1.624-2.772-3.307-5.5-5.035-8.212Q27.588,561,21.83,553.278C21.639,553.027,21.226,553.277,21.417,553.513Z" transform="translate(-6.328 -165.577)" fill="#fff"/>
      <path id="Path_35365" data-name="Path 35365" d="M34.421,555.521c2.51,4.836,4.828,9.775,6.895,14.817q1.479,3.671,2.865,7.371c.93,2.551,1.683,5.146,2.613,7.7a.222.222,0,1,0,.428-.118c-.664-2.669-1.638-5.293-2.569-7.887s-1.89-5.057-2.957-7.563A156.26,156.26,0,0,0,34.713,555.3c-.1-.191-.4,0-.3.177Z" transform="translate(-10.18 -166.185)" fill="#fff"/>
      <path id="Path_35366" data-name="Path 35366" d="M16.392,565.136q6.023,4.762,11.644,10c1.848,1.725,3.661,3.479,5.433,5.292s3.5,3.833,5.433,5.545c.148.118.4,0,.277-.221a48.23,48.23,0,0,0-5.02-5.545c-1.848-1.887-3.75-3.715-5.7-5.513a152.22,152.22,0,0,0-11.81-9.922c-.207-.162-.5.206-.277.37Z" transform="translate(-4.83 -169.003)" fill="#fff"/>
      <path id="Path_35367" data-name="Path 35367" d="M10.643,577.609c4.547,2.078,9.035,4.334,13.376,6.826s8.474,5.322,12.7,8.021c.237.162.546-.206.31-.4a93.011,93.011,0,0,0-12.667-8.212,127.884,127.884,0,0,0-13.553-6.62c-.222-.092-.384.277-.163.383Z" transform="translate(-3.128 -172.705)" fill="#fff"/>
      <path id="Path_35368" data-name="Path 35368" d="M45.68,557.742a140.883,140.883,0,0,1,3.41,13.71c.443,2.241.812,4.512,1.137,6.782s.428,4.821.9,7.165a.148.148,0,0,0,.3,0,41.3,41.3,0,0,0-.635-6.737c-.324-2.388-.724-4.777-1.2-7.15A125.146,125.146,0,0,0,46.05,557.67c-.092-.221-.443-.133-.37.1Z" transform="translate(-13.51 -166.873)" fill="#fff"/>
      <path id="Path_35369" data-name="Path 35369" d="M53.437,565.694c.915,5,1.653,10.025,2.273,15.052,0,.339.561.339.517,0-.546-5.083-1.358-10.143-2.347-15.171C53.879,565.3,53.392,565.414,53.437,565.694Z" transform="translate(-15.804 -169.208)" fill="#fff"/>
      <path id="Path_35370" data-name="Path 35370" d="M24.594,590.429c1.638.664,3.263,1.4,4.842,2.211s3.056,1.681,4.591,2.462a.15.15,0,1,0,.163-.25,39.242,39.242,0,0,0-9.463-4.909C24.417,589.809,24.3,590.312,24.594,590.429Z" transform="translate(-7.232 -176.473)" fill="#fff"/>
      <path id="Path_35371" data-name="Path 35371" d="M15.321,641.91a163.325,163.325,0,0,1,15.856,10.628,64.941,64.941,0,0,1,6.865,6.177,65.991,65.991,0,0,1,5.905,7.519.251.251,0,0,0,.428-.25,41.534,41.534,0,0,0-9.448-11.1,94.59,94.59,0,0,0-12.063-8.844c-2.421-1.479-4.872-3.037-7.382-4.528a.238.238,0,1,0-.237.413Z" transform="translate(-4.483 -192.046)" fill="#dbdbdb"/>
      <path id="Path_35372" data-name="Path 35372" d="M13.725,650.138a65.469,65.469,0,0,1,13.892,5.794c4.429,2.4,8.445,5.278,12.785,7.754.148.092.266-.133.133-.236a101.417,101.417,0,0,0-12.918-8.2,55.228,55.228,0,0,0-13.833-5.513c-.266,0-.37.339-.118.4Z" transform="translate(-4.01 -194.494)" fill="#dbdbdb"/>
      <path id="Path_35373" data-name="Path 35373" d="M10.223,660.83a134.775,134.775,0,0,1,16.033,4.512q3.974,1.386,7.839,3.05c2.51,1.077,4.961,2.373,7.53,3.317a.221.221,0,0,0,.177-.4,46,46,0,0,0-7.382-3.6c-2.569-1.077-5.152-2.064-7.78-2.949A124.157,124.157,0,0,0,10.4,660.34c-.277,0-.413.37-.118.443Z" transform="translate(-3.004 -197.639)" fill="#dbdbdb"/>
      <path id="Path_35374" data-name="Path 35374" d="M18.841,674.456a77.467,77.467,0,0,1,10.94-.295,46.874,46.874,0,0,1,5.374.428c1.786.206,3.676.545,5.522.664a.237.237,0,0,0,0-.472,44.788,44.788,0,0,0-10.762-1.294,82.443,82.443,0,0,0-11.132.37c-.384,0-.384.634,0,.6Z" transform="translate(-5.479 -201.52)" fill="#dbdbdb"/>
      <path id="Path_35375" data-name="Path 35375" d="M31.961,680.362c2.4-.25,4.813-.472,7.234-.619q1.816-.133,3.632-.176a26.328,26.328,0,0,0,3.469-.236.221.221,0,0,0,0-.443,30.888,30.888,0,0,0-7.19,0c-2.392.177-4.783.472-7.16.884-.266,0-.207.516,0,.486Z" transform="translate(-9.401 -202.789)" fill="#dbdbdb"/>
      <path id="Path_35376" data-name="Path 35376" d="M30.256,634.519A115.293,115.293,0,0,1,40.25,646.77c2.957,4.26,5.492,8.846,8.076,13.269.118.206.4,0,.31-.177a76.631,76.631,0,0,0-8.017-13.7A93.924,93.924,0,0,0,30.58,634.181c-.207-.221-.517.1-.324.31Z" transform="translate(-8.937 -189.86)" fill="#dbdbdb"/>
      <path id="Path_35377" data-name="Path 35377" d="M49.262,648.9a105.533,105.533,0,0,1,6.023,14.153.133.133,0,0,0,.266,0,55.975,55.975,0,0,0-5.905-14.315c-.133-.236-.5,0-.37.221Z" transform="translate(-14.566 -194.168)" fill="#dbdbdb"/>
      <path id="Path_35378" data-name="Path 35378" d="M108.359,659.564A85.815,85.815,0,0,1,129.5,641.3c1.314-.8,2.658-1.563,4.03-2.285a37.2,37.2,0,0,0,4.06-2.211.192.192,0,1,0-.148-.354,19.939,19.939,0,0,0-4.267,1.961q-2.067,1.09-4.03,2.3a83.556,83.556,0,0,0-21.215,18.425C107.682,659.431,108.11,659.875,108.359,659.564Z" transform="translate(-31.886 -190.264)" fill="#dbdbdb"/>
      <path id="Path_35379" data-name="Path 35379" d="M112.123,663.283a116.7,116.7,0,0,1,23.223-11.1.25.25,0,0,0-.133-.471,88.428,88.428,0,0,0-23.282,11.234C111.725,663.091,111.932,663.415,112.123,663.283Z" transform="translate(-33.066 -194.794)" fill="#dbdbdb"/>
      <path id="Path_35380" data-name="Path 35380" d="M111.262,669.025a84.6,84.6,0,0,1,8.784-2.093c2.957-.53,5.979-.663,8.858-1.179.251,0,.177-.428,0-.443a39.181,39.181,0,0,0-8.858,1,68.608,68.608,0,0,0-8.858,2.3.221.221,0,0,0,.118.413Z" transform="translate(-32.837 -198.827)" fill="#dbdbdb"/>
      <path id="Path_35381" data-name="Path 35381" d="M107.568,657.856a47.363,47.363,0,0,1,4.208-9.583,56.927,56.927,0,0,1,6.186-8.448.177.177,0,0,0-.251-.25,42.386,42.386,0,0,0-10.627,18.148.252.252,0,1,0,.487.133Z" transform="translate(-31.655 -191.18)" fill="#dbdbdb"/>
      <path id="Path_35382" data-name="Path 35382" d="M115.113,649.03a40.92,40.92,0,0,1,7.382-9.45,50.533,50.533,0,0,1,9.729-6.988c.207-.1,0-.383-.177-.295a34.3,34.3,0,0,0-9.936,6.914,39.81,39.81,0,0,0-7.323,9.7c-.1.191.192.37.295.177Z" transform="translate(-33.928 -189.032)" fill="#dbdbdb"/>
      <g id="Group_774" data-name="Group 774" transform="translate(75.841 487.535)" opacity="0.41">
        <path id="Path_35383" data-name="Path 35383" d="M108.011,701.84a49.165,49.165,0,0,1,6.334-3.524c2.259-1.047,4.606-1.784,6.924-2.669a.221.221,0,0,0-.118-.413,32.786,32.786,0,0,0-6.865,2.521,50.546,50.546,0,0,0-6.51,3.685c-.251.162,0,.56.237.4Z" transform="translate(-107.671 -695.234)" fill="#fff"/>
      </g>
      <g id="Group_775" data-name="Group 775" transform="translate(75.485 484.015)" opacity="0.41">
        <path id="Path_35384" data-name="Path 35384" d="M107.419,698.854c1.831-3.45,4.9-5.794,7.721-8.388a.131.131,0,0,0-.163-.206,23.3,23.3,0,0,0-7.81,8.447C107.169,698.884,107.332,699.031,107.419,698.854Z" transform="translate(-107.168 -690.231)" fill="#fff"/>
      </g>
      <g id="Group_776" data-name="Group 776" transform="translate(78.084 483.659)" opacity="0.41">
        <path id="Path_35385" data-name="Path 35385" d="M111,697.169a33.959,33.959,0,0,1,6.023-4.319,51.5,51.5,0,0,1,6.791-2.949c.092,0,0-.191,0-.177a23.908,23.908,0,0,0-6.91,2.757A30.714,30.714,0,0,0,110.9,696.9c-.118.1,0,.265.163.162Z" transform="translate(-110.854 -689.723)" fill="#fff"/>
      </g>
      <g id="Group_777" data-name="Group 777" transform="translate(75.689 495.762)" opacity="0.41">
        <path id="Path_35386" data-name="Path 35386" d="M107.589,707.371a29.023,29.023,0,0,0,5.049.516,18.6,18.6,0,0,0,5.035-.471c.148,0,.118-.277,0-.265-1.638,0-3.263.207-4.9.177a38.413,38.413,0,0,1-5.035-.4c-.277,0-.413.384-.118.443Z" transform="translate(-107.457 -706.928)" fill="#fff"/>
      </g>
      <g id="Group_778" data-name="Group 778" transform="translate(78.783 492.026)" opacity="0.41">
        <path id="Path_35387" data-name="Path 35387" d="M112.025,704.043a37.392,37.392,0,0,0,10.72-2.049.192.192,0,0,0-.1-.37,59.307,59.307,0,0,1-10.615,2.093.163.163,0,1,0,0,.324Z" transform="translate(-111.852 -701.617)" fill="#fff"/>
      </g>
      <path id="Path_35388" data-name="Path 35388" d="M37.609,705.173a14.873,14.873,0,0,1,6.333.354c2.067.354,4.1.884,6.186,1.209a.206.206,0,0,0,.1-.384,37.646,37.646,0,0,0-6.614-1.479,13.515,13.515,0,0,0-6.142-.162.25.25,0,0,0,.133.472Z" transform="translate(-11.049 -210.427)" fill="#dbdbdb"/>
      <path id="Path_35389" data-name="Path 35389" d="M44.366,701.433c2.377.8,4.665,1.828,6.968,2.831.222.092.413-.206.192-.324a32.019,32.019,0,0,0-7.071-2.86.185.185,0,1,0-.092.354Z" transform="translate(-13.082 -209.43)" fill="#dbdbdb"/>
      <path id="Path_35390" data-name="Path 35390" d="M41.115,708.438a59.113,59.113,0,0,0,6.469-.206.192.192,0,1,0,0-.383,55.7,55.7,0,0,0-6.469.092.25.25,0,1,0,0,.5Z" transform="translate(-12.089 -211.422)" fill="#dbdbdb"/>
      <path id="Path_35391" data-name="Path 35391" d="M44.3,711.974a30.664,30.664,0,0,1,3.647-.914c.591-.118,1.181-.206,1.772-.295a16.541,16.541,0,0,0,1.9-.324c.163,0,.192-.324,0-.354a10.614,10.614,0,0,0-3.735.25,23.569,23.569,0,0,0-3.735,1.091c-.339.118-.207.664.148.545Z" transform="translate(-13.004 -212.083)" fill="#dbdbdb"/>
      <g id="Group_779" data-name="Group 779" transform="translate(44.234 440.638)" opacity="0.3">
        <path id="Path_35392" data-name="Path 35392" d="M62.85,628.8a108.867,108.867,0,0,1,6.525,12.291q1.479,3.214,2.658,6.531c.812,2.226,1.479,4.555,2.333,6.738a.2.2,0,0,0,.384-.1,37.05,37.05,0,0,0-2.052-6.826q-1.166-3.229-2.6-6.369a83.411,83.411,0,0,0-6.983-12.413c-.118-.177-.4,0-.277.162Z" transform="translate(-62.808 -628.57)" fill="#fff"/>
      </g>
      <g id="Group_780" data-name="Group 780" transform="translate(38.543 453.011)" opacity="0.3">
        <path id="Path_35393" data-name="Path 35393" d="M54.795,646.63A57.423,57.423,0,0,1,64.128,654,52.409,52.409,0,0,1,68,658.218c1.27,1.548,2.362,3.229,3.661,4.747.207.236.531,0,.413-.31a25.505,25.505,0,0,0-3.41-4.9,50.146,50.146,0,0,0-4.089-4.423,49.165,49.165,0,0,0-9.552-7.165.221.221,0,0,0-.222.37Z" transform="translate(-54.73 -646.159)" fill="#fff"/>
      </g>
      <g id="Group_781" data-name="Group 781" transform="translate(55.414 445.961)" opacity="0.3">
        <path id="Path_35394" data-name="Path 35394" d="M78.685,636.389a29.713,29.713,0,0,1,1.831,10.526c0,3.568-.472,7.076-.561,10.644a.231.231,0,1,0,.462,0,51.191,51.191,0,0,0,.8-11.028A27.27,27.27,0,0,0,79,636.212c0-.176-.383,0-.31.132Z" transform="translate(-78.677 -636.138)" fill="#fff"/>
      </g>
      <g id="Group_782" data-name="Group 782" transform="translate(50.897 442.916)" opacity="0.3">
        <path id="Path_35395" data-name="Path 35395" d="M72.347,632.113a51.808,51.808,0,0,1,3.13,7.548c.842,2.521,1.329,5.131,2.052,7.68a.192.192,0,0,0,.384,0,30.481,30.481,0,0,0-1.934-7.976,48.943,48.943,0,0,0-3.336-7.46c-.118-.236-.472,0-.354.206Z" transform="translate(-72.265 -631.807)" fill="#fff"/>
      </g>
      <g id="Group_783" data-name="Group 783" transform="translate(41.25 447.504)" opacity="0.3">
        <path id="Path_35396" data-name="Path 35396" d="M58.646,638.735a36.075,36.075,0,0,1,5.905,5.469,55.267,55.267,0,0,1,4.769,6.5.212.212,0,0,0,.37-.206,26.536,26.536,0,0,0-4.621-6.8,34.643,34.643,0,0,0-6.216-5.337c-.207-.148-.4.191-.192.324Z" transform="translate(-58.572 -638.329)" fill="#fff"/>
      </g>
      <g id="Group_784" data-name="Group 784" transform="translate(39.99 459.261)" opacity="0.3">
        <path id="Path_35397" data-name="Path 35397" d="M56.861,655.41a53.359,53.359,0,0,1,7.16,5.322c1.048.944,2.082,1.917,3.071,2.949a25.872,25.872,0,0,0,2.957,3.1c.177.132.339-.118.266-.277a13.539,13.539,0,0,0-2.716-3.361,42.915,42.915,0,0,0-3.278-3.05,46.383,46.383,0,0,0-7.249-5.027.206.206,0,0,0-.207.354Z" transform="translate(-56.781 -655.043)" fill="#fff"/>
      </g>
      <g id="Group_785" data-name="Group 785" transform="translate(64.504 403.143)" opacity="0.42">
        <path id="Path_35398" data-name="Path 35398" d="M91.931,612.843a92.33,92.33,0,0,1,2.747-19.8,82.019,82.019,0,0,1,2.957-9.3,35.45,35.45,0,0,1,1.9-4.245c.753-1.4,1.8-2.565,2.613-3.907a.207.207,0,0,0-.3-.277,9.689,9.689,0,0,0-2.658,3.259,29.566,29.566,0,0,0-1.949,4.084,79.923,79.923,0,0,0-5.67,30.193.177.177,0,0,0,.354,0Z" transform="translate(-91.578 -575.271)" fill="#fff"/>
      </g>
      <g id="Group_786" data-name="Group 786" transform="translate(66.721 424.671)" opacity="0.42">
        <path id="Path_35399" data-name="Path 35399" d="M95.048,621.432c5.551-3.789,11.073-8.492,12.991-15.2a.324.324,0,0,0-.62-.163c-1.979,6.546-7.382,11.028-12.593,14.978-.237.176,0,.545.222.383Z" transform="translate(-94.728 -605.875)" fill="#fff"/>
      </g>
      <g id="Group_787" data-name="Group 787" transform="translate(57.5 408.607)" opacity="0.42">
        <path id="Path_35400" data-name="Path 35400" d="M86.485,614.221c-2.772-4.57-3.632-9.745-4.045-14.993a31.519,31.519,0,0,1,.207-8.742,16.206,16.206,0,0,1,3.484-7.15.167.167,0,1,0-.237-.236c-4.429,3.715-4.518,10.512-4.089,15.775s1.122,11.16,4.429,15.538c.133.177.443,0,.31-.191Z" transform="translate(-81.638 -583.044)" fill="#fff"/>
      </g>
      <g id="Group_788" data-name="Group 788" transform="translate(61.718 401.988)" opacity="0.42">
        <path id="Path_35401" data-name="Path 35401" d="M88.845,607.684a47.625,47.625,0,0,1-.62-9.611,77.669,77.669,0,0,1,.8-9.8,40.891,40.891,0,0,1,1.831-7.873,16.215,16.215,0,0,1,4.222-6.457.191.191,0,0,0-.222-.295c-4.547,2.948-5.714,9.317-6.451,14.27a70.473,70.473,0,0,0-.753,9.981,43.756,43.756,0,0,0,.812,9.907c0,.265.462.148.4-.118Z" transform="translate(-87.627 -573.631)" fill="#fff"/>
      </g>
      <g id="Group_789" data-name="Group 789" transform="translate(67.767 407.785)" opacity="0.42">
        <path id="Path_35402" data-name="Path 35402" d="M96.595,609.833a45.132,45.132,0,0,1,3.721-7.283c1.255-2.211,2.539-4.423,3.721-6.649a41.109,41.109,0,0,0,4.9-13.829.214.214,0,0,0-.428,0,51.76,51.76,0,0,1-5.448,14.256c-1.166,2.2-2.4,4.349-3.617,6.516a32.222,32.222,0,0,0-3.219,6.944.192.192,0,1,0,.37.1Z" transform="translate(-96.212 -581.872)" fill="#fff"/>
      </g>
    </g>
  </g>
</svg>
